<svg width="221" height="45" viewBox="0 0 221 45" fill="none" xmlns="http://www.w3.org/2000/svg">
<path d="M15.3476 14.6738C15.4141 15.3714 15.4407 16.069 15.4274 16.7667C15.4274 16.8094 15.4274 16.8521 15.4274 16.8948C15.4141 17.3789 15.3875 17.863 15.3276 18.3542V18.3755C15.3076 18.5464 15.281 18.7243 15.2611 18.9023L13.3518 18.283C13.578 17.5996 13.6312 16.8735 13.5514 16.1616C13.5114 15.7985 13.4383 15.4426 13.3252 15.0938C13.1123 14.3961 12.7863 13.6771 12.2607 13.1646C11.6288 12.5524 10.877 12.5737 10.0587 12.5808C8.68165 12.5808 7.4243 11.8761 6.45968 10.915C5.45513 9.92553 4.89631 8.096 4.29093 6.90004C3.47931 5.29832 2.53464 4.56508 1.58332 4.13795C1.57001 4.13084 1.57666 4.10948 1.58997 4.10948C2.04235 4.03829 6.2601 3.12709 10.0587 5.80375C11.2163 6.62241 12.0811 7.69023 12.5601 9.08551C12.7198 9.54823 12.7663 10.1249 12.6333 10.6089C12.5734 10.8225 12.4404 11.0218 12.2541 11.1357C11.9547 11.3208 11.5888 11.335 11.2496 11.2995C10.9103 11.2639 10.5776 11.1784 10.2517 11.0645C8.10952 10.3242 6.16696 7.85396 5.04932 6.19528C5.08259 6.28783 5.1225 6.37325 5.16242 6.4658C5.28217 6.73631 5.41522 6.99971 5.55492 7.25598C5.76115 7.6404 5.98734 8.01057 6.23349 8.36651C6.53286 8.80076 6.86549 9.21365 7.21807 9.60518C7.61723 10.0323 8.04965 10.431 8.52198 10.7727C9.21385 11.2781 9.99221 11.6839 10.8171 11.9045C11.5356 12.0968 12.314 12.1822 12.8661 12.7303C13.5447 13.3995 13.8175 14.4032 13.9372 15.3287C13.9505 15.2005 13.9572 15.0724 13.9705 14.9443C14.0503 13.8978 14.0503 12.8442 13.9904 11.7978C13.9572 11.1713 13.9039 10.552 13.8308 9.93264C13.7642 9.32043 13.6778 8.76516 13.2919 8.27397C12.9726 7.8682 12.5535 7.54785 12.2807 7.09937C11.9547 6.5797 11.8017 5.96748 11.7551 5.35527C11.6886 4.45118 12.1809 3.33353 12.3871 2.50063C12.6666 1.3901 12.5202 0.635512 12.2474 0.0161775C12.2408 0.00905876 12.2541 -0.00517859 12.2674 0.00194019C12.9659 0.478899 13.6112 0.984332 14.1634 1.64638C15.4939 3.23387 16.2789 5.61866 15.3609 7.61192C14.7954 8.82923 13.8574 7.7543 13.4449 7.02106C12.7264 5.73968 12.8994 3.76778 13.0524 2.4864C12.8262 3.14844 12.6998 3.86744 12.6399 4.56508C12.5801 5.41222 12.6399 6.30206 12.9992 7.08513C13.232 7.59056 13.6378 8.01057 13.884 8.52313C14.0902 8.97161 14.2233 9.44857 14.3763 9.92553C14.8619 11.4632 15.2079 13.0578 15.3476 14.6738Z" fill="#37B6FF"/>
<path d="M29.837 37.1901C30.8948 37.4463 31.9259 37.7525 32.9039 38.0942V26.6614L29.837 24.7892V37.1901Z" fill="#37B6FF"/>
<path d="M8.10289 26.6474V38.1016C9.08748 37.7527 10.112 37.4538 11.1697 37.1975V24.7823L9.11409 26.0281L8.10289 26.6474Z" fill="#37B6FF"/>
<path d="M32.9038 20.6748L25.5793 14.6167L20.5034 10.4095L15.9663 14.1611C16.0328 15.713 15.6736 17.2008 15.4674 17.9269C15.3809 18.2117 15.3277 18.3825 15.3277 18.3825V18.3612C15.2079 17.7917 15.2345 15.4425 15.3476 14.6736L9.11413 19.8276L8.09628 20.6676L3.06026 24.8321L6.12711 26.441L8.09628 24.8108L9.11413 23.9708L11.1698 22.2765L15.2545 18.8951L20.5034 14.5526L25.586 18.7527L29.837 22.2694L32.9038 24.8108L34.9129 26.4766L37.9798 24.8677L32.9038 20.6748Z" fill="#37B6FF"/>
<path d="M32.9038 39.8034C31.9325 39.4403 30.908 39.12 29.8369 38.8495C26.983 38.1163 23.823 37.7105 20.4967 37.7105C17.1704 37.7105 14.017 38.1163 11.1631 38.8495C10.092 39.12 9.0675 39.4403 8.09622 39.8034C4.65017 41.0777 1.83612 42.8716 0 45.0001C2.32176 43.8967 5.05598 42.9855 8.09622 42.3092C11.8483 41.4763 16.0527 41.0136 20.4967 41.0136C24.9473 41.0136 29.1517 41.4763 32.9038 42.3092C35.944 42.9855 38.6782 43.8967 41 45.0001C39.1705 42.8787 36.3631 41.0848 32.9038 39.8034Z" fill="#37B6FF"/>
<path d="M20.051 28.1071H16.1792V33.7238H20.051V28.1071Z" fill="#37B6FF"/>
<path d="M24.8275 28.1071H20.9557V33.7238H24.8275V28.1071Z" fill="#37B6FF"/>
<path d="M20.051 21.5002H16.1792V27.1169H20.051V21.5002Z" fill="#37B6FF"/>
<path d="M24.8275 21.5002H20.9557V27.1169H24.8275V21.5002Z" fill="#37B6FF"/>
<path d="M45.125 37.625V14.1875L48.0938 12.7812H48.25V23.7812H57.4688V14.1875L60.4375 12.7812H60.5938V36.2188L57.625 37.625H57.4688V26.625H48.25V36.2188L45.2812 37.625H45.125ZM70.75 34.1875H74.3438C75.3854 34.1875 75.9062 33.5625 75.9062 32.3125V24.5C75.9062 23.25 75.3854 22.625 74.3438 22.625H70.75C69.7083 22.625 69.1875 23.25 69.1875 24.5V32.3125C69.1875 33.5625 69.7083 34.1875 70.75 34.1875ZM70.75 37C67.625 37 66.0625 35.4375 66.0625 32.3125V24.5C66.0625 21.375 67.625 19.8125 70.75 19.8125H74.3438C77.4688 19.8125 79.0312 21.375 79.0312 24.5V32.3125C79.0312 35.4375 77.4688 37 74.3438 37H70.75ZM83.7188 37.625V24.5C83.7188 21.375 85.2812 19.8125 88.4062 19.8125H92C93.4375 19.8125 94.4792 20.1979 95.125 20.9688C95.8125 20.1979 96.8542 19.8125 98.25 19.8125H101.844C104.969 19.8125 106.531 21.375 106.531 24.5V36.2188L103.562 37.625H103.406V24.5C103.406 23.25 102.885 22.625 101.844 22.625H98.25C97.2083 22.625 96.6875 23.25 96.6875 24.5V36.2188L93.7188 37.625H93.5625V24.5C93.5625 23.25 93.0417 22.625 92 22.625H88.4062C87.3646 22.625 86.8438 23.25 86.8438 24.5V36.2188L83.875 37.625H83.7188ZM115.906 37C112.781 37 111.219 35.4375 111.219 32.3125V24.5C111.219 21.375 112.781 19.8125 115.906 19.8125H119.5C122.625 19.8125 124.188 21.375 124.188 24.5V25.3281L114.391 32.9062C114.536 33.7604 115.042 34.1875 115.906 34.1875H119.5C120.542 34.1875 121.062 33.5625 121.062 32.3125V31.4844L124.031 30.0781H124.188V32.3125C124.188 35.4375 122.625 37 119.5 37H115.906ZM114.344 29.6406L121.047 24.2344C120.984 23.1615 120.469 22.625 119.5 22.625H115.906C114.865 22.625 114.344 23.25 114.344 24.5V29.6406ZM135.125 37C131.479 37 129.656 35.1771 129.656 31.5312V18.875C129.656 15.2292 131.479 13.4062 135.125 13.4062H139.969C143.615 13.4062 145.438 15.2292 145.438 18.875V20.5938L142.469 22H142.312V18.875C142.312 17.1042 141.531 16.2188 139.969 16.2188H135.125C133.562 16.2188 132.781 17.1042 132.781 18.875V31.5312C132.781 33.3021 133.562 34.1875 135.125 34.1875H139.969C141.531 34.1875 142.312 33.3021 142.312 31.5312V26.625H136.875V26.4688L138.141 23.7812H145.438V31.5312C145.438 35.1771 143.615 37 139.969 37H135.125ZM150.906 37.625V24.5C150.906 21.375 152.469 19.8125 155.594 19.8125H159.5V19.9688L158.25 22.625H155.594C154.552 22.625 154.031 23.25 154.031 24.5V36.2188L151.062 37.625H150.906ZM166.844 34.1875H170.438C171.479 34.1875 172 33.5625 172 32.3125V24.5C172 23.25 171.479 22.625 170.438 22.625H166.844C165.802 22.625 165.281 23.25 165.281 24.5V32.3125C165.281 33.5625 165.802 34.1875 166.844 34.1875ZM166.844 37C163.719 37 162.156 35.4375 162.156 32.3125V24.5C162.156 21.375 163.719 19.8125 166.844 19.8125H170.438C173.562 19.8125 175.125 21.375 175.125 24.5V32.3125C175.125 35.4375 173.562 37 170.438 37H166.844ZM184.5 37C181.375 37 179.812 35.4375 179.812 32.3125V20.5938L182.781 19.1875H182.938V32.3125C182.938 33.5625 183.458 34.1875 184.5 34.1875H188.094C189.135 34.1875 189.656 33.5625 189.656 32.3125V20.5938L192.625 19.1875H192.781V32.3125C192.781 33.5625 193.302 34.1875 194.344 34.1875H197.938C198.979 34.1875 199.5 33.5625 199.5 32.3125V20.5938L202.469 19.1875H202.625V32.3125C202.625 35.4375 201.062 37 197.938 37H194.344C192.906 37 191.865 36.6146 191.219 35.8438C190.531 36.6146 189.49 37 188.094 37H184.5ZM207.312 37.625V24.5C207.312 21.375 208.875 19.8125 212 19.8125H215.594C218.719 19.8125 220.281 21.375 220.281 24.5V36.2188L217.312 37.625H217.156V24.5C217.156 23.25 216.635 22.625 215.594 22.625H212C210.958 22.625 210.438 23.25 210.438 24.5V36.2188L207.469 37.625H207.312Z" fill="#37B6FF"/>
</svg>
