<svg width="217" height="45" viewBox="0 0 217 45" fill="none" xmlns="http://www.w3.org/2000/svg">
<path d="M15.0698 14.6738C15.1351 15.3714 15.1612 16.069 15.1481 16.7667C15.1481 16.8094 15.1481 16.8521 15.1481 16.8948C15.1351 17.3789 15.109 17.863 15.0502 18.3542V18.3755C15.0306 18.5464 15.0044 18.7243 14.9848 18.9023L13.1101 18.283C13.3322 17.5996 13.3845 16.8735 13.3061 16.1616C13.2669 15.7985 13.195 15.4426 13.084 15.0938C12.8749 14.3961 12.5549 13.6771 12.0388 13.1646C11.4183 12.5524 10.6801 12.5737 9.87667 12.5808C8.5245 12.5808 7.28992 11.8761 6.34275 10.915C5.35639 9.92553 4.80769 8.096 4.21326 6.90004C3.41633 5.29832 2.48876 4.56508 1.55465 4.13795C1.54159 4.13084 1.54812 4.10948 1.56118 4.10948C2.00537 4.03829 6.14678 3.12709 9.87667 5.80375C11.0133 6.62241 11.8625 7.69023 12.3328 9.08551C12.4895 9.54823 12.5353 10.1249 12.4046 10.6089C12.3458 10.8225 12.2152 11.0218 12.0323 11.1357C11.7383 11.3208 11.3791 11.335 11.0459 11.2995C10.7128 11.2639 10.3862 11.1784 10.0661 11.0645C7.96273 10.3242 6.05533 7.85396 4.95793 6.19528C4.99059 6.28783 5.02978 6.37325 5.06897 6.4658C5.18655 6.73631 5.3172 6.99971 5.45437 7.25598C5.65687 7.6404 5.87896 8.01057 6.12066 8.36651C6.4146 8.80076 6.74121 9.21365 7.08742 9.60518C7.47935 10.0323 7.90394 10.431 8.36773 10.7727C9.04708 11.2781 9.81135 11.6839 10.6213 11.9045C11.3268 12.0968 12.0911 12.1822 12.6333 12.7303C13.2995 13.3995 13.5674 14.4032 13.6849 15.3287C13.698 15.2005 13.7045 15.0724 13.7176 14.9443C13.796 13.8978 13.796 12.8442 13.7372 11.7978C13.7045 11.1713 13.6523 10.552 13.5804 9.93264C13.5151 9.32043 13.4302 8.76516 13.0513 8.27397C12.7378 7.8682 12.3262 7.54785 12.0584 7.09937C11.7383 6.5797 11.5881 5.96748 11.5424 5.35527C11.4771 4.45118 11.9604 3.33353 12.1629 2.50063C12.4373 1.3901 12.2936 0.635512 12.0258 0.0161775C12.0192 0.00905876 12.0323 -0.00517859 12.0454 0.00194019C12.7312 0.478899 13.3649 0.984332 13.907 1.64638C15.2135 3.23387 15.9843 5.61866 15.0828 7.61192C14.5276 8.82923 13.6066 7.7543 13.2016 7.02106C12.4961 5.73968 12.6659 3.76778 12.8162 2.4864C12.5941 3.14844 12.4699 3.86744 12.4112 4.56508C12.3524 5.41222 12.4112 6.30206 12.7639 7.08513C12.9925 7.59056 13.391 8.01057 13.6327 8.52313C13.8352 8.97161 13.9658 9.44857 14.1161 9.92553C14.5929 11.4632 14.9326 13.0578 15.0698 14.6738Z" fill="#007105"/>
<path d="M29.297 37.1901C30.3356 37.4463 31.3481 37.7525 32.3083 38.0942V26.6614L29.297 24.7892V37.1901Z" fill="#37B6FF"/>
<path d="M7.95624 26.6474V38.1016C8.923 37.7527 9.92896 37.4538 10.9676 37.1975V24.7823L8.94913 26.0281L7.95624 26.6474Z" fill="#37B6FF"/>
<path d="M32.3083 20.6748L25.1163 14.6167L20.1323 10.4095L15.6773 14.1611C15.7426 15.713 15.3899 17.2008 15.1874 17.9269C15.1025 18.2117 15.0502 18.3825 15.0502 18.3825V18.3612C14.9327 17.7917 14.9588 15.4425 15.0698 14.6736L8.94916 19.8276L7.94974 20.6676L3.00487 24.8321L6.01621 26.441L7.94974 24.8108L8.94916 23.9708L10.9676 22.2765L14.9784 18.8951L20.1323 14.5526L25.1229 18.7527L29.2969 22.2694L32.3083 24.8108L34.281 26.4766L37.2924 24.8677L32.3083 20.6748Z" fill="#37B6FF"/>
<path d="M32.3082 39.8034C31.3545 39.4403 30.3486 39.12 29.2969 38.8495C26.4946 38.1163 23.3918 37.7105 20.1257 37.7105C16.8596 37.7105 13.7633 38.1163 10.961 38.8495C9.90934 39.12 8.90338 39.4403 7.94968 39.8034C4.566 41.0777 1.80289 42.8716 0 45.0001C2.27974 43.8967 4.96447 42.9855 7.94968 42.3092C11.6338 41.4763 15.7622 41.0136 20.1257 41.0136C24.4957 41.0136 28.6241 41.4763 32.3082 42.3092C35.2935 42.9855 37.9782 43.8967 40.2579 45.0001C38.4616 42.8787 35.705 41.0848 32.3082 39.8034Z" fill="#37B6FF"/>
<path d="M19.688 28.1071H15.8863V33.7238H19.688V28.1071Z" fill="#37B6FF"/>
<path d="M24.3781 28.1071H20.5764V33.7238H24.3781V28.1071Z" fill="#37B6FF"/>
<path d="M19.688 21.5002H15.8863V27.1169H19.688V21.5002Z" fill="#37B6FF"/>
<path d="M24.3781 21.5002H20.5764V27.1169H24.3781V21.5002Z" fill="#37B6FF"/>
<path d="M45.125 37.625V14.1875L48.0938 12.7812H48.25V23.7812H57.4688V14.1875L60.4375 12.7812H60.5938V36.2188L57.625 37.625H57.4688V26.625H48.25V36.2188L45.2812 37.625H45.125ZM70.75 34.1875H74.3438C75.3854 34.1875 75.9062 33.5625 75.9062 32.3125V24.5C75.9062 23.25 75.3854 22.625 74.3438 22.625H70.75C69.7083 22.625 69.1875 23.25 69.1875 24.5V32.3125C69.1875 33.5625 69.7083 34.1875 70.75 34.1875ZM70.75 37C67.625 37 66.0625 35.4375 66.0625 32.3125V24.5C66.0625 21.375 67.625 19.8125 70.75 19.8125H74.3438C77.4688 19.8125 79.0312 21.375 79.0312 24.5V32.3125C79.0312 35.4375 77.4688 37 74.3438 37H70.75ZM83.7188 37.625V24.5C83.7188 21.375 85.2812 19.8125 88.4062 19.8125H92C93.4375 19.8125 94.4792 20.1979 95.125 20.9688C95.8125 20.1979 96.8542 19.8125 98.25 19.8125H101.844C104.969 19.8125 106.531 21.375 106.531 24.5V36.2188L103.562 37.625H103.406V24.5C103.406 23.25 102.885 22.625 101.844 22.625H98.25C97.2083 22.625 96.6875 23.25 96.6875 24.5V36.2188L93.7188 37.625H93.5625V24.5C93.5625 23.25 93.0417 22.625 92 22.625H88.4062C87.3646 22.625 86.8438 23.25 86.8438 24.5V36.2188L83.875 37.625H83.7188ZM115.906 37C112.781 37 111.219 35.4375 111.219 32.3125V24.5C111.219 21.375 112.781 19.8125 115.906 19.8125H119.5C122.625 19.8125 124.188 21.375 124.188 24.5V25.3281L114.391 32.9062C114.536 33.7604 115.042 34.1875 115.906 34.1875H119.5C120.542 34.1875 121.062 33.5625 121.062 32.3125V31.4844L124.031 30.0781H124.188V32.3125C124.188 35.4375 122.625 37 119.5 37H115.906ZM114.344 29.6406L121.047 24.2344C120.984 23.1615 120.469 22.625 119.5 22.625H115.906C114.865 22.625 114.344 23.25 114.344 24.5V29.6406ZM133.562 37C130.438 37 128.875 35.4375 128.875 32.3125V24.5C128.875 21.375 130.438 19.8125 133.562 19.8125H137.156C140.281 19.8125 141.844 21.375 141.844 24.5V38.7188C141.844 41.8438 140.281 43.4062 137.156 43.4062H130.5V43.25L131.75 40.5938H137.156C138.198 40.5938 138.719 39.9688 138.719 38.7188V36.5312C138.281 36.8438 137.76 37 137.156 37H133.562ZM133.562 34.1875H137.156C138.198 34.1875 138.719 33.5625 138.719 32.3125V24.5C138.719 23.25 138.198 22.625 137.156 22.625H133.562C132.521 22.625 132 23.25 132 24.5V32.3125C132 33.5625 132.521 34.1875 133.562 34.1875ZM147 37.625V24.5C147 21.375 148.562 19.8125 151.688 19.8125H155.594V19.9688L154.344 22.625H151.688C150.646 22.625 150.125 23.25 150.125 24.5V36.2188L147.156 37.625H147ZM162.938 34.1875H166.531C167.573 34.1875 168.094 33.5625 168.094 32.3125V24.5C168.094 23.25 167.573 22.625 166.531 22.625H162.938C161.896 22.625 161.375 23.25 161.375 24.5V32.3125C161.375 33.5625 161.896 34.1875 162.938 34.1875ZM162.938 37C159.812 37 158.25 35.4375 158.25 32.3125V24.5C158.25 21.375 159.812 19.8125 162.938 19.8125H166.531C169.656 19.8125 171.219 21.375 171.219 24.5V32.3125C171.219 35.4375 169.656 37 166.531 37H162.938ZM180.594 37C177.469 37 175.906 35.4375 175.906 32.3125V20.5938L178.875 19.1875H179.031V32.3125C179.031 33.5625 179.552 34.1875 180.594 34.1875H184.188C185.229 34.1875 185.75 33.5625 185.75 32.3125V20.5938L188.719 19.1875H188.875V32.3125C188.875 33.5625 189.396 34.1875 190.438 34.1875H194.031C195.073 34.1875 195.594 33.5625 195.594 32.3125V20.5938L198.562 19.1875H198.719V32.3125C198.719 35.4375 197.156 37 194.031 37H190.438C189 37 187.958 36.6146 187.312 35.8438C186.625 36.6146 185.583 37 184.188 37H180.594ZM203.406 37.625V24.5C203.406 21.375 204.969 19.8125 208.094 19.8125H211.688C214.812 19.8125 216.375 21.375 216.375 24.5V36.2188L213.406 37.625H213.25V24.5C213.25 23.25 212.729 22.625 211.688 22.625H208.094C207.052 22.625 206.531 23.25 206.531 24.5V36.2188L203.562 37.625H203.406Z" fill="#37B6FF"/>
</svg>
