<?xml version="1.0" encoding="UTF-8" standalone="no" ?>
<!DOCTYPE svg PUBLIC "-//W3C//DTD SVG 1.1//EN" "http://www.w3.org/Graphics/SVG/1.1/DTD/svg11.dtd">
<svg xmlns="http://www.w3.org/2000/svg" xmlns:xlink="http://www.w3.org/1999/xlink" version="1.1" width="1280" height="1024" viewBox="0 0 1280 1024" xml:space="preserve">
<desc>Created with Fabric.js 4.4.0</desc>
<defs>
</defs>
<g transform="matrix(1 0 0 1 640 512)" id="background-logo"  >
<rect style="stroke: none; stroke-width: 0; stroke-dasharray: none; stroke-linecap: butt; stroke-dashoffset: 0; stroke-linejoin: miter; stroke-miterlimit: 4; fill: rgb(255,255,255); fill-opacity: 0; fill-rule: nonzero; opacity: 1;"  paint-order="stroke"  x="-640" y="-512" rx="0" ry="0" width="1280" height="1024" />
</g>
<g transform="matrix(1.4227778751642397 0 0 1.4227778751642397 322.90579469475904 506.35893884508846)" id="logo-logo"  >
<g style=""  paint-order="stroke"   >
		<g transform="matrix(0.34125907460375066 0 0 0.34125907460375066 -60.69825273351893 -62.552788374867475)"  >
<path style="stroke: none; stroke-width: 1; stroke-dasharray: none; stroke-linecap: butt; stroke-dashoffset: 0; stroke-linejoin: miter; stroke-miterlimit: 4; fill: rgb(55,182,255); fill-rule: nonzero; opacity: 1;"  paint-order="stroke"  transform=" translate(-182.08439216525443, -176.63637287570313)" d="M 282.5 250 C 283.5 259.8 283.9 269.6 283.7 279.4 C 283.7 280 283.7 280.59999999999997 283.7 281.2 C 283.5 288 283.09999999999997 294.8 282.2 301.7 L 282.2 302 C 281.9 304.4 281.5 306.9 281.2 309.4 L 252.5 300.7 C 255.9 291.09999999999997 256.7 280.9 255.5 270.9 C 254.9 265.79999999999995 253.8 260.79999999999995 252.1 255.89999999999998 C 248.9 246.09999999999997 244 235.99999999999997 236.1 228.79999999999998 C 226.6 220.2 215.29999999999998 220.49999999999997 203 220.6 C 182.3 220.6 163.4 210.7 148.9 197.2 C 133.8 183.29999999999998 125.4 157.6 116.30000000000001 140.79999999999998 C 104.1 118.3 89.9 108 75.6 102 C 75.39999999999999 101.9 75.5 101.6 75.69999999999999 101.6 C 82.49999999999999 100.6 145.89999999999998 87.8 203 125.39999999999999 C 220.4 136.89999999999998 233.4 151.89999999999998 240.6 171.5 C 243 178 243.7 186.1 241.7 192.9 C 240.79999999999998 195.9 238.79999999999998 198.70000000000002 236 200.3 C 231.5 202.9 226 203.10000000000002 220.9 202.60000000000002 C 215.8 202.10000000000002 210.8 200.90000000000003 205.9 199.3 C 173.7 188.9 144.5 154.20000000000002 127.7 130.9 C 128.2 132.20000000000002 128.8 133.4 129.4 134.70000000000002 C 131.20000000000002 138.50000000000003 133.20000000000002 142.20000000000002 135.3 145.8 C 138.4 151.20000000000002 141.8 156.4 145.5 161.4 C 150 167.5 155 173.3 160.3 178.8 C 166.3 184.8 172.8 190.4 179.9 195.20000000000002 C 190.3 202.3 202 208.00000000000003 214.4 211.10000000000002 C 225.20000000000002 213.8 236.9 215.00000000000003 245.20000000000002 222.70000000000002 C 255.4 232.10000000000002 259.5 246.20000000000002 261.3 259.20000000000005 C 261.5 257.40000000000003 261.6 255.60000000000005 261.8 253.80000000000004 C 263 239.10000000000005 263 224.30000000000004 262.1 209.60000000000002 C 261.6 200.8 260.8 192.10000000000002 259.70000000000005 183.40000000000003 C 258.70000000000005 174.80000000000004 257.40000000000003 167.00000000000003 251.60000000000005 160.10000000000002 C 246.80000000000004 154.40000000000003 240.50000000000006 149.90000000000003 236.40000000000006 143.60000000000002 C 231.50000000000006 136.3 229.20000000000007 127.70000000000002 228.50000000000006 119.10000000000002 C 227.50000000000006 106.40000000000002 234.90000000000006 90.70000000000002 238.00000000000006 79.00000000000003 C 242.20000000000005 63.40000000000003 240.00000000000006 52.800000000000026 235.90000000000006 44.10000000000003 C 235.80000000000007 44.00000000000003 236.00000000000006 43.80000000000003 236.20000000000007 43.90000000000003 C 246.70000000000007 50.60000000000003 256.4000000000001 57.70000000000003 264.70000000000005 67.00000000000003 C 284.70000000000005 89.30000000000003 296.50000000000006 122.80000000000003 282.70000000000005 150.8 C 274.20000000000005 167.9 260.1 152.8 253.90000000000003 142.5 C 243.10000000000002 124.5 245.70000000000005 96.8 248.00000000000003 78.8 C 244.60000000000002 88.1 242.70000000000002 98.19999999999999 241.80000000000004 108 C 240.90000000000003 119.9 241.80000000000004 132.4 247.20000000000005 143.4 C 250.70000000000005 150.5 256.80000000000007 156.4 260.50000000000006 163.6 C 263.6000000000001 169.9 265.6000000000001 176.6 267.90000000000003 183.29999999999998 C 275.2 204.9 280.4 227.3 282.5 250 z" stroke-linecap="round" />
</g>
		<g transform="matrix(0.34125907460375066 0 0 0.34125907460375066 0.1023777223811635 8.416686568809524)"  >
<g style=""  paint-order="stroke"   >
		<g transform="matrix(1 0 0 1 163.09999999999985 100.94999999999993)"  >
<path style="stroke: none; stroke-width: 1; stroke-dasharray: none; stroke-linecap: butt; stroke-dashoffset: 0; stroke-linejoin: miter; stroke-miterlimit: 4; fill: rgb(55,182,255); fill-rule: nonzero; opacity: 1;"  paint-order="stroke"  transform=" translate(-523.3499999999999, -485.54999999999995)" d="M 500.3 566.3 C 516.2 569.9 531.7 574.1999999999999 546.4 579 L 546.4 418.4 L 500.29999999999995 392.09999999999997 L 500.29999999999995 566.3 z" stroke-linecap="round" />
</g>
		<g transform="matrix(1 0 0 1 -163.60000000000008 100.94999999999999)"  >
<path style="stroke: none; stroke-width: 1; stroke-dasharray: none; stroke-linecap: butt; stroke-dashoffset: 0; stroke-linejoin: miter; stroke-miterlimit: 4; fill: rgb(55,182,255); fill-rule: nonzero; opacity: 1;"  paint-order="stroke"  transform=" translate(-196.64999999999998, -485.55)" d="M 173.6 418.2 L 173.6 579.1 C 188.4 574.2 203.79999999999998 570 219.7 566.4 L 219.7 392 L 188.79999999999998 409.5 L 173.6 418.2 z" stroke-linecap="round" />
</g>
		<g transform="matrix(1 0 0 1 0 -81.65000000000003)"  >
<path style="stroke: none; stroke-width: 1; stroke-dasharray: none; stroke-linecap: butt; stroke-dashoffset: 0; stroke-linejoin: miter; stroke-miterlimit: 4; fill: rgb(55,182,255); fill-rule: nonzero; opacity: 1;"  paint-order="stroke"  transform=" translate(-360.25000000000006, -302.95)" d="M 546.4 334.3 L 436.29999999999995 249.20000000000002 L 360 190.1 L 291.8 242.8 C 292.8 264.6 287.40000000000003 285.5 284.3 295.7 C 283 299.7 282.2 302.09999999999997 282.2 302.09999999999997 L 282.2 301.79999999999995 C 280.4 293.79999999999995 280.8 260.79999999999995 282.5 249.99999999999994 L 188.8 322.4 L 173.5 334.2 L 97.8 392.7 L 143.9 415.3 L 173.5 392.40000000000003 L 188.8 380.6 L 219.70000000000002 356.8 L 281.1 309.3 L 360 248.3 L 436.4 307.3 L 436.4 307.3 L 500.29999999999995 356.7 L 546.4 392.4 L 576.6 415.79999999999995 L 622.7 393.19999999999993 L 546.4 334.3 z" stroke-linecap="round" />
</g>
</g>
</g>
		<g transform="matrix(0.34125907460375066 0 0 0.34125907460375066 0 51.62008541364432)"  >
<g style=""  paint-order="stroke"   >
		<g transform="matrix(1 0 0 1 0 113.59999999999997)"  >
<path style="stroke: none; stroke-width: 1; stroke-dasharray: none; stroke-linecap: butt; stroke-dashoffset: 0; stroke-linejoin: miter; stroke-miterlimit: 4; fill: rgb(55,182,255); fill-rule: nonzero; opacity: 1;"  paint-order="stroke"  transform=" translate(-359.95, -624.8)" d="M 546.4 603 C 531.8 597.9 516.4 593.4 500.29999999999995 589.6 C 457.4 579.3000000000001 409.9 573.6 359.9 573.6 C 309.9 573.6 262.5 579.3000000000001 219.59999999999997 589.6 C 203.49999999999997 593.4 188.09999999999997 597.9 173.49999999999997 603 C 121.69999999999997 620.9 79.39999999999998 646.1 51.79999999999997 676 C 86.69999999999996 660.5 127.79999999999997 647.7 173.49999999999997 638.2 C 229.89999999999998 626.5 293.09999999999997 620 359.9 620 C 426.79999999999995 620 490 626.5 546.4 638.2 C 592.1 647.7 633.1999999999999 660.5 668.1 676 C 640.6 646.2 598.4 621 546.4 603 z" stroke-linecap="round" />
</g>
		<g transform="matrix(1 0 0 1 -35.849999999999966 -33.05000000000001)"  >
<rect style="stroke: none; stroke-width: 0; stroke-dasharray: none; stroke-linecap: butt; stroke-dashoffset: 0; stroke-linejoin: miter; stroke-miterlimit: 4; fill: rgb(55,182,255); fill-rule: nonzero; opacity: 1;"  paint-order="stroke"  x="-29.1" y="-39.45" rx="0" ry="0" width="58.2" height="78.9" />
</g>
		<g transform="matrix(1 0 0 1 35.950000000000045 -33.05000000000001)"  >
<rect style="stroke: none; stroke-width: 0; stroke-dasharray: none; stroke-linecap: butt; stroke-dashoffset: 0; stroke-linejoin: miter; stroke-miterlimit: 4; fill: rgb(55,182,255); fill-rule: nonzero; opacity: 1;"  paint-order="stroke"  x="-29.1" y="-39.45" rx="0" ry="0" width="58.2" height="78.9" />
</g>
		<g transform="matrix(1 0 0 1 -35.849999999999966 -125.85000000000002)"  >
<rect style="stroke: none; stroke-width: 0; stroke-dasharray: none; stroke-linecap: butt; stroke-dashoffset: 0; stroke-linejoin: miter; stroke-miterlimit: 4; fill: rgb(55,182,255); fill-rule: nonzero; opacity: 1;"  paint-order="stroke"  x="-29.1" y="-39.45" rx="0" ry="0" width="58.2" height="78.9" />
</g>
		<g transform="matrix(1 0 0 1 35.950000000000045 -125.85000000000002)"  >
<rect style="stroke: none; stroke-width: 0; stroke-dasharray: none; stroke-linecap: butt; stroke-dashoffset: 0; stroke-linejoin: miter; stroke-miterlimit: 4; fill: rgb(55,182,255); fill-rule: nonzero; opacity: 1;"  paint-order="stroke"  x="-29.1" y="-39.45" rx="0" ry="0" width="58.2" height="78.9" />
</g>
</g>
</g>
</g>
</g>
<g transform="matrix(1.9211538461538462 0 0 1.9211538461538462 793.8666404906411 473.5331081797081)" id="text-logo"  >
<g style=""  paint-order="stroke"   >
		<g transform="matrix(1 0 0 1 0 0)" id="text-logo-path-0"  >
<path style="stroke: rgb(255,255,255); stroke-width: 0; stroke-dasharray: none; stroke-linecap: butt; stroke-dashoffset: 0; stroke-linejoin: miter; stroke-miterlimit: 4; fill: rgb(55,182,255); fill-rule: nonzero; opacity: 1;"  paint-order="stroke"  transform=" translate(-163.255, 20.650000000000002)" d="M 4.9 -37.76 L 4.9 -3.54 L 1.95 -2.95 L 1.95 0 L 13.16 0 L 13.16 -2.95 L 10.21 -3.54 L 10.21 -19.47 L 32.04 -19.47 L 32.04 -3.54 L 29.09 -2.95 L 29.09 0 L 40.3 0 L 40.3 -2.95 L 37.35 -3.54 L 37.35 -37.76 L 40.3 -38.35 L 40.3 -41.3 L 29.09 -41.3 L 29.09 -38.35 L 32.04 -37.76 L 32.04 -23.6 L 10.21 -23.6 L 10.21 -37.76 L 13.16 -38.35 L 13.16 -41.3 L 1.95 -41.3 L 1.95 -38.35 Z M 57.23 0.3 C 65.43 0.3 70.92 -5.37 70.92 -14.81 C 70.92 -23.78 65.78 -29.8 57.23 -29.8 C 48.85 -29.8 43.37 -24.25 43.37 -14.81 C 43.37 -5.78 48.62 0.3 57.23 0.3 Z M 48.67 -14.81 C 48.67 -21.77 52.04 -25.9 57.23 -25.9 C 62.42 -25.9 65.61 -21.48 65.61 -14.81 C 65.61 -7.79 62.25 -3.66 57.23 -3.66 C 51.86 -3.66 48.67 -8.08 48.67 -14.81 Z M 95.05 -19.41 L 95.05 0 L 103.31 0 L 103.31 -2.95 L 100.36 -3.54 L 100.36 -19.41 C 100.36 -22.36 103.96 -25.55 106.91 -25.55 C 110.74 -25.55 112.69 -23.25 112.69 -19.41 L 112.69 0 L 120.95 0 L 120.95 -2.95 L 118 -3.54 L 118 -19.41 C 118 -25.43 114.58 -29.8 108.62 -29.8 C 104.84 -29.8 101.24 -27.02 99.53 -24.13 C 98.18 -27.55 95.23 -29.8 90.98 -29.8 C 86.85 -29.8 84.49 -27.55 82.42 -25.25 L 81.89 -29.5 L 74.22 -29.5 L 74.22 -26.55 L 77.17 -25.96 L 77.17 -3.54 L 74.22 -2.95 L 74.22 0 L 85.43 0 L 85.43 -2.95 L 82.48 -3.54 L 82.48 -21.42 C 84.25 -23.6 86.55 -25.55 89.27 -25.55 C 93.1 -25.55 95.05 -23.25 95.05 -19.41 Z M 138.06 0.3 C 143.25 0.3 146.2 -1.36 149.8 -3.84 L 147.32 -6.9 C 143.9 -4.54 141.78 -3.66 138.06 -3.66 C 132.1 -3.66 128.92 -8.08 128.92 -14.75 L 149.56 -14.75 C 150.04 -24.19 145.85 -29.8 137.47 -29.8 C 129.09 -29.8 123.61 -24.25 123.61 -14.81 C 123.61 -5.78 129.45 0.3 138.06 0.3 Z M 129.21 -18.29 C 130.21 -23.13 133.22 -25.9 137.47 -25.9 C 142.49 -25.9 144.67 -22.71 144.79 -18.29 Z M 185.14 -37.47 C 182.07 -40.18 177.47 -41.6 171.93 -41.6 C 160.24 -41.6 152.63 -33.87 152.63 -20.71 C 152.63 -8.14 159.95 0.3 171.93 0.3 C 177.89 0.3 182.72 -1.77 186.2 -5.07 L 186.2 -20.65 L 170.81 -20.65 L 170.81 -16.52 L 180.89 -16.52 L 180.89 -6.14 C 178.36 -4.9 175.23 -4.37 171.93 -4.37 C 163.19 -4.37 157.94 -10.92 157.94 -20.71 C 157.94 -30.92 163.43 -36.93 171.93 -36.93 C 175.82 -36.93 179.06 -36.11 181.6 -34.22 L 182.19 -30.09 L 185.14 -30.09 Z M 190.33 0 L 201.54 0 L 201.54 -2.95 L 198.59 -3.54 L 198.59 -19.71 C 199.54 -22.13 202.31 -25.55 206.03 -25.55 C 207.27 -25.55 208.74 -25.31 210.45 -24.43 L 211.28 -29.03 C 210.1 -29.5 208.74 -29.8 207.27 -29.8 C 203.49 -29.8 200.19 -26.55 198.59 -24.01 L 198.59 -25.02 L 198 -29.5 L 190.33 -29.5 L 190.33 -26.55 L 193.28 -25.96 L 193.28 -3.54 L 190.33 -2.95 Z M 226.44 0.3 C 234.64 0.3 240.13 -5.37 240.13 -14.81 C 240.13 -23.78 235 -29.8 226.44 -29.8 C 218.06 -29.8 212.58 -24.25 212.58 -14.81 C 212.58 -5.78 217.83 0.3 226.44 0.3 Z M 217.89 -14.81 C 217.89 -21.77 221.25 -25.9 226.44 -25.9 C 231.63 -25.9 234.82 -21.48 234.82 -14.81 C 234.82 -7.79 231.46 -3.66 226.44 -3.66 C 221.07 -3.66 217.89 -8.08 217.89 -14.81 Z M 243.97 -25.96 L 252.81 0 L 258.13 0 L 265.68 -22.13 L 273.17 0 L 278.48 0 L 287.33 -25.96 L 290.57 -26.55 L 290.57 -29.5 L 279.37 -29.5 L 279.37 -26.55 L 282.08 -25.96 L 275.82 -6.43 L 268.45 -29.5 L 262.85 -29.5 L 255.47 -6.43 L 249.22 -25.96 L 251.93 -26.55 L 251.93 -29.5 L 240.72 -29.5 L 240.72 -26.55 Z M 316.3 -19.41 L 316.3 0 L 324.56 0 L 324.56 -2.95 L 321.61 -3.54 L 321.61 -19.41 C 321.61 -25.43 317.6 -29.8 311.64 -29.8 C 307.51 -29.8 304.15 -27.55 301.96 -25.25 L 301.37 -29.5 L 293.7 -29.5 L 293.7 -26.55 L 296.65 -25.96 L 296.65 -3.54 L 293.7 -2.95 L 293.7 0 L 304.91 0 L 304.91 -2.95 L 301.96 -3.54 L 301.96 -21.3 C 304.26 -23.54 306.56 -25.55 309.93 -25.55 C 314 -25.55 316.3 -23.25 316.3 -19.41 Z" stroke-linecap="round" />
</g>
</g>
</g>
<g transform="matrix(1.9211538461538462 0 0 1.9211538461538462 531.4432578759495 526.6992734104773)" id="tagline-cce6289f-b2cd-4389-8ffe-833ed72663db-logo"  >
<g style=""  paint-order="stroke"   >
		<g transform="matrix(1 0 0 1 0 0)" id="tagline-cce6289f-b2cd-4389-8ffe-833ed72663db-logo-path-0"  >
<path style="stroke: none; stroke-width: 0; stroke-dasharray: none; stroke-linecap: butt; stroke-dashoffset: 0; stroke-linejoin: miter; stroke-miterlimit: 4; fill: rgb(92,224,230); fill-rule: nonzero; opacity: 1;"  paint-order="stroke"  transform=" translate(0, 0)" d="" stroke-linecap="round" />
</g>
</g>
</g>
<g transform="matrix(1.9211538461538462 0 0 1.9211538461538462 531.4432578759495 512.942575828204)" id="tagline-a742a4f2-0ab6-4b3d-8208-be8eb27ba66a-logo"  >
<g style=""  paint-order="stroke"   >
		<g transform="matrix(1 0 0 1 0 0)" id="tagline-a742a4f2-0ab6-4b3d-8208-be8eb27ba66a-logo-path-0"  >
<path style="stroke: none; stroke-width: 0; stroke-dasharray: none; stroke-linecap: butt; stroke-dashoffset: 0; stroke-linejoin: miter; stroke-miterlimit: 4; fill: rgb(255,255,255); fill-rule: nonzero; opacity: 1;"  paint-order="stroke"  transform=" translate(0, 0)" d="" stroke-linecap="round" />
</g>
</g>
</g>
<g transform="matrix(1.9211538461538462 0 0 1.9211538461538462 794.2403049137181 597.8725846212602)" id="tagline-2921ad14-e36f-47b1-b66f-e83ec25819ee-logo"  >
<g style=""  paint-order="stroke"   >
		<g transform="matrix(1 0 0 1 0 0)" id="tagline-2921ad14-e36f-47b1-b66f-e83ec25819ee-logo-path-0"  >
<path style="stroke: none; stroke-width: 0; stroke-dasharray: none; stroke-linecap: butt; stroke-dashoffset: 0; stroke-linejoin: miter; stroke-miterlimit: 4; fill: rgb(55,182,255); fill-rule: nonzero; opacity: 1;"  paint-order="stroke"  transform=" translate(-163.45, 15.675)" d="M 4.79 -36.48 L 4.79 -3.42 L 1.94 -2.85 L 1.94 0 L 18.87 0 C 29.98 0 37.34 -7.47 37.34 -20.01 C 37.34 -31.92 30.38 -39.9 18.87 -39.9 L 1.94 -39.9 L 1.94 -37.05 Z M 9.92 -3.99 L 9.92 -35.91 L 18.87 -35.91 C 27.19 -35.91 32.2 -29.53 32.2 -20.01 C 32.2 -10.03 26.9 -3.99 18.87 -3.99 Z M 55.35 0.29 C 60.36 0.29 63.21 -1.31 66.69 -3.71 L 64.3 -6.67 C 60.99 -4.39 58.94 -3.53 55.35 -3.53 C 49.59 -3.53 46.51 -7.81 46.51 -14.25 L 66.46 -14.25 C 66.92 -23.37 62.87 -28.79 54.78 -28.79 C 46.68 -28.79 41.38 -23.43 41.38 -14.31 C 41.38 -5.59 47.02 0.29 55.35 0.29 Z M 46.8 -17.67 C 47.77 -22.34 50.67 -25.02 54.78 -25.02 C 59.62 -25.02 61.73 -21.95 61.84 -17.67 Z M 71.59 -25.08 L 81.11 0 L 86.24 0 L 95.76 -25.08 L 99.07 -25.65 L 99.07 -28.5 L 88.24 -28.5 L 88.24 -25.65 L 90.69 -25.08 L 83.68 -5.53 L 76.66 -25.08 L 79.12 -25.65 L 79.12 -28.5 L 68.29 -28.5 L 68.29 -25.65 Z M 113.72 0.29 C 118.73 0.29 121.58 -1.31 125.06 -3.71 L 122.66 -6.67 C 119.36 -4.39 117.31 -3.53 113.72 -3.53 C 107.96 -3.53 104.88 -7.81 104.88 -14.25 L 124.83 -14.25 C 125.29 -23.37 121.24 -28.79 113.14 -28.79 C 105.05 -28.79 99.75 -23.43 99.75 -14.31 C 99.75 -5.59 105.39 0.29 113.72 0.29 Z M 105.17 -17.67 C 106.13 -22.34 109.04 -25.02 113.14 -25.02 C 117.99 -25.02 120.1 -21.95 120.21 -17.67 Z M 131.21 -37.62 L 131.21 -3.42 L 128.36 -2.85 L 128.36 0 L 139.19 0 L 139.19 -2.85 L 136.34 -3.42 L 136.34 -41.04 L 128.36 -41.04 L 128.36 -38.19 Z M 155.21 0.29 C 163.13 0.29 168.43 -5.19 168.43 -14.31 C 168.43 -22.97 163.48 -28.79 155.21 -28.79 C 147.12 -28.79 141.82 -23.43 141.82 -14.31 C 141.82 -5.59 146.89 0.29 155.21 0.29 Z M 146.95 -14.31 C 146.95 -21.03 150.19 -25.02 155.21 -25.02 C 160.23 -25.02 163.3 -20.75 163.3 -14.31 C 163.3 -7.52 160.06 -3.53 155.21 -3.53 C 150.02 -3.53 146.95 -7.81 146.95 -14.31 Z M 170.49 9.69 L 181.32 9.69 L 181.32 6.84 L 178.47 6.27 L 178.47 -3.88 C 180.8 -1.54 183.37 0.29 187.25 0.29 C 194.66 0.29 199.04 -5.53 199.04 -14.19 C 199.04 -23.31 195.62 -28.79 187.93 -28.79 C 184.79 -28.79 181.54 -27.76 178.47 -24.05 L 178.47 -24.17 L 177.9 -28.5 L 170.49 -28.5 L 170.49 -25.65 L 173.34 -25.08 L 173.34 6.27 L 170.49 6.84 Z M 178.47 -8.09 L 178.47 -19.84 C 180.46 -23.09 183.43 -24.97 186.39 -24.97 C 191.23 -24.97 193.91 -20.98 193.91 -14.19 C 193.91 -7.75 190.49 -3.48 185.48 -3.48 C 182.46 -3.48 180.12 -5.64 178.47 -8.09 Z M 222.36 -18.75 L 222.36 0 L 230.34 0 L 230.34 -2.85 L 227.49 -3.42 L 227.49 -18.75 C 227.49 -21.6 230.96 -24.68 233.81 -24.68 C 237.52 -24.68 239.4 -22.46 239.4 -18.75 L 239.4 0 L 247.38 0 L 247.38 -2.85 L 244.53 -3.42 L 244.53 -18.75 C 244.53 -24.57 241.22 -28.79 235.47 -28.79 C 231.82 -28.79 228.34 -26.11 226.69 -23.31 C 225.38 -26.62 222.53 -28.79 218.42 -28.79 C 214.43 -28.79 212.15 -26.62 210.16 -24.4 L 209.65 -28.5 L 202.24 -28.5 L 202.24 -25.65 L 205.09 -25.08 L 205.09 -3.42 L 202.24 -2.85 L 202.24 0 L 213.07 0 L 213.07 -2.85 L 210.22 -3.42 L 210.22 -20.69 C 211.93 -22.8 214.15 -24.68 216.77 -24.68 C 220.48 -24.68 222.36 -22.46 222.36 -18.75 Z M 263.91 0.29 C 268.93 0.29 271.78 -1.31 275.25 -3.71 L 272.86 -6.67 C 269.55 -4.39 267.5 -3.53 263.91 -3.53 C 258.15 -3.53 255.08 -7.81 255.08 -14.25 L 275.03 -14.25 C 275.48 -23.37 271.43 -28.79 263.34 -28.79 C 255.25 -28.79 249.94 -23.43 249.94 -14.31 C 249.94 -5.59 255.59 0.29 263.91 0.29 Z M 255.36 -17.67 C 256.33 -22.34 259.24 -25.02 263.34 -25.02 C 268.19 -25.02 270.29 -21.95 270.41 -17.67 Z M 300.5 -18.75 L 300.5 0 L 308.48 0 L 308.48 -2.85 L 305.63 -3.42 L 305.63 -18.75 C 305.63 -24.57 301.76 -28.79 296 -28.79 C 292.01 -28.79 288.76 -26.62 286.65 -24.4 L 286.08 -28.5 L 278.67 -28.5 L 278.67 -25.65 L 281.52 -25.08 L 281.52 -3.42 L 278.67 -2.85 L 278.67 0 L 289.5 0 L 289.5 -2.85 L 286.65 -3.42 L 286.65 -20.58 C 288.88 -22.74 291.1 -24.68 294.35 -24.68 C 298.28 -24.68 300.5 -22.46 300.5 -18.75 Z M 321.42 0.29 C 322.39 0.29 323.87 0.06 324.96 -0.29 L 324.67 -3.53 L 323.08 -3.53 C 318.57 -3.53 318.63 -6.04 318.63 -9.75 L 318.63 -25.08 L 324.9 -25.08 L 324.9 -28.5 L 318.63 -28.5 L 318.63 -36.48 L 314.64 -36.48 L 313.5 -28.5 L 310.65 -28.5 L 310.65 -25.65 L 313.5 -25.08 L 313.5 -8.72 C 313.5 -2.91 315.67 0.29 321.42 0.29 Z" stroke-linecap="round" />
</g>
</g>
</g>
</svg>