<?xml version="1.0" standalone="no"?>
<!DOCTYPE svg PUBLIC "-//W3C//DTD SVG 20010904//EN"
 "http://www.w3.org/TR/2001/REC-SVG-20010904/DTD/svg10.dtd">
<svg version="1.0" xmlns="http://www.w3.org/2000/svg"
 width="1313.000000pt" height="1313.000000pt" viewBox="0 0 1313.000000 1313.000000"
 preserveAspectRatio="xMidYMid meet">
<metadata>
Created by potrace 1.14, written by Peter Selinger 2001-2017
</metadata>
<g transform="translate(0.000000,1313.000000) scale(0.100000,-0.100000)"
fill="#000000" stroke="none">
<path d="M3990 13115 c0 -4 9 -25 19 -48 43 -96 65 -215 64 -357 -1 -166 -19
-256 -104 -517 -155 -476 -166 -584 -91 -883 16 -62 70 -178 117 -251 25 -39
106 -133 180 -208 74 -75 146 -152 160 -171 64 -85 107 -200 130 -345 20 -129
23 -152 30 -225 3 -36 8 -76 10 -90 2 -14 7 -65 10 -115 4 -49 8 -106 10 -125
22 -224 22 -820 1 -1000 -2 -14 -5 -45 -6 -70 l-2 -45 -10 45 c-29 136 -62
265 -74 288 -8 15 -14 33 -14 40 0 18 -76 169 -115 228 -47 70 -144 167 -209
209 -30 19 -87 48 -128 64 -72 28 -118 41 -368 100 -199 47 -306 86 -490 178
-69 35 -134 69 -145 75 -223 141 -334 227 -489 377 -235 227 -429 482 -600
784 -65 115 -140 265 -123 247 2 -3 42 -54 87 -115 342 -454 704 -816 1050
-1052 135 -91 388 -214 515 -250 264 -73 448 -78 573 -14 53 27 105 90 127
154 27 77 29 269 4 365 -26 102 -99 270 -165 382 -210 352 -507 613 -963 844
-237 120 -483 207 -796 282 -32 7 -236 43 -285 49 -25 3 -56 8 -70 10 -14 2
-63 7 -110 10 -47 4 -101 9 -120 10 -48 5 -391 6 -465 1 -33 -3 -94 -7 -135
-11 -41 -4 -88 -9 -105 -10 -43 -4 -112 -14 -174 -25 -30 -6 -57 -10 -59 -10
-2 0 47 -26 109 -58 163 -82 257 -150 390 -282 197 -196 323 -397 530 -850
172 -377 309 -601 464 -755 126 -126 145 -142 280 -234 159 -108 367 -204 520
-241 143 -34 204 -41 411 -45 287 -6 354 -17 483 -77 66 -32 100 -56 166 -121
137 -137 227 -293 310 -538 27 -81 65 -248 65 -285 0 -26 -8 -33 -225 -199
-82 -64 -157 -121 -165 -128 -9 -6 -54 -41 -100 -77 -47 -35 -87 -67 -90 -70
-3 -3 -41 -32 -85 -65 -44 -33 -89 -68 -100 -77 -17 -14 -121 -95 -385 -298
-167 -128 -506 -390 -515 -397 -5 -5 -30 -24 -55 -43 -25 -19 -52 -40 -60 -47
-8 -7 -130 -100 -270 -208 -140 -108 -268 -207 -285 -220 -16 -13 -96 -75
-177 -137 -732 -565 -772 -598 -729 -598 5 0 188 -88 407 -196 219 -107 427
-209 462 -226 42 -21 66 -27 75 -21 56 44 466 360 517 399 36 27 67 51 70 54
3 4 61 49 130 100 69 52 127 97 130 100 3 3 25 21 50 40 25 19 50 38 55 43 6
4 57 44 115 88 58 45 119 91 135 104 25 20 218 168 486 375 119 91 909 703
1240 959 75 58 149 116 165 128 16 12 38 29 49 38 11 8 58 44 105 80 47 36 99
76 115 90 17 13 190 147 385 297 195 151 437 338 538 416 l184 142 101 -78
c56 -42 104 -79 107 -82 3 -3 145 -113 315 -245 338 -260 398 -306 525 -405
47 -36 114 -89 150 -116 136 -105 204 -157 505 -390 171 -132 322 -248 336
-259 54 -40 814 -629 819 -635 3 -3 32 -25 65 -50 33 -25 94 -71 135 -104 41
-32 89 -69 105 -81 34 -26 251 -195 365 -283 41 -32 176 -136 300 -232 124
-95 257 -199 296 -229 237 -185 362 -281 367 -281 3 0 122 57 264 126 142 70
354 173 472 231 210 102 214 105 195 123 -15 15 -385 303 -564 440 -36 27
-488 376 -640 493 -52 41 -169 131 -260 201 -91 70 -172 133 -180 139 -29 24
-365 283 -449 348 -108 82 -281 216 -301 232 -8 7 -64 50 -125 97 -60 46 -117
90 -125 97 -8 6 -112 86 -230 178 -118 91 -235 181 -260 200 -25 19 -112 87
-195 151 -82 63 -159 123 -170 132 -11 10 -36 28 -55 42 -19 13 -37 27 -40 30
-3 3 -43 35 -90 70 -46 36 -148 115 -226 175 -77 61 -156 121 -174 135 -69 52
-587 453 -607 470 -11 9 -220 171 -508 393 -55 43 -107 83 -115 90 -64 52 -99
77 -109 77 -8 0 -194 -140 -431 -327 -30 -23 -100 -78 -155 -120 -340 -262
-552 -425 -565 -436 -8 -7 -33 -26 -55 -42 -22 -17 -45 -34 -51 -40 -24 -21
-50 -41 -84 -65 -70 -49 -67 -40 -74 -230 -6 -174 -8 -198 -26 -340 -11 -84
-18 -125 -25 -156 -3 -12 -7 -38 -11 -59 -10 -67 -82 -338 -109 -410 -24 -66
-25 -67 -20 -25 27 208 27 843 1 1000 -3 14 -7 57 -11 95 -3 39 -8 84 -10 100
-72 483 -143 781 -292 1225 -122 363 -135 389 -308 630 -116 161 -188 326
-209 480 -3 25 -9 59 -12 75 -17 87 -5 387 21 555 18 112 80 358 94 373 4 4 2
-40 -5 -99 -54 -439 -26 -824 78 -1072 72 -172 234 -365 355 -423 146 -70 241
-10 336 211 91 211 113 505 57 763 -98 454 -362 857 -764 1171 -122 95 -296
213 -296 201z"/>
<path d="M5218 6856 c-1 -1 -2 -369 -3 -818 l-2 -818 604 0 603 0 0 818 0 818
-600 0 c-330 0 -601 0 -602 0z"/>
<path d="M6702 6038 l0 -818 604 0 604 0 0 818 0 818 -604 0 -604 0 0 -818z"/>
<path d="M3470 5798 c-96 -55 -305 -174 -465 -265 -159 -91 -294 -169 -300
-174 -8 -8 -17 -3312 -8 -3330 2 -4 38 4 80 18 162 52 552 162 633 178 8 2 35
8 60 15 25 7 50 13 55 14 6 2 36 8 68 15 l57 12 0 1810 c0 995 -1 1809 -2
1808 -2 0 -82 -46 -178 -101z"/>
<path d="M9470 4085 c0 -1712 1 -1805 18 -1806 22 -1 25 -1 167 -37 279 -70
545 -144 663 -186 23 -8 42 -13 42 -10 0 2 13 -2 29 -10 22 -12 30 -13 33 -3
3 6 4 757 4 1667 l-1 1654 -305 174 c-562 321 -635 362 -643 362 -4 0 -7 -812
-7 -1805z"/>
<path d="M5221 4930 c-10 -7 -10 -1623 0 -1630 4 -3 274 -5 601 -5 l593 1 3
817 2 817 -32 1 c-224 3 -1162 3 -1167 -1z"/>
<path d="M6734 4932 l-32 -3 0 -814 c0 -595 3 -815 12 -817 6 -2 277 -3 601
-3 l590 1 0 818 0 818 -570 1 c-313 1 -584 1 -601 -1z"/>
<path d="M6267 2133 c-1 -1 -87 -4 -192 -8 -104 -3 -217 -8 -250 -10 -33 -2
-100 -7 -150 -10 -49 -3 -110 -8 -135 -10 -25 -2 -82 -7 -127 -10 -46 -3 -91
-8 -100 -9 -10 -2 -58 -7 -106 -11 -48 -3 -97 -8 -107 -10 -17 -3 -79 -11
-167 -20 -39 -5 -110 -14 -143 -20 -14 -2 -47 -7 -75 -10 -46 -6 -267 -40
-325 -50 -14 -3 -52 -10 -85 -16 -33 -6 -114 -21 -180 -34 -66 -13 -131 -26
-145 -29 -111 -20 -436 -98 -630 -149 -389 -104 -848 -262 -1230 -424 -175
-75 -558 -260 -680 -329 -216 -122 -408 -243 -606 -381 -71 -50 -215 -164
-319 -252 -109 -93 -337 -313 -331 -319 2 -2 51 17 108 42 268 117 709 278
1028 376 58 17 112 34 120 37 8 4 20 7 25 8 6 2 89 26 185 53 281 81 786 206
990 245 14 2 84 16 155 31 132 26 259 52 305 60 14 2 68 11 120 20 52 9 120
21 150 26 30 5 73 12 95 15 22 3 63 10 90 15 28 5 73 12 100 15 28 3 61 8 75
10 14 2 61 9 105 15 44 6 91 13 105 15 24 4 106 14 160 20 14 1 48 5 75 9 111
13 142 17 190 21 28 3 70 7 95 10 155 17 289 29 425 40 39 3 93 7 120 10 28 3
93 7 145 10 52 3 129 7 170 10 485 31 1305 45 1775 31 233 -8 471 -17 530 -21
33 -2 112 -7 175 -10 63 -3 138 -7 165 -10 28 -2 93 -7 145 -10 52 -4 115 -8
140 -11 25 -2 72 -6 105 -9 33 -3 83 -7 110 -10 49 -5 65 -7 210 -20 39 -3 81
-8 95 -10 14 -2 50 -6 80 -10 30 -3 71 -8 90 -10 19 -3 58 -7 85 -10 28 -3 61
-8 75 -10 32 -5 127 -17 160 -20 14 -1 45 -5 70 -9 25 -4 56 -9 70 -11 14 -2
68 -11 120 -19 107 -17 153 -24 208 -32 43 -6 136 -22 172 -29 14 -3 54 -10
89 -15 35 -6 108 -20 162 -30 55 -11 114 -22 132 -25 39 -7 207 -42 262 -55
99 -22 182 -41 200 -44 52 -10 529 -131 656 -166 476 -134 959 -300 1363 -469
93 -39 171 -69 173 -67 6 6 -255 253 -369 348 -176 146 -429 329 -603 435 -51
31 -272 161 -290 170 -11 6 -38 20 -60 32 -323 176 -810 387 -1205 521 -52 17
-104 36 -115 40 -71 30 -637 192 -745 214 -14 3 -83 19 -155 36 -71 17 -139
32 -150 35 -91 19 -186 38 -275 55 -58 11 -112 22 -120 25 -8 2 -35 7 -60 10
-25 3 -81 12 -125 20 -44 8 -100 17 -125 20 -25 3 -74 11 -110 16 -36 6 -81
12 -100 15 -41 5 -104 14 -140 19 -14 2 -54 7 -90 10 -36 4 -72 8 -80 10 -8 2
-53 6 -100 10 -47 4 -93 9 -103 11 -10 1 -57 6 -105 9 -48 4 -103 8 -122 10
-19 2 -84 6 -145 10 -60 4 -132 8 -160 10 -177 12 -1010 27 -1018 18z"/>
</g>
</svg>
