<svg xmlns="http://www.w3.org/2000/svg" xmlns:xlink="http://www.w3.org/1999/xlink" id="eASigOEsv381"
  viewBox="50 230 435 250" shape-rendering="geometricPrecision" text-rendering="geometricPrecision">
  <!-- <defs>
    <linearGradient id="lightGradient">
      <stop offset="0%" stop-color="none">
        <animate attributeName="stop-color" values="black; red" dur="3s" fill="freeze" />
      </stop>
      <stop offset="100%" stop-color="black">
        <animate attributeName="stop-color" values="black; red" dur="3s" fill="freeze" begin="3s" />
      </stop>
      <stop offset="100%" stop-color="black">
        <animate attributeName="stop-color" values="black; red" dur="3s" fill="freeze" begin="3s" />
      </stop>
    </linearGradient>
  </defs> -->
  <g transform="translate(.000001 0.000001)">
    <g transform="translate(.000002-.000027)">
      <path d="M0,0h485.57v491.95h-485.57L0,0Z" transform="matrix(.912287 0 0 0.551468 44 220.655348)" fill='none'
        class="loaderSvgBackground" />
    </g>
  </g>
  <g transform="matrix(1.1001 0 0 1.1001 265.474 358.503)" class="loaderPathContainer">
    <g>
      <g transform="matrix(.1333 0 0-.1333-.7164-119.983)">
        <path d="M2,1805c6-7,2980-7,2986,0c3,3-669,5-1493,5s-1496-2-1493-5Z" transform="translate(-1495-1804.88)" />
      </g>
      <g transform="matrix(.1333 0 0-.1333 24.1386 0.1616)">
        <path
          d="M2240,1636c0-82,5-156,10-167c25-46,48-49,405-49h335v-83-83l-94-38c-80-33-93-41-81-52c7-8,30-14,49-14h36l1-72c1-40,3-80,4-88s3-20,4-26c0-7,8-11,17-10c9,0,19-4,21-10c2-7-5-10-20-7-22,4-142-24-206-48l-24-9l23-20c13-11,35-20,49-19c23,1,22,2-9,11s-33,11-15,18c11,5,46,12,77,15c32,4,55,11,52,16s2,6,10,3c19-7,21-32,4-31-40,1-120-6-107-10c10-2,16-14,16-26s3-44,7-72l7-50h-92c-65,0-94,4-96,13-3,7,1,10,10,6c8-3,21,2,30,10c9,9,27,16,41,16s25,3,25,8c-3,20,2,24,14,8c8-11,19-15,30-10c16,6,17,8,2,24-17,19-50,16-73-7-17-16-32-8-32,18c0,10-5,19-11,19-5,0-8-4-4-9c8-13-10-22-29-15-24,9-20,59,7,78l22,17-24-7c-17-4-22-2-19,7c3,8,17,16,32,19l27,5-30,18c-18,10-31,26-31,38c0,25,5,24,44-6c26-20,32-31,30-53-2-15-1-20,2-12c4,8,11,20,16,27c6,7-5,21-36,43-39,28-51,46-87,133-29,68-39,102-31,105c7,2,12,10,12,18c0,28-17,13-35-30-10-25-22-43-27-40-13,8-9,34,6,34c26,0,23,35-12,118l-35,82h-208-208l-7,35-6,35h-104-104v33c0,78,4,76-154,79-140,3-141,3-139,26c2,14-3,22-12,22-10,0-12-6-8-17c7-18,6-18-102,63l-35,26-78-58-77-59-109-5-110-5-30-95-31-95h-175-175L475,1148c-61-125-111-236-113-246-2-15,3-17,30-14l33,4-3-51c-3-32,0-51,7-51c6,0,11-13,11-30c0-20,4-28,13-24c9,3,13,26,12,75v70l212-3c165-2,213,0,213,10c0,9-58,12-257,12-170,0-253,4-243,10c9,6,111,10,238,10c124,0,222,4,222,9s245,9,577,10l577,1l55,42c31,23,107,82,169,130c67,52,118,86,125,82s47-34,90-67c52-41,77-66,77-81c1-16,4-14,15,12c16,37,38,43,33,8-1-13,6-33,16-45c19-21,19-21-10-21-16,0-38-7-48-15-11-8-14-15-7-15s9-5,5-11c-4-7-11-6-21,4-18,17-8,41,13,33c8-3,14-1,14,4c0,6,6,10,13,10s12,14,13,32l1,31-14-26c-8-15-22-27-33-27s-20-5-20-12c0-6-7-3-15,8-12,16-16,17-24,5s-12-12-25-2c-18,15-21,41-5,41c6,0,9-7,5-15-3-8-1-15,4-15c6,0,10,5,10,10c0,15,34,8,40-8c5-11,9-11,20,3c7,9,8,15,3,13-6-2-44,21-83,50-39,30-77,51-83,48-7-2-79-57-161-121-113-88-151-113-161-105-9,7-15,7-19,1-8-12,0-17,42-26c28-6,32-4,32,13c0,11,7,23,16,26s86,7,172,7c96,1,143,5,122,9l-35,7l40,3c94,7,100,6,103-17c2-12,10-27,18-33c17-15,18-6,4,21-6,11-7,19-3,18s16,1,26,6c26,11,31,0,10-21-17-17-17-18,1-11c12,5,23,3,28-5c12-20,9-32-6-19-14,12-46,5-46-10c0-6-8-5-19,1-21,11-37-2-27-19c4-5,0-11-6-14-10-3-10-7-1-19c7-8,9-19,5-23-4-5-2-5,5-2c6,4,14,1,17-5c3-7,4-1,1,15-4,20-1,29,12,34c10,4,22,13,26,20c5,7,12,11,17,8c11-7-21-44-32-38-12,6-9-10,5-28c7-9,20-15,30-13c9,1,15-2,11-7-3-5-11-6-17-3-7,4-2-3,11-15c18-18,26-20,37-11c8,6,24,10,37,8c23-4,22-5-4-16-19-8-28-19-29-34c0-13-3-17-6-10-2,6-10,9-16,5-23-14-96-13-111,2-13,13-15,13-19-3-4-13-5-11-6,6c0,12,4,22,11,22c6,0,3,6-7,14-11,8-23,12-27,10-7-5-12,10-9,28c0,4-7,4-17,1-15-6-15-5-3,10s11,17-13,17c-15,0-25-4-22-9c4-5,3-11-1-14-5-2-3-2,4-1c17,4,34-21,27-39-3-8-1-18,5-22c6-3,11-1,11,4c0,23,25,10,26-13c2-23-1-24-45-20-25,3-52,6-58,6-7,1-13,5-13,8c0,4-15,6-32,3-84-11-210-17-215-10-2,4-4,38-3,75c2,98-3,100-9,3l-6-84-52-1-53-2v58v58h-60-60v-57-58h-61-60l3,77c2,44-1,74-6,70-5-3-84-4-175-3-216,2-281-5-281-29s57-25,63-1c4,13,5,13,6-1c0-10,9-18,19-17c10,0,12,3,5,6-24,9-13,23,17,23c19,0,30-5,30-14s11-13,30-12c21,0,29,5,25,14-3,7-1,11,4,7c5-3,12,1,14,7c3,7,6,3,6-9c1-30,51-34,51-4c0,24,32,23,42-1c10-25,26-22,31,5l4,22l2-22c0-13,6-23,11-23c6,0,10,10,10,23c0,16,3,18,9,8c6-9,11-10,15-2c11,18,26,13,26-9c0-25,17-26,23-2c3,10,5,6,6-10c1-28,1-28-71-30l-73-2l70-5c68-6,70-7,70-33l1-28-136-1c-74-1-222-2-327-3l-193-1l2,48c2,29,7,47,14,47s15,8,17,18c4,16,5,16,6,0c1-23,21-24,21-1c0,15,2,14,16-3c13-16,15-16,10-2-3,10-1,18,4,18c6,0,10-7,10-15s6-15,14-15s16,7,20,15c7,19,36,19,36,0c0-8,7-15,15-15c21,0,19,40-2,41-10,1-50,1-89-1-40-1-80,3-91,8-17,10-18,6-18-66v-76l-70,1-70,1l1,69v68h-192c-106,0-191-2-189-5s5-35,6-70l3-65-65-2c-82-2-81-2-75-11c8-13,123-15,145-2c18,9,20,19,17,78-2,37-1,59,1,50c2-10,11-18,18-18s16,8,18,18c4,16,5,16,6,0c0-10,5-18,10-18s12,8,14,18c4,16,5,16,6,0c1-21,17-24,24-5c4,10,6,10,6,0c1-17,31-17,31,0c0,9,12,14,30,15c20,0,30-4,30-14c0-18,56-19,63-1c4,10,6,10,6,0c1-19,19-16,24,5c4,16,5,16,6,0c1-23,28-23,34,0c3,10,5,6,6-10c1-20-4-28-16-29-15,0-15-2-3-7c8-4,16-19,18-34l3-28-78-1c-43-1-115-1-160-1-47,1-83-3-83-8c0-6,1-10,3-11c1,0,285-3,631-6c648-5,676-3,676,34c0,7,8,13,18,14c9,0,25,2,34,4c11,2,15-2,11-11-12-31,27-41,157-43c88-1,138,3,161,13c19,7,43,11,54,9c66-15,127-19,226-14c61,3,113,3,116-1c7-13,168-9,181,4c8,8,15,8,26-1c22-18,114-8,131,15c12,16,14-30,15-331c0-192,3-351,6-354c2-3,3,155,2,349-3,349-3,355-23,352-11-2-22-7-25-10-3-4-27-7-55-7h-50l1,61c2,67,7,84,30,84c20,0,18-47-3-59-17-10-17-10,0-11c23,0,77,28,77,40c0,5,8,7,18,3c15-6,15-4-2,15-11,12-24,22-30,21-6,0-6-3,2-6c16-6,15-18-4-37-22-23-32-20-30,9c0,14,4,25,7,25c4,0,9,9,12,21s10,18,16,14c6-3,11,1,11,9c0,10-6,13-15,10-8-4-15-1-15,5c0,20,29,12,41-11c7-13,12-24,11-25-6-10,0-33,7-29c5,4,8-5,6-19-1-14,2-25,6-25c5,0,9,14,9,30c0,17-4,30-9,30s-11,10-15,23c-4,15,0,27,14,39c19,15,20,26,17,100l-3,83-2-82c-2-70-5-83-19-83-26,0-54,30-45,49c10,19,9,32-1,48-4,6-2,15,4,19c7,4,9,3,6-3-3-5,0-10,8-10c19,0,19,2-1,21-20,20-12,32,26,39c16,4,30,11,30,17s-4,9-9,6c-10-6-8,51,3,61c20,20-2,18-66-8-40-15-79-28-86-29-29,0,1,17,77,45l81,29-2,276c-2,206-3,231-5,100l-3-175-338,5c-356,5-376,8-387,53-3,12-7,79-8,149-2,70-6,131-10,134-4,4-7-59-7-140Zm-824,6c151-109,235-161,251-156c13,4,14,3,5-4-10-7,16-31,101-92l115-82-19-35c-11-20-18-37-15-40c2-3,9,5,16,16c6,12,15,19,21,16c5-4,8-1,7,7-2,7,2,12,8,11c20-4,3,36-24,58-19,14-27,30-27,54-1,19,2,32,7,29c4-3,8-1,8,4c0,4,29,8,65,8c43,1,65-3,65-11c0-14,69-85,84-85c5,0,2,6-7,13-15,11-14,12,13,13c16,1,27-2,25-7-3-4-1-10,4-13s12,1,15,10c4,9,11,12,18,7c16-10,69-13,64-4-3,4,11,5,30,3c22-3,31-8,27-16-4-6,1-5,10,3c10,8,20,11,24,8c3-4,13-1,21,6c13,10,14,9,7-3-6-12-5-13,5-3c11,10,17,10,29,0c12-9,13-9,7,1-5,9,3,12,31,11c21,0,32-3,26-6-20-7-15-20,9-26c12-4,19-9,15-13s0-16,10-26c12-13,13-18,3-18s-9-4,3-13c10-6,20-24,22-39c4-23,1-27-26-33-22-5-34-3-40,6-6,10-9,11-9,2c0-7-9-13-21-13-11,0-17,5-14,10c3,6-4,10-17,10-19,0-20,2-8,10s9,10-12,7c-15-1-31-7-35-12-5-4-2-5,6,0c10,6,12,4,7-4-5-7-15-10-23-7s-11,1-8-4c3-6-2-13-11-17-17-6-26-13-76-55-12-10-27-18-35-18s-11-5-7-11c5-8-1-10-19-5-15,3-29,1-33-6-4-6-3-8,2-5c6,3,16,2,24-4c11-6,8-9-14-9-24,0-27-2-16-15s7-15-29-12c-22,2-41,0-41-5c0-4,10-8,23-9c20-1,19-2-6-11-15-5-25-14-21-19c3-5-1-9-8-9-8,0-19-5-26-12-19-19-64-25-110-13-23,6-23,6-5,23c10,9,14,14,9,10-16-12-29-9-23,5c3,8,1,20-4,28-6,9-9-2-9-33c0-49-11-61-29-30-6,9-11,11-11,5c0-8-12-13-27-12-25,0-26,1-8,9c15,7,11,8-20,8-26,0-33-3-20-7c30-9-158-16-343-13-100,2-160,7-157,12c4,6,1,10-4,10-6,0-11-5-11-11c0-7-10-9-26-5-14,4-23,3-21-2c3-4-4-9-16-9-17-2-19,0-7,7c13,8,12,10-2,10-10,0-18-4-18-10c0-5-8-10-17-10-15,0-16,2-3,10c10,6-13,9-72,8-48,0-86-3-84-7c2-3-14-7-35-9-22-1-39,2-39,8c0,5-12,10-27,9l-28-1l25-8c29-9,0-11-210-12-85,0-140-4-149-12-10-7-13-7-8,0c4,7-9,11-38,12-29,2-45-2-45-10c0-6-3-9-6-5-3,3,1,18,9,34c8,15,20,41,26,56c9,22,15,26,28,19c10-5,29-5,43-1l25,9-27-4c-30-3-61,12-41,20c7,3,9,13,6,21-5,13-2,15,12,10c9-4,24-2,31,4c11,9,14,8,14-1c0-8,3-11,6-7c3,3,3,11-1,17-5,8-11,8-21-1-11-9-18-9-26-1-9,9-9,12,0,12c7,0,12,9,12,20c0,12,10,24,23,30c12,5,16,9,8,9-10,1-11,4-2,15c7,8,13,22,15,33c2,10,17,41,33,68l29,50l132,2c113,3,131,1,126-12-4-8-11-12-17-8s-7,1-3-6c5-7,0-18-10-26-18-14-18-14,0-15c12,0,16-5,12-15-3-8-2-14,2-14c4,1,16,1,27-1c20-1,20-1,0-10-18-8-17-9,7-9c27-1,27-2,25-66-1-37,2-67,8-69c5-3,2-5-8-5-10-1-16-5-12-10c3-5-5-12-17-14-21-5-21-5,2-5c40,1,93-14,80-22-7-4,30-8,81-9s96-4,101-7c4-3,8,1,8,8c0,8,3,9,8,3c4-6,21-12,37-13l30-1-30,14-30,14l30-4c78-11,193-17,337-19c119-1,158-4,158-13c0-7,5-13,10-13c6,0,9,6,8,12-2,9,14,13,54,13c31,0,56,4,55,9s9,13,23,17s18,7,9,8c-11,1-16,12-17,36s2,34,10,29c7-5,8-3,2,7-14,22-14,100,1,128c12,25,11,27-45,67-51,37-61,41-91,34l-34-8l44-1c24-1,42-4,38-7-3-4-90-8-192-9l-187-3-38-31c-33-26-40-28-51-15-10,12-9,17,6,28c15,10-7,12-132,10-83-1-157,2-164,7-16,10-11,11,46,11h40l-35,6c-71,14-6,27,155,31c145,3,158,2,146-13-7-9-25-16-40-16-22-1-23-2-9-10c13-8,42,9,142,87c69,53,124,99,121,102-3,2-10,0-16-6-9-9-35,6-98,54-47,36-85,69-83,75c1,5-2,7-8,3-6-3-8-10-5-15s-10-21-30-35c-19-15-32-32-28-38c3-6,1-7-5-3-15,9-404-283-395-297c5-8,8-7,11,1c2,7,8,12,14,12s6-6-2-15c-7-8-9-15-5-15c5,0,6-2,3-6-7-6-58,40-57,52c0,8,129,104,433,324c38,28,72,50,76,50s25-13,46-28Zm2-129l3-73h-51-50v69c0,76,4,81,65,78l30-2l3-72Zm-319-2c-13-10-37-31-54-45-29-25-65-35-65-18c0,4,7,18,16,30c8,12,13,26,10,31-10,16,19,28,62,25c29-1,40,1,36,9-5,8-2,8,6,0c11-10,9-16-11-32Zm401-7c0-3-7-13-16-21-13-13-17-14-24-3-6,10-9,7-13-11-2-13-5,0-6,29l-1,53l30-21c17-12,30-24,30-26Zm281,39c-10-4-10-7-2-13c7-4,13-18,13-31c1-13,9-33,18-44c16-19,35-85,25-85-3,0-13,8-23,18-10,9-27,23-38,30-10,7-13,10-5,6c9-5,12-3,7,4-4,7-14,12-22,12-9,0-12,5-8,12c4,6,3,8-4,4-5-3-23,5-39,18-15,13-43,31-61,40-19,10-32,20-29,23c3,2,14,0,26-6c14-8,22-8,27,1c4,6,3,8-4,4-6-3-13-2-17,4s21,10,72,9c43,0,72-3,64-6Zm-485-25c-3-13-6-44-6-70v-47h-85c-47,0-85,4-85,8c0,11,160,131,173,131c5,0,7-10,3-22Zm51-98c13,0,23-6,23-13c0-9-11-12-35-9-28,3-35,9-35,25s3,18,12,9c7-7,22-12,35-12Zm-75-135c-3-28-1-30,29-30c33,0,33-1,35-47l1-48h-33c-19,0-34-4-34-8s16-6,35-4c21,3,35,0,35-7c0-6-17-12-37-13l-38-1l38-4c37-4,49-17,25-26-8-3-6-6,4-6c15-1,18,12,20,102l3,102l25-3c17-1,21,1,12,7-11,7-11,9,1,14c28,10,376,8,397-3c18-10,20-21,20-135v-125h-230c-126,0-230,3-230,8c0,4-87,7-193,6-105,0-199,1-207,3-12,3-14,22-12,111c2,59,8,112,14,119c10,12,84,18,238,18h85l-3-30Zm1208-120c0-19-29-19-54,0-19,14-18,15,17,15c26,0,37-4,37-15Zm58-10c1-19-3-25-17-25-11,0-21-5-23-12-3-7-9-8-18-3-10,6-8,10,9,17c13,4,25,17,28,28c7,28,18,25,21-5Zm439,9c2-5-2-18-9-27-12-15-13-14-13,13c0,28,14,37,22,14Zm-35-20c-6-32-17-35-17-3c0,16,5,27,10,25c6-1,8-12,7-22Zm-566-32c6-4,13-24,16-44l4-38h-57c-49,0-57,2-54,18c2,9,4,25,4,34c1,13,9,16,34,14c17-2,22-1,10,1-13,2-23,9-23,14c0,11,50,12,66,1Zm170-14c-6-10-17-18-25-18-11,0-11,3,0,17c10,11,10,14,2,9-7-4-13-2-13,3c0,6,11,10,24,9c20-2,22-5,12-20Zm-276-58c0-11-4-20-10-20-5,0-10,9-10,20s5,20,10,20c6,0,10-9,10-20Zm-1173,4c-3-3-12-4-19-1-8,3-5,6,6,6c11,1,17-2,13-5Zm1143-14c0-5-8-10-17-10-15,0-16,2-3,10c19,12,20,12,20,0Zm227-34c0-20-107-37-252-40-66-2-104,0-85,4s26,8,15,9c-15,1-16,4-7,14c9,8,63,14,165,18c84,3,155,6,158,7s6-4,6-12Zm93-16c0-5-4-10-10-10-5,0-10,5-10,10c0,6,5,10,10,10c6,0,10-4,10-10Zm44-47c6-18,3-23-10-23-10,0-14,3-11,7c4,3,2,12-4,19-6,8-8,22-4,31c5,15,8,16,14,3c5-8,12-25,15-37Zm-10-60c-4-10-8-25-8-33-1-8-11-16-24-16-25-1-30,14-7,22c8,4,15,10,15,15c0,12,23,39,29,33c2-2,0-11-5-21Zm6-73c0-11-7-20-15-20-13,0-14,4-5,20c6,11,13,20,15,20c3,0,5-9,5-20Zm-688-15c5-23,2-25-33-25-47,0-53,19-6,22l32,1-32,4c-43,6-42,23,1,23c28,0,34-4,38-25Z"
          transform="translate(-1681.37-903.569)" />
      </g>
      <g transform="matrix(.1333 0 0-.1333 8.7608-68.0524)">
        <path
          d="M1487,1417c-48-38-86-71-85-73c2-1,19,1,38,6c20,4,26,9,15,9-19,2-19,2-2,12c20,12,233,13,265,2c15-5,15-4,2,9-8,8-44,35-80,60l-65,45-88-70Zm128,13c14-15,15-20,4-21-8,0-31-2-51-4-42-3-45,0-21,27c21,24,45,23,68-2Z"
          transform="translate(-1565.75-1415.38)" />
      </g>
      <g transform="matrix(.1333 0 0-.1333 4.0228-59.9001)">
        <path d="M1508,1353c12-2,32-2,45,0c12,2,2,4-23,4s-35-2-22-4Z" transform="translate(-1530.18-1354.25)" />
      </g>
      <g transform="matrix(.1333 0 0-.1333 16.8682-59.9174)">
        <path d="M1608,1353c12-2,30-2,40,0c9,3-1,5-23,4-22,0-30-2-17-4Z" transform="translate(-1626.52-1354.38)" />
      </g>
      <g transform="matrix(.1333 0 0-.1333-47.9772-58.5668)">
        <path d="M1118,1343c12-2,32-2,45,0c12,2,2,4-23,4s-35-2-22-4Z" transform="translate(-1140.18-1344.25)" />
      </g>
      <g transform="matrix(.1333 0 0-.1333-35.1318-58.5841)">
        <path d="M1218,1343c12-2,30-2,40,0c9,3-1,5-23,4-22,0-30-2-17-4Z" transform="translate(-1236.52-1344.38)" />
      </g>
      <g transform="matrix(.1333 0 0-.1333 63.3329-56.0004)">
        <path d="M1966,1331c-4-5-2-12,3-15c5-4,12-2,15,3c4,5,2,12-3,15-5,4-12,2-15-3Z"
          transform="translate(-1975-1325)" />
      </g>
      <g transform="matrix(.1333 0 0-.1333-118-55.5336)">
        <path d="M606,1322c-3-5,1-9,9-9s12,4,9,9c-3,4-7,8-9,8s-6-4-9-8Z" transform="translate(-615-1321.5)" />
      </g>
      <g transform="matrix(.1333 0 0-.1333 75.4478-54.6924)">
        <path d="M2058,1313c7-3,16-2,19,1c4,3-2,6-13,5-11,0-14-3-6-6Z" transform="translate(-2065.86-1315.19)" />
      </g>
      <g transform="matrix(.1333 0 0-.1333 106.115-54.6924)">
        <path d="M2288,1313c7-3,16-2,19,1c4,3-2,6-13,5-11,0-14-3-6-6Z" transform="translate(-2295.86-1315.19)" />
      </g>
      <g transform="matrix(.1333 0 0-.1333-103.668-50.659)">
        <path d="M707,1286c-4-10,1-12,14-9c23,6,24,9,5,16-8,3-17,0-19-7Z" transform="translate(-722.493-1284.94)" />
      </g>
      <g transform="matrix(.1333 0 0-.1333 91.6541-51.0722)">
        <path d="M2146,1291c-3-4,16-7,41-8c25-2,44-1,42,2-8,7-79,13-83,6Z" transform="translate(-2187.42-1288.04)" />
      </g>
      <g transform="matrix(.1333 0 0-.1333-97.8855-50.6924)">
        <path d="M758,1283c7-3,16-2,19,1c4,3-2,6-13,5-11,0-14-3-6-6Z" transform="translate(-765.862-1285.19)" />
      </g>
      <g transform="matrix(.1333 0 0-.1333 113.356-50.6334)">
        <path d="M2338,1283c6-2,18-2,25,0c6,3,1,5-13,5s-19-2-12-5Z" transform="translate(-2350.18-1284.75)" />
      </g>
      <g transform="matrix(.1333 0 0-.1333-113.885-46.6924)">
        <path d="M638,1253c7-3,16-2,19,1c4,3-2,6-13,5-11,0-14-3-6-6Z" transform="translate(-645.862-1255.19)" />
      </g>
      <g transform="matrix(.1333 0 0-.1333 99.0329-46.4932)">
        <path d="M2216,1252c-3-5,8-6,25-4c16,2,29,6,29,8c0,8-49,4-54-4Z" transform="translate(-2242.75-1253.7)" />
      </g>
      <g transform="matrix(.1333 0 0-.1333 70.2526-43.6244)">
        <path d="M2015,1230c-3-6,1-7,9-4c18,7,21,14,7,14-6,0-13-4-16-10Z" transform="translate(-2026.9-1232.18)" />
      </g>
      <g transform="matrix(.1333 0 0-.1333 87.509-42.7501)">
        <path d="M2145,1231c-6-11,13-26,22-17c4,3,1,6-6,6s-9,5-6,10c3,6,4,10,1,10s-7-4-11-9Z"
          transform="translate(-2156.32-1225.62)" />
      </g>
      <g transform="matrix(.1333 0 0-.1333 125.974-41.4487)">
        <path d="M2441,1214c0-11,3-14,6-6c3,7,2,16-1,19-3,4-6-2-5-13Z" transform="translate(-2444.81-1215.86)" />
      </g>
      <g transform="matrix(.1333 0 0-.1333-98.0004-40.867)">
        <path d="M756,1212c-3-5,1-9,9-9s12,4,9,9c-3,4-7,8-9,8s-6-4-9-8Z" transform="translate(-765-1211.5)" />
      </g>
      <g transform="matrix(.1333 0 0-.1333-119.021-39.5289)">
        <path d="M590,1205c0-7,30-13,34-7c3,4-4,9-15,9-10,1-19,0-19-2Z" transform="translate(-607.348-1201.47)" />
      </g>
      <g transform="matrix(.1333 0 0-.1333-113.334-36.9064)">
        <path d="M640,1179c0-5,5-7,10-4c6,3,10,8,10,11c0,2-4,4-10,4-5,0-10-5-10-11Z"
          transform="translate(-650-1181.8)" />
      </g>
      <g transform="matrix(.1333 0 0-.1333-104.373-31.9832)">
        <path d="M707,1145c3-8,9-12,14-9c12,7,11,11-5,17-10,4-13,1-9-8Z" transform="translate(-717.203-1144.87)" />
      </g>
      <g transform="matrix(.1333 0 0-.1333-93.997-25.3203)">
        <path d="M780,1106c0-2,8-10,18-17c15-13,16-12,3,4s-21,21-21,13Z" transform="translate(-795.027-1094.9)" />
      </g>
      <g transform="matrix(.1333 0 0-.1333 69.5724-24.667)">
        <path d="M2015,1090c-3-5-1-10,4-10c6,0,11,5,11,10c0,6-2,10-4,10-3,0-8-4-11-10Z"
          transform="translate(-2021.8-1090)" />
      </g>
      <g transform="matrix(.1333 0 0-.1333-101.062-22.3066)">
        <path d="M724,1083c4-6-2-13-11-15-13-3-11-5,8-9c14-3,34-2,45,3c18,8,18,8-1,5-11-1-26,4-33,13-8,8-11,10-8,3Z"
          transform="translate(-742.042-1072.3)" />
      </g>
      <g transform="matrix(.1333 0 0-.1333-118.644-21.3001)">
        <path d="M598,1063c6-2,18-2,25,0c6,3,1,5-13,5s-19-2-12-5Z" transform="translate(-610.178-1064.75)" />
      </g>
      <g transform="matrix(.1333 0 0-.1333-111.977-21.3001)">
        <path d="M648,1063c6-2,18-2,25,0c6,3,1,5-13,5s-19-2-12-5Z" transform="translate(-660.178-1064.75)" />
      </g>
      <g transform="matrix(.1333 0 0-.1333 52.7811-20.0258)">
        <path d="M1888,1053c7-3,16-2,19,1c4,3-2,6-13,5-11,0-14-3-6-6Z" transform="translate(-1895.86-1055.19)" />
      </g>
      <g transform="matrix(.1333 0 0-.1333 60.7248-18.4612)">
        <path d="M1944,1045c1-8,4-16,7-17c2-2,3-1,2,1-2,2,2,10,8,18c9,10,8,13-4,13-8,0-14-7-13-15Z"
          transform="translate(-1955.44-1043.45)" />
      </g>
      <g transform="matrix(.1333 0 0-.1333-123.531-17.9039)">
        <path d="M567,1039c7-7,15-10,18-7s-2,9-12,12c-14,6-15,5-6-5Z" transform="translate(-573.519-1039.28)" />
      </g>
      <g transform="matrix(.1333 0 0-.1333-91.0368-18.0211)">
        <path d="M806,1038c3-5,10-6,15-3c13,9,11,12-6,12-8,0-12-4-9-9Z" transform="translate(-817.227-1040.16)" />
      </g>
      <g transform="matrix(.1333 0 0-.1333-116.552-17.3591)">
        <path d="M618,1033c7-3,16-2,19,1c4,3-2,6-13,5-11,0-14-3-6-6Z" transform="translate(-625.862-1035.19)" />
      </g>
      <g transform="matrix(.1333 0 0-.1333-139.334-15.5336)">
        <path d="M446,1022c-3-5,1-9,9-9s12,4,9,9c-3,4-7,8-9,8s-6-4-9-8Z" transform="translate(-455-1021.5)" />
      </g>
      <g transform="matrix(.1333 0 0-.1333-133.885-14.6924)">
        <path d="M488,1013c7-3,16-2,19,1c4,3-2,6-13,5-11,0-14-3-6-6Z" transform="translate(-495.862-1015.19)" />
      </g>
      <g transform="matrix(.1333 0 0-.1333-127.977-14.6334)">
        <path d="M528,1013c6-2,18-2,25,0c6,3,1,5-13,5s-19-2-12-5Z" transform="translate(-540.178-1014.75)" />
      </g>
      <g transform="matrix(.1333 0 0-.1333-109.998-13.3203)">
        <path d="M669,1003c-13-16-12-17,4-4c9,7,17,15,17,17c0,8-8,3-21-13Z" transform="translate(-675.022-1004.9)" />
      </g>
      <g transform="matrix(.1333 0 0-.1333-85.3337-14.2397)">
        <path d="M850,1009c0-5,5-7,10-4c6,3,10,8,10,11c0,2-4,4-10,4-5,0-10-5-10-11Z"
          transform="translate(-860-1011.8)" />
      </g>
      <g transform="matrix(.1333 0 0-.1333 38.0626-13.9337)">
        <path d="M1780,1010c-13-8-12-10,3-10c9,0,17,5,17,10c0,12-1,12-20,0Z" transform="translate(-1785.47-1009.5)" />
      </g>
      <g transform="matrix(.1333 0 0-.1333-79.2189-13.3591)">
        <path d="M898,1003c7-3,16-2,19,1c4,3-2,6-13,5-11,0-14-3-6-6Z" transform="translate(-905.862-1005.19)" />
      </g>
      <g transform="matrix(.1333 0 0-.1333-65.3101-13.3001)">
        <path d="M998,1003c6-2,18-2,25,0c6,3,1,5-13,5s-19-2-12-5Z" transform="translate(-1010.18-1004.75)" />
      </g>
      <g transform="matrix(.1333 0 0-.1333-57.0943-12.6671)">
        <path d="M1065,1000c3-5,8-10,11-10c2,0,4,5,4,10c0,6-5,10-11,10-5,0-7-4-4-10Z"
          transform="translate(-1071.8-1000)" />
      </g>
      <g transform="matrix(.1333 0 0-.1333 16.2265-12.9596)">
        <path d="M1600,1005c0-8,29-12,39-5c9,5,4,8-13,8-14,0-26-2-26-3Z" transform="translate(-1621.7-1002.2)" />
      </g>
      <g transform="matrix(.1333 0 0-.1333-136.134-9.8003)">
        <path d="M464,978c-3-4,2-8,10-8s17,4,20,8c3,5-2,9-10,9s-17-4-20-9Z" transform="translate(-479-978.5)" />
      </g>
      <g transform="matrix(.1333 0 0-.1333-117.334-10.2397)">
        <path d="M610,979c0-5,5-7,10-4c6,3,10,8,10,11c0,2-4,4-10,4-5,0-10-5-10-11Z"
          transform="translate(-620-981.795)" />
      </g>
      <g transform="matrix(.1333 0 0-.1333-100.021-9.6307)">
        <path d="M743,975c0-8,4-12,9-9s6,10,3,15c-9,13-12,11-12-6Z" transform="translate(-749.844-977.227)" />
      </g>
      <g transform="matrix(.1333 0 0-.1333-15.5312-9.9039)">
        <path d="M1377,979c7-7,15-10,18-7s-2,9-12,12c-14,6-15,5-6-5Z" transform="translate(-1383.52-979.277)" />
      </g>
      <g transform="matrix(.1333 0 0-.1333-113.009-8.5404)">
        <path d="M636,972c-3-4,4-9,15-9c23-2,25,3,4,10-8,4-16,3-19-1Z" transform="translate(-652.44-969.051)" />
      </g>
      <g transform="matrix(.1333 0 0-.1333-107.219-9.3591)">
        <path d="M688,973c7-3,16-2,19,1c4,3-2,6-13,5-11,0-14-3-6-6Z" transform="translate(-695.862-975.192)" />
      </g>
      <g transform="matrix(.1333 0 0-.1333-3.1189-9.3001)">
        <path d="M1463,973c9-2,23-2,30,0c6,3-1,5-18,5-16,0-22-2-12-5Z" transform="translate(-1476.61-974.75)" />
      </g>
      <g transform="matrix(.1333 0 0-.1333 6.1145-9.3591)">
        <path d="M1538,973c7-3,16-2,19,1c4,3-2,6-13,5-11,0-14-3-6-6Z" transform="translate(-1545.86-975.192)" />
      </g>
      <g transform="matrix(.1333 0 0-.1333 12.8811-9.3001)">
        <path d="M1583,973c9-2,23-2,30,0c6,3-1,5-18,5-16,0-22-2-12-5Z" transform="translate(-1596.61-974.75)" />
      </g>
      <g transform="matrix(.1333 0 0-.1333 19.4478-9.3591)">
        <path d="M1638,973c7-3,16-2,19,1c4,3-2,6-13,5-11,0-14-3-6-6Z" transform="translate(-1645.86-975.192)" />
      </g>
      <g transform="matrix(.1333 0 0-.1333-77.3101-7.9668)">
        <path d="M908,963c6-2,18-2,25,0c6,3,1,5-13,5s-19-2-12-5Z" transform="translate(-920.178-964.75)" />
      </g>
      <g transform="matrix(.1333 0 0-.1333-16.9372-86.0004)">
        <path d="M1350,1550c0-5,12-10,26-10s23,4,19,10c-3,6-15,10-26,10-10,0-19-4-19-10Z"
          transform="translate(-1372.98-1550)" />
      </g>
      <g transform="matrix(.1333 0 0-.1333-16.4522-82.6334)">
        <path d="M1363,1523c9-2,23-2,30,0c6,3-1,5-18,5-16,0-22-2-12-5Z" transform="translate(-1376.61-1524.75)" />
      </g>
      <g transform="matrix(.1333 0 0-.1333-17.3341-77.9411)">
        <path
          d="M1363,1503c9-2,15-9,11-14-3-5-10-7-15-4-5,4-9,1-9-4c0-6,9-11,20-11c13,0,20,7,20,20c0,14-6,20-22,19-18-1-19-2-5-6Z"
          transform="translate(-1370-1489.55)" />
      </g>
      <g transform="matrix(.1333 0 0-.1333 33.5724-83.3337)">
        <path d="M1745,1530c3-5,8-10,11-10c2,0,4,5,4,10c0,6-5,10-11,10-5,0-7-4-4-10Z"
          transform="translate(-1751.8-1530)" />
      </g>
      <g transform="matrix(.1333 0 0-.1333-7.081-52.6669)">
        <path d="M1445,1300l-40-7l37-2c20,0,40,4,43,9c3,6,5,9,3,9-2-1-21-5-43-9Z" transform="translate(-1446.9-1300)" />
      </g>
      <g transform="matrix(.1333 0 0-.1333 14.3444-52.5555)">
        <path d="M1533,1299c-10-4,21-7,69-6s84,4,82,7c-8,8-130,7-151-1Z" transform="translate(-1607.6-1299.16)" />
      </g>
      <g transform="matrix(.1333 0 0-.1333-50.294-51.6298)">
        <path d="M995,1290c-22-3,25-5,105-2c80,2,150,5,155,7c19,6-220,2-260-5Z"
          transform="translate(-1122.83-1292.22)" />
      </g>
      <g transform="matrix(.1333 0 0-.1333 32.0228-51.9001)">
        <path d="M1718,1293c12-2,32-2,45,0c12,2,2,4-23,4s-35-2-22-4Z" transform="translate(-1740.18-1294.25)" />
      </g>
      <g transform="matrix(.1333 0 0-.1333-67.5741-47.8428)">
        <path d="M960,1266c0-8,61-12,66-4c3,4-11,8-30,8-20,0-36-2-36-4Z" transform="translate(-993.203-1263.82)" />
      </g>
      <g transform="matrix(.1333 0 0-.1333-53.4553-38.0027)">
        <path
          d="M1050,1190v-80h49c49,0,50,1,49,30-1,19-6,30-16,30-8,0-12-6-9-15c6-14-7-28-30-31-7-1-13,3-13,9c0,7-5,5-10-3-7-11-10,2-10,43v57h43c36,0,43,3,44,20c2,18-4,20-48,20h-49v-80Z"
          transform="translate(-1099.1-1190)" />
      </g>
      <g transform="matrix(.1333 0 0-.1333-39.1206-47.9001)">
        <path d="M1183,1263c15-2,37-2,50,0c12,2,0,4-28,4-27,0-38-2-22-4Z" transform="translate(-1206.6-1264.25)" />
      </g>
      <g transform="matrix(.1333 0 0-.1333-12.3348-37.3362)">
        <path
          d="M1403,1263c20-2,37-9,37-15c0-5-8-7-17-4-16,5-16,5,0-8c18-14,18-14,0-19-16-4-16-5,0-6c32-2,17-20-20-24l-38-4l38-1c20-1,37-6,37-11c0-6-17-12-37-14l-38-4l38-1c51-3,49-34-3-43l-35-6l43-2l42-1v85v85l-42-2-43-1l38-4Z"
          transform="translate(-1407.5-1185)" />
      </g>
      <g transform="matrix(.1333 0 0-.1333 3.4617-36.6365)">
        <path
          d="M1478,1175c-2-57,1-90,6-85s9,38,8,72c-2,51,0,59,9,44c6-10,9-40,7-67l-5-49h32c30,0,33,3,37,35c3,25,0,35-10,35-8,0-12-6-9-12c2-7,1-22-4-33-8-20-8-20-8,0-1,17-3,17-11,5-7-10-10,9-10,63c0,61,3,77,15,77c9,0,12-6,9-15-4-9,0-15,9-15c8,0,17,9,20,20c5,18,0,20-43,20h-49l-3-95Z"
          transform="translate(-1525.98-1179.75)" />
      </g>
      <g transform="matrix(.1333 0 0-.1333 18.5473-45.963)">
        <path d="M1623,1263c37-4,49-17,25-26-7-3-3-6,10-6c16-1,22,5,22,19c0,17-6,20-47,18-44-1-45-2-10-5Z"
          transform="translate(-1639.12-1249.72)" />
      </g>
      <g transform="matrix(.1333 0 0-.1333 32.0228-47.9001)">
        <path d="M1718,1263c12-2,32-2,45,0c12,2,2,4-23,4s-35-2-22-4Z" transform="translate(-1740.18-1264.25)" />
      </g>
      <g transform="matrix(.1333 0 0-.1333 31.2014-44.9918)">
        <path d="M1700,1240c0-5,14-7,33-3c45,8,47,13,4,13-20,0-37-4-37-10Z" transform="translate(-1734.02-1242.44)" />
      </g>
      <g transform="matrix(.1333 0 0-.1333-67.1318-43.9174)">
        <path d="M978,1233c12-2,30-2,40,0c9,3-1,5-23,4-22,0-30-2-17-4Z" transform="translate(-996.518-1234.38)" />
      </g>
      <g transform="matrix(.1333 0 0-.1333-36.5522-44.0258)">
        <path d="M1218,1233c7-3,16-2,19,1c4,3-2,6-13,5-11,0-14-3-6-6Z" transform="translate(-1225.86-1235.19)" />
      </g>
      <g transform="matrix(.1333 0 0-.1333-27.9186-39.9413)">
        <path
          d="M1272,1205c-1-26,3-35,15-35c13,0,13,3,3,15s-9,15,6,15c18,1,18,1-1,12s-19,11,0,19c19,7,19,8-1,8-17,1-21-5-22-34Z"
          transform="translate(-1290.62-1204.55)" />
      </g>
      <g transform="matrix(.1333 0 0-.1333-52.6924-40.1153)">
        <path d="M1101,1204c0-11,3-14,6-6c3,7,2,16-1,19-3,4-6-2-5-13Z" transform="translate(-1104.81-1205.86)" />
      </g>
      <g transform="matrix(.1333 0 0-.1333-48.3065-39.7018)">
        <path d="M1127,1199c4-16,8-17,14-7c13,19,11,28-5,28-9,0-12-7-9-21Z" transform="translate(-1137.7-1202.76)" />
      </g>
      <g transform="matrix(.1333 0 0-.1333-15.2189-41.3591)">
        <path d="M1378,1213c7-3,16-2,19,1c4,3-2,6-13,5-11,0-14-3-6-6Z" transform="translate(-1385.86-1215.19)" />
      </g>
      <g transform="matrix(.1333 0 0-.1333 8.7357-38.6309)">
        <path d="M1558,1203c-3-13-2-26,4-29c14-9,16-2,8,26-6,25-6,25-12,3Z" transform="translate(-1565.52-1194.73)" />
      </g>
      <g transform="matrix(.1333 0 0-.1333 32.5092-39.334)">
        <path d="M1703,1200c1-17,8-20,47-19c32,2,36,3,15,6-54,7-62,16-20,23l40,7-42,2c-36,1-42-2-40-19Z"
          transform="translate(-1743.83-1200)" />
      </g>
      <g transform="matrix(.1333 0 0-.1333-67.1318-39.9174)">
        <path d="M978,1203c12-2,30-2,40,0c9,3-1,5-23,4-22,0-30-2-17-4Z" transform="translate(-996.518-1204.38)" />
      </g>
      <g transform="matrix(.1333 0 0-.1333 21.9742-37.4487)">
        <path d="M1661,1184c0-11,3-14,6-6c3,7,2,16-1,19-3,4-6-2-5-13Z" transform="translate(-1664.81-1185.86)" />
      </g>
      <g transform="matrix(.1333 0 0-.1333-69.0943-36.667)">
        <path d="M975,1180c-3-5-1-10,4-10c6,0,11,5,11,10c0,6-2,10-4,10-3,0-8-4-11-10Z"
          transform="translate(-981.795-1180)" />
      </g>
      <g transform="matrix(.1333 0 0-.1333-65.0943-36.667)">
        <path d="M1005,1180c3-5,8-10,11-10c2,0,4,5,4,10c0,6-5,10-11,10-5,0-7-4-4-10Z"
          transform="translate(-1011.8-1180)" />
      </g>
      <g transform="matrix(.1333 0 0-.1333 29.549-33.6755)">
        <path d="M1705,1160c-4-6,3-10,14-10c25,0,27,6,6,13-8,4-17,2-20-3Z" transform="translate(-1721.62-1157.56)" />
      </g>
      <g transform="matrix(.1333 0 0-.1333-67.1318-33.2508)">
        <path d="M978,1153c12-2,30-2,40,0c9,3-1,5-23,4-22,0-30-2-17-4Z" transform="translate(-996.518-1154.38)" />
      </g>
      <g transform="matrix(.1333 0 0-.1333-66.0954-30.0003)">
        <path d="M995,1130c-18-8-17-9,8-9c16-1,26,3,22,9-3,6-7,10-8,9-1,0-11-4-22-9Z"
          transform="translate(-1004.29-1130)" />
      </g>
      <g transform="matrix(.1333 0 0-.1333 18.3319-28.3168)">
        <path d="M1630,1131c-22-4-35-12-35-21c0-30,84-8,85,23c0,4-3,6-7,6-5-1-24-4-43-8Z"
          transform="translate(-1637.5-1117.37)" />
      </g>
      <g transform="matrix(.1333 0 0-.1333 29.4741-30.017)">
        <path d="M1705,1130c-8-13,5-13,25,0c13,8,13,10-2,10-9,0-20-4-23-10Z" transform="translate(-1721.06-1130.12)" />
      </g>
      <g transform="matrix(.1333 0 0-.1333 35.4478-30.6924)">
        <path d="M1758,1133c7-3,16-2,19,1c4,3-2,6-13,5-11,0-14-3-6-6Z" transform="translate(-1765.86-1135.19)" />
      </g>
      <g transform="matrix(.1333 0 0-.1333-66.0954-26.0003)">
        <path d="M995,1100c-18-8-17-9,8-9c16-1,26,3,22,9-3,6-7,10-8,9-1,0-11-4-22-9Z"
          transform="translate(-1004.29-1100)" />
      </g>
      <g transform="matrix(.1333 0 0-.1333 32.0228-26.5668)">
        <path d="M1718,1103c12-2,32-2,45,0c12,2,2,4-23,4s-35-2-22-4Z" transform="translate(-1740.18-1104.25)" />
      </g>
      <g transform="matrix(.1333 0 0-.1333-40.4539-25.2335)">
        <path d="M1173,1093c15-2,37-2,50,0c12,2,0,4-28,4-27,0-38-2-22-4Z" transform="translate(-1196.6-1094.25)" />
      </g>
      <g transform="matrix(.1333 0 0-.1333-28.5522-25.3591)">
        <path d="M1278,1093c7-3,16-2,19,1c4,3-2,6-13,5-11,0-14-3-6-6Z" transform="translate(-1285.86-1095.19)" />
      </g>
      <g transform="matrix(.1333 0 0-.1333-10.4142-23.3337)">
        <path d="M1420,1080l-35-7l32-2c17,0,35,4,38,9c3,6,5,9,3,9-2-1-19-5-38-9Z" transform="translate(-1421.9-1080)" />
      </g>
      <g transform="matrix(.1333 0 0-.1333 30.7901-22.925)">
        <path d="M1709,1077c5-5,19-7,32-5c20,3,19,5-9,9-20,3-29,2-23-4Z" transform="translate(-1730.93-1076.94)" />
      </g>
      <g transform="matrix(.1333 0 0-.1333 112.023-22.6334)">
        <path d="M2328,1073c6-2,18-2,25,0c6,3,1,5-13,5s-19-2-12-5Z" transform="translate(-2340.18-1074.75)" />
      </g>
      <g transform="matrix(.1333 0 0-.1333 95.5478-7.9668)">
        <path d="M2203,963c9-2,23-2,30,0c6,3-1,5-18,5-16,0-22-2-12-5Z" transform="translate(-2216.61-964.75)" />
      </g>
      <g transform="matrix(.1333 0 0-.1333 106.201-7.9174)">
        <path d="M2278,963c12-2,30-2,40,0c9,3-1,5-23,4-22,0-30-2-17-4Z" transform="translate(-2296.52-964.38)" />
      </g>
      <g transform="matrix(.1333 0 0-.1333 123.358-93.3533)">
        <path
          d="M2378,1679c-26-15-25-119,0-142c25-22,75-21,95,1c26,28,24,128-2,142-25,13-71,12-93-1Zm82-19c11-7-1-10-40-9-40,0-49,3-35,9c27,12,57,12,75,0Zm10-65v-45h-45-45v45v45h45h45v-45Z"
          transform="translate(-2425.2-1605.13)" />
      </g>
      <g transform="matrix(.1333 0 0-.1333 173.681-93.8168)">
        <path
          d="M2775,1637c-57-56-69-89-37-105c9-6,26-6,37-2c17,6,92,81,109,108c6,10-30,52-44,52-5,0-34-24-65-53Zm84,19c8-10,9-16,1-21-13-8-30,3-30,21s14,18,29,0Zm-48-70c-18-19-42-36-52-39-31-8-23,24,18,65c33,34,39,36,52,23s11-19-18-49Z"
          transform="translate(-2802.63-1608.61)" />
      </g>
      <g transform="matrix(.1333 0 0-.1333-197.967-96.6909)">
        <path d="M12,1630c0-14,2-19,5-12c2,6,2,18,0,25-3,6-5,1-5-13Z" transform="translate(-15.25-1630.18)" />
      </g>
      <g transform="matrix(.1333 0 0-.1333 139.546-57.2335)">
        <path d="M2523,1333c15-2,37-2,50,0c12,2,0,4-28,4-27,0-38-2-22-4Z" transform="translate(-2546.6-1334.25)" />
      </g>
      <g transform="matrix(.1333 0 0-.1333-179.277-8.9933)">
        <path d="M160,979c0-5-4-7-10-4-5,3-10-1-10-9c0-10,6-13,15-10c14,6,22,34,10,34-3,0-5-5-5-11Z"
          transform="translate(-155.427-972.445)" />
      </g>
      <g transform="matrix(.1333 0 0-.1333-174.906-10.0004)">
        <path d="M180,980c0-5,5-10,11-10c5,0,7,5,4,10-3,6-8,10-11,10-2,0-4-4-4-10Z"
          transform="translate(-188.205-980)" />
      </g>
      <g transform="matrix(.1333 0 0-.1333-183.761-7.3336)">
        <path d="M115,960c-3-5-1-10,4-10c6,0,11,5,11,10c0,6-2,10-4,10-3,0-8-4-11-10Z"
          transform="translate(-121.795-960)" />
      </g>
      <g transform="matrix(.1333 0 0-.1333-169.141 8.898)">
        <path
          d="M186,910c4-30,9-59,12-65c4-5,5-22,3-37-1-16,2-28,8-28s8-7,5-15c-4-9,0-15,9-15c8,0,20-7,27-15c19-23,30-18,30,16c0,26-2,29-14,20-12-10-18-7-30,16-9,19-11,34-5,44c12,19,11,49-2,49-5,0-7-4-4-10c3-5,2-10-3-10s-12,9-15,20c-3,10-2,18,2,17c3-1,6,1,6,4c0,4,8,16,18,27c12,13,15,22,8,27-6,3-16-6-22-22l-11-28-14,30c-13,29-13,28-8-25Z"
          transform="translate(-231.452-838.236)" />
      </g>
      <g transform="matrix(.1333 0 0-.1333 106.435 7.6929)">
        <path
          d="M2425,930c4-22,1-30-9-30-8,0-17,6-19,13-4,10-6,10-6,0-1-10-35-13-137-13h-136l6-22c3-13,6-51,6-86c0-38,4-61,10-57c5,3,7,12,3,20-3,10,2,15,16,15c23,0,29-15,9-23-8-3-6-6,4-6c15-1,17,7,11,65-7,78-2,84,72,83c66-2,111-12,108-26-2-7,7-15,19-19c28-9,48-28,48-47c0-20,26-29,39-13c7,8,5,15-9,24-16,10-18,16-10,38c11,27,5,64-12,75-5,3-3,9,6,12c11,5,16,1,16-13c0-11,5-20,11-20s9,10,7,23c-2,14-9,21-21,21-9-1-17,2-17,7s-5,9-10,9c-6,0-8-13-5-30Zm-19-57c-6-15-5-15,13,1c21,19,35,8,25-19-5-12-14-15-33-10-33,8-46,28-23,37c25,10,25,10,18-9Zm-238-61c-1-18-5-31-10-30-5,2-9,7-9,11c1,4,1,24,1,45c0,27,3,33,10,22c5-8,9-30,8-48Z"
          transform="translate(-2298.31-847.275)" />
      </g>
      <g transform="matrix(.1333 0 0-.1333-188-4.667)">
        <path d="M80,940c0-5,5-10,10-10c6,0,10,5,10,10c0,6-4,10-10,10-5,0-10-4-10-10Z" transform="translate(-90-940)" />
      </g>
      <g transform="matrix(.1333 0 0-.1333-181.643 7.6307)">
        <path
          d="M148,942c-22-4-23-16-2-36c8-9,11-16,6-16s-12-9-15-20c-3-13-10-18-21-14-9,3-14,10-11,14c3,5,1,11-5,15-15,9-12-12,6-46c12-25,18-28,30-19c7,7,11,17,7,23-3,6-1,7,5,3c7-4,12-18,12-31c0-19-4-23-17-18-16,6-17,5-3-12c11-14,12-17,1-11-9,6-12,4-9-5c3-8,11-15,19-17c19-3,45,78,29,88-6,4-11,13-10,21c5,32-1,60-10,54-5-3-10-2-10,4c0,5,6,11,13,14c17,6,5,14-15,9Z"
          transform="translate(-137.69-847.745)" />
      </g>
      <g transform="matrix(.1333 0 0-.1333-183.98 0.982)">
        <path d="M111,910c0-14,4-32,9-40c9-13,10-13,9,0-1,8-5,26-9,40l-8,25-1-25Z"
          transform="translate(-120.156-897.625)" />
      </g>
      <g transform="matrix(.1333 0 0-.1333 197.974-1.4487)">
        <path d="M2981,914c0-11,3-14,6-6c3,7,2,16-1,19-3,4-6-2-5-13Z" transform="translate(-2984.81-915.862)" />
      </g>
      <g transform="matrix(.1333 0 0-.1333-166.163 6.6644)">
        <path
          d="M240,911c0-6,4-12,8-15c12-7,2-69-12-78-8-5-7-8,2-8c7,0,10-4,7-10-3-5-2-10,3-10c12,0,25,47,17,60-3,5-1,19,6,31c8,15,8,19,0,15-6-4-11,0-11,8c0,9-4,16-10,16-5,0-10-4-10-9Z"
          transform="translate(-253.788-855)" />
      </g>
      <g transform="matrix(.1333 0 0-.1333-4.019 3.932)">
        <path
          d="M902,888c1-16,6-28,11-28s5,9,2,20c-4,11-2,20,4,20s11-4,11-10s9-6,26,0c16,6,191,10,443,10l417-1-1-26c0-14,6-27,13-29c7-1,8,0,2,3-19,9-10,33,16,43c34,13,110,13,137-1c12-6,30-21,39-33l18-21v22c0,15-9,24-30,32-16,5-30,14-30,19c0,4-240,8-540,8l-540-1l2-27Z"
          transform="translate(-1470-875.5)" />
      </g>
      <g transform="matrix(.1333 0 0-.1333-190.762 3.7576)">
        <path
          d="M70,895c0-7-7-18-16-23-14-8-14-10,0-21c13-11,17-10,22,5c3,11,10,27,15,37c7,13,5,17-6,17-8,0-15-7-15-15Z"
          transform="translate(-69.2917-876.81)" />
      </g>
      <g transform="matrix(.1333 0 0-.1333 99.9983 5.7509)">
        <path d="M2201,858c1-17,2-19,6-5c3,12,15,17,43,17s40-5,43-17c4-14,5-12,6,5c1,20-3,22-49,22s-50-2-49-22Z"
          transform="translate(-2250-861.864)" />
      </g>
      <g transform="matrix(.1333 0 0-.1333 158.033 7.3084)">
        <path d="M2682,850c0-19,2-27,5-17c2,9,2,25,0,35-3,9-5,1-5-18Z" transform="translate(-2685.25-850.182)" />
      </g>
      <g transform="matrix(.1333 0 0-.1333-151.234 9.9754)">
        <path d="M363,830c0-25,2-35,4-22c2,12,2,32,0,45-2,12-4,2-4-23Z" transform="translate(-365.75-830.177)" />
      </g>
      <g transform="matrix(.1333 0 0-.1333-71.4569 7.9911)">
        <path d="M967,853c4-11,3-14-5-9-7,4-12,1-12-8c0-26,25-18,28,9c1,14-3,25-8,25s-6-7-3-17Z"
          transform="translate(-964.077-845.061)" />
      </g>
      <g transform="matrix(.1333 0 0-.1333 31.9997 5.7603)">
        <path d="M1730,859c0-5,5-7,10-4c6,3,10,8,10,11c0,2-4,4-10,4-5,0-10-5-10-11Z"
          transform="translate(-1740-861.795)" />
      </g>
      <g transform="matrix(.1333 0 0-.1333 56.058 5.4614)">
        <path d="M1851,866c8-8,139-11,139-4c0,5-32,8-72,8-39,0-69-2-67-4Z" transform="translate(-1920.45-864.038)" />
      </g>
      <g transform="matrix(.1333 0 0-.1333 151.448 6.6409)">
        <path d="M2628,853c7-3,16-2,19,1c4,3-2,6-13,5-11,0-14-3-6-6Z" transform="translate(-2635.86-855.192)" />
      </g>
      <g transform="matrix(.1333 0 0-.1333 34.8497 9.506)">
        <path d="M1756,841c-4-6-12-9-17-6-5,4-9,1-9-4c0-6,17-11,38-10c20,0,30,3,22,6s-18,10-21,16c-4,5-9,5-13-2Z"
          transform="translate(-1761.38-833.702)" />
      </g>
      <g transform="matrix(.1333 0 0-.1333 180.7 9.9758)">
        <path d="M2852,830c0-14,2-19,5-12c2,6,2,18,0,25-3,6-5,1-5-13Z" transform="translate(-2855.25-830.178)" />
      </g>
      <g transform="matrix(.1333 0 0-.1333-76.6672 10.3058)">
        <path d="M910,830c0-6,7-10,15-10s15,2,15,4-7,6-15,10c-8,3-15,1-15-4Z" transform="translate(-925-827.705)" />
      </g>
      <g transform="matrix(.1333 0 0-.1333 18.1954 10.6662)">
        <path d="M1630,825c-10-12-10-15,4-15c9,0,16,7,16,15s-2,15-4,15-9-7-16-15Z"
          transform="translate(-1636.47-825)" />
      </g>
      <g transform="matrix(.1333 0 0-.1333 65.1242 15.2392)">
        <path
          d="M1977,833c-11-3-16-10-13-20c3-8,6-29,6-46c1-28,2-29,11-14c6,11,9,30,6,44-3,18,1,27,17,33c22,9,4,11-27,3Z"
          transform="translate(-1988.44-790.694)" />
      </g>
      <g transform="matrix(.1333 0 0-.1333-193.434 11.9135)">
        <path d="M35,820c-3-5-4-10-1-10c2,0,12-3,20-6c12-5,15-2,10,10-7,18-20,21-29,6Z"
          transform="translate(-49.2514-815.645)" />
      </g>
      <g transform="matrix(.1333 0 0-.1333-183.782 65.6527)">
        <path
          d="M83,816c10-24-22-56-56-57l-32-1l33-8c18-4,43-5,54-2c17,4,18,3,8-14-9-15-21-18-48-16L5,722l5-364L15,-5l3,353c1,193,6,352,10,353c50,4,93,2,95-5c2-5,11-1,20,8c9,10,20,15,25,12c4-2,14-1,22,4s19,5,25,0s17-5,25,0c10,7,11,10,3,10-7,0-15-1-17-2-2-2-14,6-27,17-12,11-20,15-16,9c12-21-77-51-90-31-3,6-2,8,3,5s14-1,19,6c9,10,10,19,6,64-1,6-8,12-17,12-8,0-12,5-9,10c3,6,1,10-5,10-7,0-10-6-7-14Z"
          transform="translate(-121.667-412.5)" />
      </g>
      <g transform="matrix(.1333 0 0-.1333 100.665 16.2241)">
        <path
          d="M2210,778c0-36,3-48,9-38c6,8,7,18,5,22-3,4,0,8,6,8c7,0,8,6,0,19-15,29-13,31,26,31c33,0,36-2,32-25-3-14-1-28,3-31c5-3,9,11,9,30c0,36,0,36-45,36h-45v-52Z"
          transform="translate(-2255-783.307)" />
      </g>
      <g transform="matrix(.1333 0 0-.1333 110.115 10.6409)">
        <path d="M2318,823c7-3,16-2,19,1c4,3-2,6-13,5-11,0-14-3-6-6Z" transform="translate(-2325.86-825.192)" />
      </g>
      <g transform="matrix(.1333 0 0-.1333-79.3001 16.6417)">
        <path d="M902,780c0-19,2-27,5-17c2,9,2,25,0,35-3,9-5,1-5-18Z" transform="translate(-905.25-780.182)" />
      </g>
      <g transform="matrix(.1333 0 0-.1333 138.888 18.5571)">
        <path
          d="M2500,788c-18-28-21-56-7-65c6-3,7-1,3,5-8,14,0,14,29,3c12-5,30-3,48,6c34,17,35,26,2,13-18-7-25-6-25,3c0,6-8,22-18,35l-17,22-15-22Zm25-28c-3-5,1-11,7-13c9-4,7-6-3-6-18-1-42,22-33,32c9,8,35-4,29-13Z"
          transform="translate(-2541.67-765.811)" />
      </g>
      <g transform="matrix(.1333 0 0-.1333 191.069 17.7551)">
        <path
          d="M2959,798c12-16,11-18-7-18-11,0-22,5-24,12-3,8-13,6-31-8-28-20-34-38-17-49c6-3,10,0,10,8c0,20,26,41,35,27c3-5,1-10-4-10-6,0-11-7-11-16c0-13,3-14,15-4c8,6,19,9,24,5c7-4,8,1,4,11-5,14-2,16,23,11c16-3,24-4,17-1s-9,13-6,22s3,14-2,10c-4-4-15-2-24,5-14,11-14,10-2-5Z"
          transform="translate(-2933.04-771.827)" />
      </g>
      <g transform="matrix(.1333 0 0-.1333 101.6 17.7123)">
        <path d="M2254,774c0-13,4-24,8-24s8,9,8,19c0,11-4,22-8,25-4,2-8-6-8-20Z" transform="translate(-2262-772.152)" />
      </g>
      <g transform="matrix(.1333 0 0-.1333-152.669 20.4688)">
        <path
          d="M303,783c-7-2-13-18-13-34c0-19,4-28,11-23c6,3,9,15,6,25-3,12,0,19,9,19c10,0,12-9,8-32-4-22-3-29,4-20c5,7,13,12,18,11s24-1,42,0c28,1,32,5,32,27c0,17-4,24-12,21-47-17-58-18-64-3-6,16-18,19-41,9Zm47-33c0-5-5-10-11-10-5,0-7,5-4,10c3,6,8,10,11,10c2,0,4-4,4-10Zm37-6c-3-3-12-4-19-1-8,3-5,6,6,6c11,1,17-2,13-5Z"
          transform="translate(-355-751.475)" />
      </g>
      <g transform="matrix(.1333 0 0-.1333-99.1206 16.0999)">
        <path d="M733,783c15-2,37-2,50,0c12,2,0,4-28,4-27,0-38-2-22-4Z" transform="translate(-756.603-784.25)" />
      </g>
      <g transform="matrix(.1333 0 0-.1333-56.373 18.8444)">
        <path d="M1070,766c0-31,6-34,13-6c3,11,1,23-4,26s-9-6-9-20Z" transform="translate(-1077.2-763.662)" />
      </g>
      <g transform="matrix(.1333 0 0-.1333-3.1206 16.0999)">
        <path d="M1453,783c15-2,37-2,50,0c12,2,0,4-28,4-27,0-38-2-22-4Z" transform="translate(-1476.6-784.25)" />
      </g>
      <g transform="matrix(.1333 0 0-.1333-72.4522 17.3666)">
        <path d="M943,773c9-2,23-2,30,0c6,3-1,5-18,5-16,0-22-2-12-5Z" transform="translate(-956.613-774.75)" />
      </g>
      <g transform="matrix(.1333 0 0-.1333 34.9323 19.3327)">
        <path d="M1734,760c0-15,7-20,28-20c20,0,28,5,28,18c0,14-2,15-10,2s-10-12-10,3c0,10-8,17-18,17-11,0-18-7-18-20Z"
          transform="translate(-1762-760)" />
      </g>
      <g transform="matrix(.1333 0 0-.1333-72.4522 21.3666)">
        <path d="M943,743c9-2,23-2,30,0c6,3-1,5-18,5-16,0-22-2-12-5Z" transform="translate(-956.613-744.75)" />
      </g>
      <g transform="matrix(.1333 0 0-.1333 168.933 21.9997)">
        <path d="M2755,740c-3-5,1-10,9-10c9,0,16,5,16,10c0,6-4,10-9,10-6,0-13-4-16-10Z"
          transform="translate(-2767-740)" />
      </g>
      <g transform="matrix(.1333 0 0-.1333 162.69 22.6999)">
        <path d="M2708,733c6-2,18-2,25,0c6,3,1,5-13,5s-19-2-12-5Z" transform="translate(-2720.18-734.75)" />
      </g>
      <g transform="matrix(.1333 0 0-.1333-161.31 26.6999)">
        <path d="M278,703c6-2,18-2,25,0c6,3,1,5-13,5s-19-2-12-5Z" transform="translate(-290.178-704.75)" />
      </g>
      <g transform="matrix(.1333 0 0-.1333-136.346 62.5288)">
        <path
          d="M387,492c-10-10-17-26-17-35s-5-19-12-23c-6-4-8-3-4,4c3,6-5,19-19,30-22,17-39,20-126,18-75-1-102-5-110-16-8-14-3-88,7-99c4-4,130-4,229,0c6,0,20-3,32-6c20-6,26-1,42,36c17,38,20,41,20,18c1-33,19-49,57-48c93,2,232,0,279-5c11-1,24,0,30,3c5,3,21,5,35,5c27,1,36,22,26,62-7,25-81,69-91,54-12-20-190-29-208-11-6,6-19,6-33,1-15-6-34-6-49,0-16,6-27,6-31-2-5-7-10-4-15,10-10,27-21,28-42,4Zm11-62c-11-33-24-60-29-60s-9,2-9,4c0,3,20,62,35,104c2,6,9,12,14,12s1-27-11-60Zm392,36c0-8,10-16,23-18c17-2,23-11,25-35c4-40-15-45-20-5-4,33-22,32-26-3-6-45-22-26-22,25c0,28,5,50,10,50c6,0,10-6,10-14Zm-622-8c7-7,12-22,12-35c0-29-44-53-62-35-9,9-7,12,9,12c12,0,25,5,28,10c3,6-3,10-14,10-23,0-35,15-27,35c7,18,37,20,54,3Zm80-21c2-16-2-35-9-43-13-16-49-19-49-4c0,6,9,10,20,10s20,5,20,10c0,6-9,10-20,10-15,0-20,7-20,26c0,22,4,25,28,22c21-2,28-9,30-31Zm76,17c12-32,6-55-19-66-19-9-28-9-37,0s-7,12,9,12c12,0,25,5,28,10c3,6-3,10-14,10-23,0-35,15-27,35c7,20,52,19,60-1Zm158-9c6-14,14-25,18-25s12,11,18,25c18,39,32,30,32-20c0-48-20-64-21-17c0,27-1,27-11,5-6-13-14-23-18-23s-12,10-18,23c-10,22-11,22-11-5-1-47-21-31-21,17c0,50,14,59,32,20Zm270-13c-14-4-16-32-2-32c6,0,10-4,10-10c0-17-20-11-26,8-3,9-9,24-14,33-13,25,9,42,29,22c12-12,13-17,3-21Zm-125,2c8-22-10-49-32-49-10,0-22,7-28,16-15,24-1,49,28,49c15,0,28-7,32-16Zm77,0c9-24,7-54-3-54-5,0-11,11-13,25-4,35-22,36-26,3-5-40-22-34-22,7c0,32,3,35,29,35c17,0,31-6,35-16Z"
          transform="translate(-477.5-436.015)" />
      </g>
      <g transform="matrix(.1333 0 0-.1333-180.811 61.5747)">
        <path d="M135,449c-10-15,3-25,16-12c7,7,7,13,1,17-6,3-14,1-17-5Z" transform="translate(-143.918-443.187)" />
      </g>
      <g transform="matrix(.1333 0 0-.1333-171.092 61.4772)">
        <path d="M206,452c-3-6-1-14,5-17c15-10,25,3,12,16-7,7-13,7-17,1Z" transform="translate(-216.813-443.918)" />
      </g>
      <g transform="matrix(.1333 0 0-.1333-160.811 61.5747)">
        <path d="M285,449c-10-15,3-25,16-12c7,7,7,13,1,17-6,3-14,1-17-5Z" transform="translate(-293.918-443.187)" />
      </g>
      <g transform="matrix(.1333 0 0-.1333-120.693 64.9181)">
        <path d="M586,433c-12-12-6-33,9-33c8,0,15,6,15,14c0,17-14,28-24,19Z" transform="translate(-594.808-418.11)" />
      </g>
      <g transform="matrix(.1333 0 0-.1333-84.1577 90.0599)">
        <path
          d="M865,308c-16-6-36-12-43-14s-15-12-18-21c-3-10-10-26-15-35-14-27-11-65,7-82c11-11,34-16,77-16c52,0,64,3,75,21c26,42-6,161-42,158-6-1-24-6-41-11Zm59-25c15-56,17-106,5-114-16-10-90-12-113-3-21,8-20,41,0,61c13,13,20,14,35,5c10-7,28-12,39-12c15,0,20,7,20,29c0,24-3,28-20,24-22-6-28,12-7,20c24,10,36,7,41-10Zm-74-18c0-8-7-15-15-15-16,0-20,12-8,23c11,12,23,8,23-8Z"
          transform="translate(-868.84-229.528)" />
      </g>
      <g transform="matrix(.1333 0 0-.1333-174.739 89.6007)">
        <path
          d="M121,274c-25-31-27-76-6-94c9-7,43-14,76-14c74-1,95,15,85,68-10,51-29,66-86,66-41,0-52-4-69-26Zm121-16c-2-10,2-18,8-18c13,0,13-31-1-50-8-11-12-12-16-2-6,15-75,16-90,1-17-17-27,30-14,64c10,26,14,28,63,25c44-2,52-6,50-20Z"
          transform="translate(-189.477-232.978)" />
      </g>
      <g transform="matrix(.1333 0 0-.1333-178.001 87.3329)">
        <path d="M150,250c0-5,7-10,15-10s15,5,15,10c0,6-7,10-15,10s-15-4-15-10Z" transform="translate(-165-250)" />
      </g>
      <g transform="matrix(.1333 0 0-.1333-171.334 87.3329)">
        <path d="M200,250c0-5,7-10,15-10s15,5,15,10c0,6-7,10-15,10s-15-4-15-10Z" transform="translate(-215-250)" />
      </g>
      <g transform="matrix(.1333 0 0-.1333-129.594 90.1217)">
        <path
          d="M313,269c-15-15-3-68,18-74c10-4,23-4,28,0c5,3,12,1,16-5c7-11,343-9,363,3c18,12,15,54-5,63-19,9-171,17-250,13-10,0-50,2-89,5-41,3-75,1-81-5Zm37-39c0-16-4-30-9-30s-11,14-13,30c-3,20,0,30,9,30c8,0,13-12,13-30Zm73,12c-4-15,13-16,22-2c5,7,11,8,18,1c8-6,19-5,31,5c28,20,33,18,28-16-4-29-25-40-37-20-3,6-14,10-23,10-13,0-14-2-4-9c8-5-4-8-32-9-44,0-46,1-46,30c0,25,3,29,23,26c12-2,21-9,20-16Zm173-5c4-4,13-2,20,4c17,14,34,3,34-22c0-21-20-25-38-7-9,9-12,9-12,0c0-18-28-14-39,6-10,16-10,16-11,0c0-10-4-18-10-18-14,0-12,38,2,42c17,6,46,3,54-5Zm131-17c1-14,0-18-3-7-3,9-10,17-15,17s-10-8-10-17c-1-17-2-17-6,0-2,9-8,17-13,17s-11-8-13-17c-3-12-5-9-6,8-1,22,3,25,32,25c27-1,32-5,34-26Z"
          transform="translate(-528.103-229.076)" />
      </g>
      <g transform="matrix(.1333 0 0-.1333-146.207 89.9994)">
        <path d="M390,230c0-12,7-20,16-20c13,0,14,3,5,13-6,8-8,17-4,20c3,4,1,7-5,7-7,0-12-9-12-20Z"
          transform="translate(-403.452-230)" />
      </g>
      <g transform="matrix(.1333 0 0-.1333-133.334 91.3329)">
        <path d="M490,220c0-5,5-10,10-10c6,0,10,5,10,10c0,6-4,10-10,10-5,0-10-4-10-10Z"
          transform="translate(-500-220)" />
      </g>
      <g transform="matrix(.1333 0 0-.1333-122.428 91.3329)">
        <path d="M575,220c3-5,8-10,11-10c2,0,4,5,4,10c0,6-5,10-11,10-5,0-7-4-4-10Z"
          transform="translate(-581.795-220)" />
      </g>
      <g transform="matrix(.1333 0 0-.1333-116 91.3329)">
        <path d="M620,220c0-5,5-10,10-10c6,0,10,5,10,10c0,6-4,10-10,10-5,0-10-4-10-10Z"
          transform="translate(-630-220)" />
      </g>
      <g transform="matrix(.1333 0 0-.1333-36.4645 90.7801)">
        <path
          d="M991,266c-6-7-4-23,4-42c15-36,31-49,40-34c5,8,11,8,19,1s57-10,120-8c59,1,110-1,113-6c2-4,10-4,16,1c7,5,42,8,78,7c63-2,68-1,78,23c10,20,9,28-5,43s-32,18-123,18c-58,0-157,2-219,4-74,3-115,0-121-7Zm38-38c-1-22-3-26-6-13-3,11-10,26-15,33-8,9-6,12,6,12s16-9,15-32Zm81,10c7-19,9-20,9-5c1,25,25,16,29-10c3-17-3-20-43-21-43,0-45,1-45,29c0,22,5,29,20,29c12,0,24-10,30-22Zm106,14c6-4,16-16,22-27c11-19,11-19,12,3c0,12,5,22,11,22s8-7,5-16-6-20-6-25c0-17-40-9-41,9-1,16-2,15-6-1-7-26-47-18-51,11-2,12,1,22,7,22c5,0,12-10,14-22c4-20,4-19,6,5c1,28,8,32,27,19Zm81-20c-9-2-14-8-11-14c4-5,16,0,30,13c19,18,26,20,39,9c8-7,15-8,15-3c0,11,50,10,68-1c14-9,16-36,2-36-5,0-10,7-10,15s-5,15-11,15-9-7-5-15c3-8,1-15-4-15-6,0-10,7-10,15s-4,15-10,15c-5,0-7-7-4-15c4-8,1-15-5-15s-11,6-11,13c0,8-3,8-8,1-9-13-80-15-88-3-8,14,16,40,30,32c7-5,5-9-7-11Z"
          transform="translate(-1226.58-224.137)" />
      </g>
      <g transform="matrix(.1333 0 0-.1333-55.4565 89.9994)">
        <path d="M1074,230c0-11,6-20,12-20c7,0,10,8,7,20-3,11-8,20-12,20s-7-9-7-20Z"
          transform="translate(-1084.08-230)" />
      </g>
      <g transform="matrix(.1333 0 0-.1333-21.0943 91.3329)">
        <path d="M1335,220c3-5,8-10,11-10c2,0,4,5,4,10c0,6-5,10-11,10-5,0-7-4-4-10Z"
          transform="translate(-1341.8-220)" />
      </g>
    </g>
  </g>

</svg>