<?xml version="1.0" encoding="UTF-8" standalone="no" ?>
<!DOCTYPE svg PUBLIC "-//W3C//DTD SVG 1.1//EN" "http://www.w3.org/Graphics/SVG/1.1/DTD/svg11.dtd">
<svg xmlns="http://www.w3.org/2000/svg" xmlns:xlink="http://www.w3.org/1999/xlink" version="1.1" width="1280" height="1024" viewBox="0 0 1280 1024" xml:space="preserve">
<desc>Created with Fabric.js 4.4.0</desc>
<defs>
</defs>
<g transform="matrix(1 0 0 1 640 512)" id="background-logo"  >
<rect style="stroke: none; stroke-width: 0; stroke-dasharray: none; stroke-linecap: butt; stroke-dashoffset: 0; stroke-linejoin: miter; stroke-miterlimit: 4; fill: rgb(255,255,255); fill-opacity: 0; fill-rule: nonzero; opacity: 1;"  paint-order="stroke"  x="-640" y="-512" rx="0" ry="0" width="1280" height="1024" />
</g>
<g transform="matrix(4.593753963265058 0 0 4.593753963265058 640.1856601248885 512.2970561998216)" id="logo-logo"  >
<g style=""  paint-order="stroke"   >
		<g transform="matrix(0.34125907460375066 0 0 0.34125907460375066 -60.69825273351893 -62.552788374867475)"  >
<path style="stroke: none; stroke-width: 1; stroke-dasharray: none; stroke-linecap: butt; stroke-dashoffset: 0; stroke-linejoin: miter; stroke-miterlimit: 4; fill: rgb(100,149,237); fill-rule: nonzero; opacity: 1;"  paint-order="stroke"  transform=" translate(-182.08439216525443, -176.63637287570313)" d="M 282.5 250 C 283.5 259.8 283.9 269.6 283.7 279.4 C 283.7 280 283.7 280.59999999999997 283.7 281.2 C 283.5 288 283.09999999999997 294.8 282.2 301.7 L 282.2 302 C 281.9 304.4 281.5 306.9 281.2 309.4 L 252.5 300.7 C 255.9 291.09999999999997 256.7 280.9 255.5 270.9 C 254.9 265.79999999999995 253.8 260.79999999999995 252.1 255.89999999999998 C 248.9 246.09999999999997 244 235.99999999999997 236.1 228.79999999999998 C 226.6 220.2 215.29999999999998 220.49999999999997 203 220.6 C 182.3 220.6 163.4 210.7 148.9 197.2 C 133.8 183.29999999999998 125.4 157.6 116.30000000000001 140.79999999999998 C 104.1 118.3 89.9 108 75.6 102 C 75.39999999999999 101.9 75.5 101.6 75.69999999999999 101.6 C 82.49999999999999 100.6 145.89999999999998 87.8 203 125.39999999999999 C 220.4 136.89999999999998 233.4 151.89999999999998 240.6 171.5 C 243 178 243.7 186.1 241.7 192.9 C 240.79999999999998 195.9 238.79999999999998 198.70000000000002 236 200.3 C 231.5 202.9 226 203.10000000000002 220.9 202.60000000000002 C 215.8 202.10000000000002 210.8 200.90000000000003 205.9 199.3 C 173.7 188.9 144.5 154.20000000000002 127.7 130.9 C 128.2 132.20000000000002 128.8 133.4 129.4 134.70000000000002 C 131.20000000000002 138.50000000000003 133.20000000000002 142.20000000000002 135.3 145.8 C 138.4 151.20000000000002 141.8 156.4 145.5 161.4 C 150 167.5 155 173.3 160.3 178.8 C 166.3 184.8 172.8 190.4 179.9 195.20000000000002 C 190.3 202.3 202 208.00000000000003 214.4 211.10000000000002 C 225.20000000000002 213.8 236.9 215.00000000000003 245.20000000000002 222.70000000000002 C 255.4 232.10000000000002 259.5 246.20000000000002 261.3 259.20000000000005 C 261.5 257.40000000000003 261.6 255.60000000000005 261.8 253.80000000000004 C 263 239.10000000000005 263 224.30000000000004 262.1 209.60000000000002 C 261.6 200.8 260.8 192.10000000000002 259.70000000000005 183.40000000000003 C 258.70000000000005 174.80000000000004 257.40000000000003 167.00000000000003 251.60000000000005 160.10000000000002 C 246.80000000000004 154.40000000000003 240.50000000000006 149.90000000000003 236.40000000000006 143.60000000000002 C 231.50000000000006 136.3 229.20000000000007 127.70000000000002 228.50000000000006 119.10000000000002 C 227.50000000000006 106.40000000000002 234.90000000000006 90.70000000000002 238.00000000000006 79.00000000000003 C 242.20000000000005 63.40000000000003 240.00000000000006 52.800000000000026 235.90000000000006 44.10000000000003 C 235.80000000000007 44.00000000000003 236.00000000000006 43.80000000000003 236.20000000000007 43.90000000000003 C 246.70000000000007 50.60000000000003 256.4000000000001 57.70000000000003 264.70000000000005 67.00000000000003 C 284.70000000000005 89.30000000000003 296.50000000000006 122.80000000000003 282.70000000000005 150.8 C 274.20000000000005 167.9 260.1 152.8 253.90000000000003 142.5 C 243.10000000000002 124.5 245.70000000000005 96.8 248.00000000000003 78.8 C 244.60000000000002 88.1 242.70000000000002 98.19999999999999 241.80000000000004 108 C 240.90000000000003 119.9 241.80000000000004 132.4 247.20000000000005 143.4 C 250.70000000000005 150.5 256.80000000000007 156.4 260.50000000000006 163.6 C 263.6000000000001 169.9 265.6000000000001 176.6 267.90000000000003 183.29999999999998 C 275.2 204.9 280.4 227.3 282.5 250 z" stroke-linecap="round" />
</g>
		<g transform="matrix(0.34125907460375066 0 0 0.34125907460375066 0.1023777223811635 8.416686568809524)"  >
<g style=""  paint-order="stroke"   >
		<g transform="matrix(1 0 0 1 163.09999999999985 100.94999999999993)"  >
<path style="stroke: none; stroke-width: 1; stroke-dasharray: none; stroke-linecap: butt; stroke-dashoffset: 0; stroke-linejoin: miter; stroke-miterlimit: 4; fill: rgb(100,149,237); fill-rule: nonzero; opacity: 1;"  paint-order="stroke"  transform=" translate(-523.3499999999999, -485.54999999999995)" d="M 500.3 566.3 C 516.2 569.9 531.7 574.1999999999999 546.4 579 L 546.4 418.4 L 500.29999999999995 392.09999999999997 L 500.29999999999995 566.3 z" stroke-linecap="round" />
</g>
		<g transform="matrix(1 0 0 1 -163.60000000000008 100.94999999999999)"  >
<path style="stroke: none; stroke-width: 1; stroke-dasharray: none; stroke-linecap: butt; stroke-dashoffset: 0; stroke-linejoin: miter; stroke-miterlimit: 4; fill: rgb(100,149,237); fill-rule: nonzero; opacity: 1;"  paint-order="stroke"  transform=" translate(-196.64999999999998, -485.55)" d="M 173.6 418.2 L 173.6 579.1 C 188.4 574.2 203.79999999999998 570 219.7 566.4 L 219.7 392 L 188.79999999999998 409.5 L 173.6 418.2 z" stroke-linecap="round" />
</g>
		<g transform="matrix(1 0 0 1 0 -81.65000000000003)"  >
<path style="stroke: none; stroke-width: 1; stroke-dasharray: none; stroke-linecap: butt; stroke-dashoffset: 0; stroke-linejoin: miter; stroke-miterlimit: 4; fill: rgb(100,149,237); fill-rule: nonzero; opacity: 1;"  paint-order="stroke"  transform=" translate(-360.25000000000006, -302.95)" d="M 546.4 334.3 L 436.29999999999995 249.20000000000002 L 360 190.1 L 291.8 242.8 C 292.8 264.6 287.40000000000003 285.5 284.3 295.7 C 283 299.7 282.2 302.09999999999997 282.2 302.09999999999997 L 282.2 301.79999999999995 C 280.4 293.79999999999995 280.8 260.79999999999995 282.5 249.99999999999994 L 188.8 322.4 L 173.5 334.2 L 97.8 392.7 L 143.9 415.3 L 173.5 392.40000000000003 L 188.8 380.6 L 219.70000000000002 356.8 L 281.1 309.3 L 360 248.3 L 436.4 307.3 L 436.4 307.3 L 500.29999999999995 356.7 L 546.4 392.4 L 576.6 415.79999999999995 L 622.7 393.19999999999993 L 546.4 334.3 z" stroke-linecap="round" />
</g>
</g>
</g>
		<g transform="matrix(0.34125907460375066 0 0 0.34125907460375066 0 51.62008541364432)"  >
<g style=""  paint-order="stroke"   >
		<g transform="matrix(1 0 0 1 0 113.59999999999997)"  >
<path style="stroke: none; stroke-width: 1; stroke-dasharray: none; stroke-linecap: butt; stroke-dashoffset: 0; stroke-linejoin: miter; stroke-miterlimit: 4; fill: rgb(100,149,237); fill-rule: nonzero; opacity: 1;"  paint-order="stroke"  transform=" translate(-359.95, -624.8)" d="M 546.4 603 C 531.8 597.9 516.4 593.4 500.29999999999995 589.6 C 457.4 579.3000000000001 409.9 573.6 359.9 573.6 C 309.9 573.6 262.5 579.3000000000001 219.59999999999997 589.6 C 203.49999999999997 593.4 188.09999999999997 597.9 173.49999999999997 603 C 121.69999999999997 620.9 79.39999999999998 646.1 51.79999999999997 676 C 86.69999999999996 660.5 127.79999999999997 647.7 173.49999999999997 638.2 C 229.89999999999998 626.5 293.09999999999997 620 359.9 620 C 426.79999999999995 620 490 626.5 546.4 638.2 C 592.1 647.7 633.1999999999999 660.5 668.1 676 C 640.6 646.2 598.4 621 546.4 603 z" stroke-linecap="round" />
</g>
		<g transform="matrix(1 0 0 1 -35.849999999999966 -33.05000000000001)"  >
<rect style="stroke: none; stroke-width: 0; stroke-dasharray: none; stroke-linecap: butt; stroke-dashoffset: 0; stroke-linejoin: miter; stroke-miterlimit: 4; fill: rgb(100,149,237); fill-rule: nonzero; opacity: 1;"  paint-order="stroke"  x="-29.1" y="-39.45" rx="0" ry="0" width="58.2" height="78.9" />
</g>
		<g transform="matrix(1 0 0 1 35.950000000000045 -33.05000000000001)"  >
<rect style="stroke: none; stroke-width: 0; stroke-dasharray: none; stroke-linecap: butt; stroke-dashoffset: 0; stroke-linejoin: miter; stroke-miterlimit: 4; fill: rgb(100,149,237); fill-rule: nonzero; opacity: 1;"  paint-order="stroke"  x="-29.1" y="-39.45" rx="0" ry="0" width="58.2" height="78.9" />
</g>
		<g transform="matrix(1 0 0 1 -35.849999999999966 -125.85000000000002)"  >
<rect style="stroke: none; stroke-width: 0; stroke-dasharray: none; stroke-linecap: butt; stroke-dashoffset: 0; stroke-linejoin: miter; stroke-miterlimit: 4; fill: rgb(100,149,237); fill-rule: nonzero; opacity: 1;"  paint-order="stroke"  x="-29.1" y="-39.45" rx="0" ry="0" width="58.2" height="78.9" />
</g>
		<g transform="matrix(1 0 0 1 35.950000000000045 -125.85000000000002)"  >
<rect style="stroke: none; stroke-width: 0; stroke-dasharray: none; stroke-linecap: butt; stroke-dashoffset: 0; stroke-linejoin: miter; stroke-miterlimit: 4; fill: rgb(100,149,237); fill-rule: nonzero; opacity: 1;"  paint-order="stroke"  x="-29.1" y="-39.45" rx="0" ry="0" width="58.2" height="78.9" />
</g>
</g>
</g>
</g>
</g>
<g transform="matrix(1.9211538461538462 0 0 1.9211538461538462 795.1658392310584 604.5709321000343)" id="text-logo"  >
<g style=""  paint-order="stroke"   >
		<g transform="matrix(1 0 0 1 0 0)" id="text-logo-path-0"  >
<path style="stroke: rgb(255,255,255); stroke-width: 0; stroke-dasharray: none; stroke-linecap: butt; stroke-dashoffset: 0; stroke-linejoin: miter; stroke-miterlimit: 4; fill: rgb(3,119,185); fill-rule: nonzero; opacity: 1;"  paint-order="stroke"  transform=" translate(0, 0)" d="" stroke-linecap="round" />
</g>
</g>
</g>
<g transform="matrix(1.9211538461538462 0 0 1.9211538461538462 640.3866099071208 784.6809181549135)" id="tagline-cce6289f-b2cd-4389-8ffe-833ed72663db-logo"  >
<g style=""  paint-order="stroke"   >
		<g transform="matrix(1 0 0 1 0 0)" id="tagline-cce6289f-b2cd-4389-8ffe-833ed72663db-logo-path-0"  >
<path style="stroke: none; stroke-width: 0; stroke-dasharray: none; stroke-linecap: butt; stroke-dashoffset: 0; stroke-linejoin: miter; stroke-miterlimit: 4; fill: rgb(92,224,230); fill-rule: nonzero; opacity: 1;"  paint-order="stroke"  transform=" translate(0, 0)" d="" stroke-linecap="round" />
</g>
</g>
</g>
<g transform="matrix(1.9211538461538462 0 0 1.9211538461538462 999.1606037151703 612.8186101186102)" id="tagline-a742a4f2-0ab6-4b3d-8208-be8eb27ba66a-logo"  >
<g style=""  paint-order="stroke"   >
		<g transform="matrix(1 0 0 1 0 0)" id="tagline-a742a4f2-0ab6-4b3d-8208-be8eb27ba66a-logo-path-0"  >
<path style="stroke: none; stroke-width: 0; stroke-dasharray: none; stroke-linecap: butt; stroke-dashoffset: 0; stroke-linejoin: miter; stroke-miterlimit: 4; fill: rgb(255,255,255); fill-rule: nonzero; opacity: 1;"  paint-order="stroke"  transform=" translate(0, 0)" d="" stroke-linecap="round" />
</g>
</g>
</g>
</svg>