<?xml version="1.0" encoding="UTF-8" standalone="no" ?>
<!DOCTYPE svg PUBLIC "-//W3C//DTD SVG 1.1//EN" "http://www.w3.org/Graphics/SVG/1.1/DTD/svg11.dtd">
<svg xmlns="http://www.w3.org/2000/svg" xmlns:xlink="http://www.w3.org/1999/xlink" version="1.1" width="1280" height="1024" viewBox="0 0 1280 1024" xml:space="preserve">
<desc>Created with Fabric.js 4.4.0</desc>
<defs>
</defs>
<g transform="matrix(1 0 0 1 640 512)" id="background-logo"  >
<rect style="stroke: none; stroke-width: 0; stroke-dasharray: none; stroke-linecap: butt; stroke-dashoffset: 0; stroke-linejoin: miter; stroke-miterlimit: 4; fill: rgb(255,255,255); fill-opacity: 0; fill-rule: nonzero; opacity: 1;"  paint-order="stroke"  x="-640" y="-512" rx="0" ry="0" width="1280" height="1024" />
</g>
<g transform="matrix(1.4230998636086385 0 0 1.4230998636086383 261.07733942908123 512.2970561998216)" id="logo-logo"  >
<g style=""  paint-order="stroke"   >
		<g transform="matrix(0.34125907460375066 0 0 0.34125907460375066 -60.69825273351893 -62.552788374867475)"  >
<path style="stroke: none; stroke-width: 1; stroke-dasharray: none; stroke-linecap: butt; stroke-dashoffset: 0; stroke-linejoin: miter; stroke-miterlimit: 4; fill: rgb(55,182,255); fill-rule: nonzero; opacity: 1;"  paint-order="stroke"  transform=" translate(-182.08439216525443, -176.63637287570313)" d="M 282.5 250 C 283.5 259.8 283.9 269.6 283.7 279.4 C 283.7 280 283.7 280.59999999999997 283.7 281.2 C 283.5 288 283.09999999999997 294.8 282.2 301.7 L 282.2 302 C 281.9 304.4 281.5 306.9 281.2 309.4 L 252.5 300.7 C 255.9 291.09999999999997 256.7 280.9 255.5 270.9 C 254.9 265.79999999999995 253.8 260.79999999999995 252.1 255.89999999999998 C 248.9 246.09999999999997 244 235.99999999999997 236.1 228.79999999999998 C 226.6 220.2 215.29999999999998 220.49999999999997 203 220.6 C 182.3 220.6 163.4 210.7 148.9 197.2 C 133.8 183.29999999999998 125.4 157.6 116.30000000000001 140.79999999999998 C 104.1 118.3 89.9 108 75.6 102 C 75.39999999999999 101.9 75.5 101.6 75.69999999999999 101.6 C 82.49999999999999 100.6 145.89999999999998 87.8 203 125.39999999999999 C 220.4 136.89999999999998 233.4 151.89999999999998 240.6 171.5 C 243 178 243.7 186.1 241.7 192.9 C 240.79999999999998 195.9 238.79999999999998 198.70000000000002 236 200.3 C 231.5 202.9 226 203.10000000000002 220.9 202.60000000000002 C 215.8 202.10000000000002 210.8 200.90000000000003 205.9 199.3 C 173.7 188.9 144.5 154.20000000000002 127.7 130.9 C 128.2 132.20000000000002 128.8 133.4 129.4 134.70000000000002 C 131.20000000000002 138.50000000000003 133.20000000000002 142.20000000000002 135.3 145.8 C 138.4 151.20000000000002 141.8 156.4 145.5 161.4 C 150 167.5 155 173.3 160.3 178.8 C 166.3 184.8 172.8 190.4 179.9 195.20000000000002 C 190.3 202.3 202 208.00000000000003 214.4 211.10000000000002 C 225.20000000000002 213.8 236.9 215.00000000000003 245.20000000000002 222.70000000000002 C 255.4 232.10000000000002 259.5 246.20000000000002 261.3 259.20000000000005 C 261.5 257.40000000000003 261.6 255.60000000000005 261.8 253.80000000000004 C 263 239.10000000000005 263 224.30000000000004 262.1 209.60000000000002 C 261.6 200.8 260.8 192.10000000000002 259.70000000000005 183.40000000000003 C 258.70000000000005 174.80000000000004 257.40000000000003 167.00000000000003 251.60000000000005 160.10000000000002 C 246.80000000000004 154.40000000000003 240.50000000000006 149.90000000000003 236.40000000000006 143.60000000000002 C 231.50000000000006 136.3 229.20000000000007 127.70000000000002 228.50000000000006 119.10000000000002 C 227.50000000000006 106.40000000000002 234.90000000000006 90.70000000000002 238.00000000000006 79.00000000000003 C 242.20000000000005 63.40000000000003 240.00000000000006 52.800000000000026 235.90000000000006 44.10000000000003 C 235.80000000000007 44.00000000000003 236.00000000000006 43.80000000000003 236.20000000000007 43.90000000000003 C 246.70000000000007 50.60000000000003 256.4000000000001 57.70000000000003 264.70000000000005 67.00000000000003 C 284.70000000000005 89.30000000000003 296.50000000000006 122.80000000000003 282.70000000000005 150.8 C 274.20000000000005 167.9 260.1 152.8 253.90000000000003 142.5 C 243.10000000000002 124.5 245.70000000000005 96.8 248.00000000000003 78.8 C 244.60000000000002 88.1 242.70000000000002 98.19999999999999 241.80000000000004 108 C 240.90000000000003 119.9 241.80000000000004 132.4 247.20000000000005 143.4 C 250.70000000000005 150.5 256.80000000000007 156.4 260.50000000000006 163.6 C 263.6000000000001 169.9 265.6000000000001 176.6 267.90000000000003 183.29999999999998 C 275.2 204.9 280.4 227.3 282.5 250 z" stroke-linecap="round" />
</g>
		<g transform="matrix(0.34125907460375066 0 0 0.34125907460375066 0.1023777223811635 8.416686568809524)"  >
<g style=""  paint-order="stroke"   >
		<g transform="matrix(1 0 0 1 163.09999999999985 100.94999999999993)"  >
<path style="stroke: none; stroke-width: 1; stroke-dasharray: none; stroke-linecap: butt; stroke-dashoffset: 0; stroke-linejoin: miter; stroke-miterlimit: 4; fill: rgb(55,182,255); fill-rule: nonzero; opacity: 1;"  paint-order="stroke"  transform=" translate(-523.3499999999999, -485.54999999999995)" d="M 500.3 566.3 C 516.2 569.9 531.7 574.1999999999999 546.4 579 L 546.4 418.4 L 500.29999999999995 392.09999999999997 L 500.29999999999995 566.3 z" stroke-linecap="round" />
</g>
		<g transform="matrix(1 0 0 1 -163.60000000000008 100.94999999999999)"  >
<path style="stroke: none; stroke-width: 1; stroke-dasharray: none; stroke-linecap: butt; stroke-dashoffset: 0; stroke-linejoin: miter; stroke-miterlimit: 4; fill: rgb(55,182,255); fill-rule: nonzero; opacity: 1;"  paint-order="stroke"  transform=" translate(-196.64999999999998, -485.55)" d="M 173.6 418.2 L 173.6 579.1 C 188.4 574.2 203.79999999999998 570 219.7 566.4 L 219.7 392 L 188.79999999999998 409.5 L 173.6 418.2 z" stroke-linecap="round" />
</g>
		<g transform="matrix(1 0 0 1 0 -81.65000000000003)"  >
<path style="stroke: none; stroke-width: 1; stroke-dasharray: none; stroke-linecap: butt; stroke-dashoffset: 0; stroke-linejoin: miter; stroke-miterlimit: 4; fill: rgb(55,182,255); fill-rule: nonzero; opacity: 1;"  paint-order="stroke"  transform=" translate(-360.25000000000006, -302.95)" d="M 546.4 334.3 L 436.29999999999995 249.20000000000002 L 360 190.1 L 291.8 242.8 C 292.8 264.6 287.40000000000003 285.5 284.3 295.7 C 283 299.7 282.2 302.09999999999997 282.2 302.09999999999997 L 282.2 301.79999999999995 C 280.4 293.79999999999995 280.8 260.79999999999995 282.5 249.99999999999994 L 188.8 322.4 L 173.5 334.2 L 97.8 392.7 L 143.9 415.3 L 173.5 392.40000000000003 L 188.8 380.6 L 219.70000000000002 356.8 L 281.1 309.3 L 360 248.3 L 436.4 307.3 L 436.4 307.3 L 500.29999999999995 356.7 L 546.4 392.4 L 576.6 415.79999999999995 L 622.7 393.19999999999993 L 546.4 334.3 z" stroke-linecap="round" />
</g>
</g>
</g>
		<g transform="matrix(0.34125907460375066 0 0 0.34125907460375066 0 51.62008541364432)"  >
<g style=""  paint-order="stroke"   >
		<g transform="matrix(1 0 0 1 0 113.59999999999997)"  >
<path style="stroke: none; stroke-width: 1; stroke-dasharray: none; stroke-linecap: butt; stroke-dashoffset: 0; stroke-linejoin: miter; stroke-miterlimit: 4; fill: rgb(55,182,255); fill-rule: nonzero; opacity: 1;"  paint-order="stroke"  transform=" translate(-359.95, -624.8)" d="M 546.4 603 C 531.8 597.9 516.4 593.4 500.29999999999995 589.6 C 457.4 579.3000000000001 409.9 573.6 359.9 573.6 C 309.9 573.6 262.5 579.3000000000001 219.59999999999997 589.6 C 203.49999999999997 593.4 188.09999999999997 597.9 173.49999999999997 603 C 121.69999999999997 620.9 79.39999999999998 646.1 51.79999999999997 676 C 86.69999999999996 660.5 127.79999999999997 647.7 173.49999999999997 638.2 C 229.89999999999998 626.5 293.09999999999997 620 359.9 620 C 426.79999999999995 620 490 626.5 546.4 638.2 C 592.1 647.7 633.1999999999999 660.5 668.1 676 C 640.6 646.2 598.4 621 546.4 603 z" stroke-linecap="round" />
</g>
		<g transform="matrix(1 0 0 1 -35.849999999999966 -33.05000000000001)"  >
<rect style="stroke: none; stroke-width: 0; stroke-dasharray: none; stroke-linecap: butt; stroke-dashoffset: 0; stroke-linejoin: miter; stroke-miterlimit: 4; fill: rgb(55,182,255); fill-rule: nonzero; opacity: 1;"  paint-order="stroke"  x="-29.1" y="-39.45" rx="0" ry="0" width="58.2" height="78.9" />
</g>
		<g transform="matrix(1 0 0 1 35.950000000000045 -33.05000000000001)"  >
<rect style="stroke: none; stroke-width: 0; stroke-dasharray: none; stroke-linecap: butt; stroke-dashoffset: 0; stroke-linejoin: miter; stroke-miterlimit: 4; fill: rgb(55,182,255); fill-rule: nonzero; opacity: 1;"  paint-order="stroke"  x="-29.1" y="-39.45" rx="0" ry="0" width="58.2" height="78.9" />
</g>
		<g transform="matrix(1 0 0 1 -35.849999999999966 -125.85000000000002)"  >
<rect style="stroke: none; stroke-width: 0; stroke-dasharray: none; stroke-linecap: butt; stroke-dashoffset: 0; stroke-linejoin: miter; stroke-miterlimit: 4; fill: rgb(55,182,255); fill-rule: nonzero; opacity: 1;"  paint-order="stroke"  x="-29.1" y="-39.45" rx="0" ry="0" width="58.2" height="78.9" />
</g>
		<g transform="matrix(1 0 0 1 35.950000000000045 -125.85000000000002)"  >
<rect style="stroke: none; stroke-width: 0; stroke-dasharray: none; stroke-linecap: butt; stroke-dashoffset: 0; stroke-linejoin: miter; stroke-miterlimit: 4; fill: rgb(55,182,255); fill-rule: nonzero; opacity: 1;"  paint-order="stroke"  x="-29.1" y="-39.45" rx="0" ry="0" width="58.2" height="78.9" />
</g>
</g>
</g>
</g>
</g>
<g transform="matrix(1.9211538461538462 0 0 1.9211538461538462 832.3270738227183 540.6978797430613)" id="text-logo"  >
<g style=""  paint-order="stroke"   >
		<g transform="matrix(1 0 0 1 0 0)" id="text-logo-path-0"  >
<path style="stroke: rgb(255,255,255); stroke-width: 0; stroke-dasharray: none; stroke-linecap: butt; stroke-dashoffset: 0; stroke-linejoin: miter; stroke-miterlimit: 4; fill: rgb(55,182,255); fill-rule: nonzero; opacity: 1;"  paint-order="stroke"  transform=" translate(-217.585, 21.355)" d="M 5.06 -39.04 L 5.06 -3.66 L 2.01 -3.05 L 2.01 0 L 13.6 0 L 13.6 -3.05 L 10.55 -3.66 L 10.55 -20.13 L 33.12 -20.13 L 33.12 -3.66 L 30.07 -3.05 L 30.07 0 L 41.66 0 L 41.66 -3.05 L 38.61 -3.66 L 38.61 -39.04 L 41.66 -39.65 L 41.66 -42.7 L 30.07 -42.7 L 30.07 -39.65 L 33.12 -39.04 L 33.12 -24.4 L 10.55 -24.4 L 10.55 -39.04 L 13.6 -39.65 L 13.6 -42.7 L 2.01 -42.7 L 2.01 -39.65 Z M 71.37 0.3 C 79.85 0.3 85.52 -5.55 85.52 -15.31 C 85.52 -24.58 80.22 -30.8 71.37 -30.8 C 62.71 -30.8 57.03 -25.07 57.03 -15.31 C 57.03 -5.98 62.46 0.3 71.37 0.3 Z M 62.52 -15.31 C 62.52 -22.51 66 -26.78 71.37 -26.78 C 76.74 -26.78 80.03 -22.2 80.03 -15.31 C 80.03 -8.05 76.55 -3.78 71.37 -3.78 C 65.82 -3.78 62.52 -8.36 62.52 -15.31 Z M 122.67 -20.07 L 122.67 0 L 131.21 0 L 131.21 -3.05 L 128.16 -3.66 L 128.16 -20.07 C 128.16 -23.12 131.88 -26.41 134.93 -26.41 C 138.9 -26.41 140.91 -24.03 140.91 -20.07 L 140.91 0 L 149.45 0 L 149.45 -3.05 L 146.4 -3.66 L 146.4 -20.07 C 146.4 -26.29 142.86 -30.8 136.7 -30.8 C 132.8 -30.8 129.08 -27.94 127.31 -24.95 C 125.9 -28.49 122.85 -30.8 118.46 -30.8 C 114.19 -30.8 111.75 -28.49 109.62 -26.11 L 109.07 -30.5 L 101.14 -30.5 L 101.14 -27.45 L 104.19 -26.84 L 104.19 -3.66 L 101.14 -3.05 L 101.14 0 L 112.73 0 L 112.73 -3.05 L 109.68 -3.66 L 109.68 -22.14 C 111.51 -24.4 113.89 -26.41 116.69 -26.41 C 120.66 -26.41 122.67 -24.03 122.67 -20.07 Z M 179.34 0.3 C 184.71 0.3 187.76 -1.4 191.48 -3.96 L 188.92 -7.14 C 185.38 -4.7 183.18 -3.78 179.34 -3.78 C 173.18 -3.78 169.89 -8.36 169.89 -15.25 L 191.24 -15.25 C 191.72 -25.01 187.39 -30.8 178.73 -30.8 C 170.07 -30.8 164.4 -25.07 164.4 -15.31 C 164.4 -5.98 170.43 0.3 179.34 0.3 Z M 170.19 -18.91 C 171.23 -23.91 174.34 -26.78 178.73 -26.78 C 183.92 -26.78 186.17 -23.48 186.29 -18.91 Z M 240.22 -38.73 C 237.05 -41.54 232.29 -43.01 226.55 -43.01 C 214.48 -43.01 206.61 -35.01 206.61 -21.41 C 206.61 -8.42 214.17 0.3 226.55 0.3 C 232.71 0.3 237.72 -1.83 241.32 -5.25 L 241.32 -21.35 L 225.39 -21.35 L 225.39 -17.08 L 235.83 -17.08 L 235.83 -6.34 C 233.2 -5.06 229.97 -4.51 226.55 -4.51 C 217.53 -4.51 212.1 -11.29 212.1 -21.41 C 212.1 -31.96 217.77 -38.19 226.55 -38.19 C 230.58 -38.19 233.93 -37.33 236.56 -35.38 L 237.17 -31.11 L 240.22 -31.11 Z M 257.79 0 L 269.38 0 L 269.38 -3.05 L 266.33 -3.66 L 266.33 -20.37 C 267.3 -22.88 270.17 -26.41 274.01 -26.41 C 275.29 -26.41 276.82 -26.17 278.59 -25.25 L 279.44 -30.01 C 278.22 -30.5 276.82 -30.8 275.29 -30.8 C 271.39 -30.8 267.97 -27.45 266.33 -24.83 L 266.33 -25.86 L 265.72 -30.5 L 257.79 -30.5 L 257.79 -27.45 L 260.84 -26.84 L 260.84 -3.66 L 257.79 -3.05 Z M 307.32 0.3 C 315.8 0.3 321.47 -5.55 321.47 -15.31 C 321.47 -24.58 316.16 -30.8 307.32 -30.8 C 298.66 -30.8 292.98 -25.07 292.98 -15.31 C 292.98 -5.98 298.41 0.3 307.32 0.3 Z M 298.47 -15.31 C 298.47 -22.51 301.95 -26.78 307.32 -26.78 C 312.69 -26.78 315.98 -22.2 315.98 -15.31 C 315.98 -8.05 312.5 -3.78 307.32 -3.78 C 301.77 -3.78 298.47 -8.36 298.47 -15.31 Z M 337.63 -26.84 L 346.78 0 L 352.27 0 L 360.08 -22.88 L 367.83 0 L 373.32 0 L 382.47 -26.84 L 385.82 -27.45 L 385.82 -30.5 L 374.23 -30.5 L 374.23 -27.45 L 377.04 -26.84 L 370.57 -6.65 L 362.95 -30.5 L 357.15 -30.5 L 349.53 -6.65 L 343.06 -26.84 L 345.87 -27.45 L 345.87 -30.5 L 334.28 -30.5 L 334.28 -27.45 Z M 424.62 -20.07 L 424.62 0 L 433.16 0 L 433.16 -3.05 L 430.11 -3.66 L 430.11 -20.07 C 430.11 -26.29 425.96 -30.8 419.8 -30.8 C 415.53 -30.8 412.05 -28.49 409.8 -26.11 L 409.19 -30.5 L 401.26 -30.5 L 401.26 -27.45 L 404.31 -26.84 L 404.31 -3.66 L 401.26 -3.05 L 401.26 0 L 412.85 0 L 412.85 -3.05 L 409.8 -3.66 L 409.8 -22.02 C 412.18 -24.34 414.56 -26.41 418.03 -26.41 C 422.24 -26.41 424.62 -24.03 424.62 -20.07 Z" stroke-linecap="round" />
</g>
</g>
</g>
<g transform="matrix(1.9211538461538462 0 0 1.9211538461538462 819.4345695807315 561.1951312045999)" id="tagline-cce6289f-b2cd-4389-8ffe-833ed72663db-logo"  >
<g style=""  paint-order="stroke"   >
		<g transform="matrix(1 0 0 1 0 0)" id="tagline-cce6289f-b2cd-4389-8ffe-833ed72663db-logo-path-0"  >
<path style="stroke: none; stroke-width: 0; stroke-dasharray: none; stroke-linecap: butt; stroke-dashoffset: 0; stroke-linejoin: miter; stroke-miterlimit: 4; fill: rgb(92,224,230); fill-rule: nonzero; opacity: 1;"  paint-order="stroke"  transform=" translate(0, 0)" d="" stroke-linecap="round" />
</g>
</g>
</g>
<g transform="matrix(1.9211538461538462 0 0 1.9211538461538462 819.4345695807315 548.9273835511713)" id="tagline-a742a4f2-0ab6-4b3d-8208-be8eb27ba66a-logo"  >
<g style=""  paint-order="stroke"   >
		<g transform="matrix(1 0 0 1 0 0)" id="tagline-a742a4f2-0ab6-4b3d-8208-be8eb27ba66a-logo-path-0"  >
<path style="stroke: none; stroke-width: 0; stroke-dasharray: none; stroke-linecap: butt; stroke-dashoffset: 0; stroke-linejoin: miter; stroke-miterlimit: 4; fill: rgb(255,255,255); fill-rule: nonzero; opacity: 1;"  paint-order="stroke"  transform=" translate(0, 0)" d="" stroke-linecap="round" />
</g>
</g>
</g>
</svg>