<svg xmlns="http://www.w3.org/2000/svg" version="1.0" viewBox="0 0 300.000000 163.000000"
  preserveAspectRatio="xMidYMid meet">
  <metadata>
    Created by potrace 1.10, written by Peter Selinger 2001-2011
  </metadata>
  <g transform="translate(0.000000,163.000000) scale(0.100000,-0.100000)" fill="#000000" stroke="none">
    <path
      d="M6 1614 c-18 -47 -2 -88 37 -95 16 -4 14 -8 -14 -36 -17 -18 -29 -33 -25 -33 3 0 21 15 40 34 l33 35 153 0 152 1 -16 -25 c-12 -19 -13 -23 -2 -19 8 3 16 14 19 24 4 15 15 18 67 19 35 0 67 4 71 8 4 4 -108 8 -249 8 l-257 0 0 40 0 40 336 3 336 2 6 -36 c4 -21 4 -41 1 -46 -3 -4 -34 -8 -70 -8 -54 0 -63 -2 -52 -14 9 -10 17 -11 30 -2 13 8 21 7 30 -2 6 -6 17 -12 22 -12 6 0 4 5 -4 10 -11 7 -7 10 17 10 38 0 44 7 46 60 1 35 4 40 24 40 13 0 23 -2 23 -4 0 -15 -14 -36 -24 -36 -6 0 -12 -10 -13 -22 0 -13 1 -17 4 -10 8 19 20 14 27 -12 5 -22 9 -23 41 -16 20 4 35 4 35 -1 0 -5 7 -9 15 -9 8 0 15 4 15 9 0 5 11 8 25 5 14 -2 25 0 25 5 0 16 -22 24 -30 11 -5 -8 -9 -7 -13 5 -4 9 -3 13 3 10 6 -3 10 -1 10 5 0 6 8 10 18 8 9 -2 17 -9 17 -16 0 -6 3 -12 8 -12 11 0 11 3 -12 41 -19 33 -27 37 -74 42 -28 3 -226 6 -438 6 -346 1 -387 0 -393 -15z m799 -11 c-4 -10 -7 -30 -6 -45 1 -22 -3 -28 -20 -28 -19 0 -21 4 -15 32 7 34 23 58 38 58 6 0 7 -8 3 -17z m85 -7 c8 -11 3 -15 -21 -20 -18 -3 -34 -4 -37 -1 -3 3 2 5 11 5 10 0 17 4 17 9 0 5 -9 7 -20 4 -11 -3 -20 -11 -20 -18 0 -7 9 -15 20 -18 23 -6 27 -27 5 -27 -18 0 -40 43 -32 63 7 18 62 20 77 3z" />
    <path
      d="M1076 1618 c9 -15 25 -95 25 -125 -1 -12 8 -27 19 -33 24 -13 26 -38 5 -46 -17 -7 -20 -40 -5 -49 6 -3 10 -17 10 -29 0 -13 7 -29 15 -36 8 -7 15 -18 15 -24 0 -13 59 -38 71 -30 5 2 11 20 15 39 3 20 10 38 15 41 5 3 7 10 4 15 -3 5 8 17 25 28 17 10 38 28 46 40 8 11 21 21 28 21 15 0 76 56 76 70 0 6 -7 10 -16 10 -18 0 -14 22 6 28 8 3 10 0 5 -8 -5 -8 -4 -11 2 -7 6 4 8 17 6 31 -3 13 0 27 6 30 6 4 11 17 10 29 l0 22 -9 -23 c-9 -22 -10 -22 -36 -5 l-26 17 7 -32 c6 -28 4 -32 -15 -32 -12 0 -19 -4 -15 -10 9 -14 54 10 48 26 -3 8 0 14 6 14 6 0 11 -6 11 -12 -1 -20 -26 -49 -35 -40 -5 4 -5 -1 -2 -11 5 -13 2 -17 -10 -15 -9 2 -18 -3 -21 -10 -3 -10 5 -12 34 -7 l39 7 -35 -31 c-19 -17 -42 -31 -51 -31 -8 0 -26 -14 -38 -31 -15 -20 -26 -27 -30 -20 -5 7 -12 1 -20 -16 -8 -16 -17 -36 -22 -45 -5 -10 -9 -32 -9 -49 0 -30 -1 -31 -17 -17 -10 9 -23 14 -29 11 -7 -2 -15 9 -19 24 -3 15 -12 31 -18 35 -9 5 -8 8 2 8 11 0 8 6 -7 20 -18 17 -20 24 -9 40 6 11 14 20 18 20 3 0 4 21 2 46 -4 50 -23 98 -31 76 -2 -6 -8 -12 -13 -12 -12 0 -11 28 1 32 13 4 -17 68 -31 68 -6 0 -7 -5 -3 -12z m59 -108 c3 -5 1 -18 -4 -27 -11 -20 -12 -19 -16 15 -2 23 9 30 20 12z" />
    <path d="M2198 1612 c17 -19 32 -19 32 -1 0 6 -4 8 -9 4 -5 -3 -12 -1 -16 5 -3 5 -10 10 -16 10 -5 0 -1 -8 9 -18z" />
    <path d="M2475 1620 c-18 -8 -17 -9 8 -9 15 -1 27 4 27 9 0 12 -8 12 -35 0z" />
    <path d="M2537 1623 c-3 -5 6 -9 20 -10 19 -1 22 1 12 8 -17 11 -26 11 -32 2z" />
    <path
      d="M2634 1621 c3 -5 -1 -14 -10 -21 -8 -7 -13 -19 -10 -26 3 -7 1 -14 -4 -16 -6 -2 -5 -9 0 -18 8 -13 10 -12 10 4 0 11 5 16 13 13 8 -3 14 1 14 9 0 8 -6 13 -14 10 -7 -3 -13 -2 -13 3 0 14 26 31 36 23 4 -4 2 1 -5 11 -14 17 -27 24 -17 8z" />
    <path d="M2689 1613 c-13 -16 -12 -17 4 -4 16 13 21 21 13 21 -2 0 -10 -8 -17 -17z" />
    <path
      d="M2713 1608 c-18 -20 -17 -20 5 -14 14 5 22 3 22 -5 0 -7 3 -9 6 -6 4 4 1 14 -7 24 -13 15 -12 16 6 9 11 -5 32 -8 47 -7 22 1 29 -4 34 -24 8 -31 34 -33 34 -3 0 12 -3 18 -7 15 -3 -4 -14 0 -24 9 -28 25 -94 26 -116 2z" />
    <path d="M2164 1579 c-12 -25 -13 -34 -3 -43 9 -8 10 -8 5 1 -4 7 0 26 9 43 8 16 13 30 11 30 -3 0 -13 -14 -22 -31z" />
    <path d="M2353 1595 c0 -8 4 -15 9 -15 4 0 8 4 8 9 0 6 -4 12 -8 15 -5 3 -9 -1 -9 -9z" />
    <path
      d="M2437 1604 c-7 -7 2 -34 18 -54 7 -8 11 -25 10 -38 -1 -13 1 -25 5 -27 4 -3 6 6 5 18 0 12 2 30 7 39 6 13 5 16 -7 12 -15 -6 -38 33 -28 49 5 8 -1 9 -10 1z" />
    <path
      d="M2906 1603 c-3 -3 -6 -17 -6 -30 0 -16 6 -23 19 -23 15 0 18 5 14 23 -4 18 -3 19 6 7 7 -10 11 -11 11 -3 0 15 -35 35 -44 26z" />
    <path
      d="M2316 1557 c-9 -23 -16 -49 -16 -56 0 -9 -8 -11 -27 -6 -32 8 -31 6 19 -24 l37 -22 -12 30 c-8 22 -8 36 0 53 14 28 26 68 20 68 -2 0 -12 -19 -21 -43z" />
    <path d="M2776 1591 c-12 -5 -15 -10 -9 -14 6 -4 16 0 23 8 14 17 13 17 -14 6z" />
    <path d="M50 1575 c0 -8 7 -15 15 -15 8 0 15 7 15 15 0 8 -7 15 -15 15 -8 0 -15 -7 -15 -15z" />
    <path d="M168 1582 c-79 -5 -54 -20 32 -20 44 0 80 3 80 8 0 10 -52 16 -112 12z" />
    <path d="M542 1578 c2 -6 10 -14 16 -16 7 -2 10 2 6 12 -7 18 -28 22 -22 4z" />
    <path d="M635 1581 c-7 -12 12 -24 25 -16 11 7 4 25 -10 25 -5 0 -11 -4 -15 -9z" />
    <path d="M290 1572 c0 -4 14 -9 30 -10 17 -1 30 2 30 8 0 5 -13 10 -30 10 -16 0 -30 -4 -30 -8z" />
    <path
      d="M2399 1559 c-9 -17 -8 -23 2 -30 8 -5 19 -7 26 -4 6 2 14 0 17 -6 2 -5 3 -4 2 3 -2 7 -10 12 -19 10 -8 -1 -18 2 -22 8 -3 5 -2 10 3 10 5 0 9 7 9 15 0 20 -4 19 -18 -6z" />
    <path d="M2201 1554 c0 -11 3 -14 6 -6 3 7 2 16 -1 19 -3 4 -6 -2 -5 -13z" />
    <path d="M2340 1554 c0 -8 5 -12 10 -9 6 4 8 11 5 16 -9 14 -15 11 -15 -7z" />
    <path
      d="M2367 1558 c-2 -7 -1 -38 3 -68 8 -64 -3 -92 -35 -84 -14 3 -27 -1 -35 -13 -12 -15 -12 -16 0 -5 16 14 44 16 35 3 -3 -5 0 -13 6 -17 8 -4 9 -3 5 4 -9 15 6 16 22 2 8 -7 9 -7 4 0 -9 11 17 79 31 80 4 0 7 -9 7 -20 0 -11 4 -20 10 -20 6 0 6 9 1 23 -5 12 -16 21 -24 21 -11 -1 -16 10 -19 38 -2 22 0 42 4 44 11 7 10 24 -1 24 -5 0 -11 -6 -14 -12z" />
    <path d="M2967 1544 c2 -7 11 -10 19 -7 19 7 18 10 -5 16 -13 3 -18 1 -14 -9z" />
    <path d="M2855 1541 c-3 -5 0 -13 6 -17 7 -4 9 -3 5 4 -3 5 0 13 6 15 9 4 10 6 1 6 -6 1 -14 -3 -18 -8z" />
    <path d="M945 1530 c-3 -5 1 -13 10 -16 22 -9 29 1 11 15 -10 8 -16 9 -21 1z" />
    <path
      d="M2653 1521 c-17 -11 -33 -17 -36 -14 -12 11 0 -26 13 -41 10 -14 15 -14 21 -4 14 21 10 26 -13 20 -14 -3 -19 -2 -14 6 4 7 14 12 22 12 8 0 14 5 14 10 0 6 7 10 15 10 8 0 15 5 15 10 0 13 0 13 -37 -9z" />
    <path d="M2715 1530 c-3 -5 -2 -10 4 -10 5 0 13 5 16 10 3 6 2 10 -4 10 -5 0 -13 -4 -16 -10z" />
    <path d="M2935 1530 c-3 -5 -1 -10 4 -10 6 0 11 5 11 10 0 6 -2 10 -4 10 -3 0 -8 -4 -11 -10z" />
    <path d="M720 1520 c-20 -12 -10 -19 14 -10 11 3 15 9 10 13 -6 3 -16 2 -24 -3z" />
    <path d="M1870 1509 c-22 -18 -22 -19 -3 -10 12 6 25 16 28 21 9 15 3 12 -25 -11z" />
    <path d="M2570 1520 c0 -5 7 -10 16 -10 8 0 12 5 9 10 -3 6 -10 10 -16 10 -5 0 -9 -4 -9 -10z" />
    <path
      d="M902 1513 c-10 -4 -10 -10 3 -29 9 -14 11 -24 5 -24 -6 0 -8 -4 -5 -10 3 -5 11 -10 16 -10 6 0 8 4 5 9 -3 5 1 14 9 21 8 7 15 16 15 21 0 12 -33 27 -48 22z m34 -30 c-7 -7 -26 7 -26 19 0 6 6 6 15 -2 9 -7 13 -15 11 -17z" />
    <path d="M2526 1505 c-11 -8 -18 -17 -15 -19 2 -2 15 4 28 15 27 22 15 26 -13 4z" />
    <path d="M126 1501 c-4 -5 -2 -12 3 -15 5 -4 12 -2 15 3 4 5 2 12 -3 15 -5 4 -12 2 -15 -3z" />
    <path d="M195 1500 c27 -12 43 -12 25 0 -8 5 -22 9 -30 9 -10 0 -8 -3 5 -9z" />
    <path
      d="M503 1503 c28 -4 35 -17 16 -29 -6 -3 -16 -1 -22 5 -14 14 -37 14 -37 1 0 -5 3 -10 8 -9 22 3 53 -15 47 -29 -4 -11 1 -13 23 -9 17 3 35 1 43 -6 11 -10 11 -9 1 4 -10 14 -9 18 4 23 9 3 22 2 29 -4 8 -6 18 -5 31 5 12 9 14 14 6 15 -7 0 -11 4 -8 9 11 17 -38 28 -64 14 -14 -7 -19 -13 -12 -13 22 0 8 -23 -17 -27 -19 -3 -21 0 -15 19 4 13 12 26 18 30 6 4 -9 7 -34 6 -29 -1 -35 -2 -17 -5z m131 -29 c7 -18 -18 -19 -32 -1 -8 10 -6 13 8 14 10 1 21 -5 24 -13z" />
    <path
      d="M679 1494 c-6 -8 -9 -17 -5 -21 3 -3 6 -1 6 7 0 10 3 10 15 0 9 -7 14 -19 11 -27 -3 -7 -2 -13 3 -13 17 0 17 35 0 52 -15 14 -19 15 -30 2z" />
    <path d="M2691 1494 c0 -11 3 -14 6 -6 3 7 2 16 -1 19 -3 4 -6 -2 -5 -13z" />
    <path d="M2780 1501 c0 -5 7 -11 14 -14 10 -4 13 -1 9 9 -6 15 -23 19 -23 5z" />
    <path d="M2916 1488 c-8 -31 -7 -48 2 -48 4 0 8 8 8 18 1 9 4 25 9 35 4 9 3 17 -3 17 -5 0 -12 -10 -16 -22z" />
    <path
      d="M247 1483 c5 -13 2 -15 -15 -11 -12 4 -22 3 -22 -2 0 -7 -22 -16 -44 -18 -5 0 -13 -7 -17 -15 -5 -9 -19 -13 -36 -11 -17 2 -20 1 -8 -2 11 -4 26 -11 33 -17 10 -8 12 -7 10 3 -2 9 17 21 52 34 30 11 58 24 62 30 4 6 13 4 24 -5 13 -11 18 -11 21 -1 3 6 11 12 18 12 8 0 16 4 19 9 4 5 -3 7 -14 4 -11 -3 -23 -10 -26 -15 -3 -5 -11 -5 -17 0 -7 5 -20 12 -29 15 -13 4 -15 2 -11 -10z" />
    <path d="M401 1488 c-2 -27 15 -29 35 -5 l19 22 -22 -18 c-21 -18 -21 -18 -26 0 -4 15 -5 16 -6 1z" />
    <path d="M870 1490 c0 -5 5 -10 11 -10 5 0 7 5 4 10 -3 6 -8 10 -11 10 -2 0 -4 -4 -4 -10z" />
    <path
      d="M1903 1483 c-3 -10 -8 -22 -11 -27 -3 -5 0 -6 6 -2 7 4 12 13 12 21 0 7 6 16 13 18 9 4 9 6 -1 6 -7 1 -15 -7 -19 -16z" />
    <path d="M1945 1491 c3 -6 -3 -14 -12 -20 -10 -6 -13 -11 -7 -11 12 0 34 20 34 32 0 4 -5 8 -11 8 -5 0 -8 -4 -4 -9z" />
    <path d="M2415 1490 c-3 -6 1 -7 9 -4 18 7 21 14 7 14 -6 0 -13 -4 -16 -10z" />
    <path d="M2560 1480 c6 -11 13 -20 16 -20 2 0 0 9 -6 20 -6 11 -13 20 -16 20 -2 0 0 -9 6 -20z" />
    <path d="M2882 1488 c-13 -17 -27 -66 -15 -53 10 11 34 65 29 65 -2 0 -8 -6 -14 -12z" />
    <path d="M828 1483 c7 -3 16 -2 19 1 4 3 -2 6 -13 5 -11 0 -14 -3 -6 -6z" />
    <path d="M2121 1474 c0 -11 3 -14 6 -6 3 7 2 16 -1 19 -3 4 -6 -2 -5 -13z" />
    <path d="M2234 1469 c0 -10 4 -19 8 -19 4 0 8 6 8 14 0 8 -4 17 -8 20 -4 2 -8 -4 -8 -15z" />
    <path d="M2970 1480 c0 -5 5 -10 11 -10 5 0 7 5 4 10 -3 6 -8 10 -11 10 -2 0 -4 -4 -4 -10z" />
    <path
      d="M975 1471 c6 -10 4 -13 -6 -9 -10 4 -14 -4 -15 -33 -1 -22 3 -39 8 -39 5 0 6 5 3 10 -3 6 -2 10 4 10 6 0 13 -11 17 -25 9 -34 20 -31 28 8 7 30 8 31 21 13 8 -11 15 -16 15 -10 0 5 -19 27 -42 49 -23 22 -38 34 -33 26z m25 -74 c-10 -9 -11 -9 -6 0 4 7 -2 14 -14 18 -17 5 -19 9 -9 21 10 12 14 11 27 -7 11 -17 12 -23 2 -32z" />
    <path
      d="M1840 1472 c0 -4 9 -13 20 -20 27 -16 29 -75 3 -65 -10 3 -15 3 -12 -1 4 -4 15 -8 26 -10 18 -4 19 -1 13 34 -4 21 -14 46 -23 54 -17 17 -27 20 -27 8z" />
    <path
      d="M2534 1472 c3 -6 -3 -16 -14 -22 -11 -6 -20 -16 -20 -22 0 -6 8 -4 18 5 22 20 37 11 19 -12 -11 -14 -10 -15 7 -1 15 11 20 12 23 3 3 -9 10 -10 23 -3 11 6 21 6 24 1 4 -5 0 -12 -6 -14 -10 -4 -10 -6 -1 -6 7 -1 17 8 23 19 9 16 8 19 -7 13 -12 -5 -15 -2 -10 10 3 8 -1 21 -9 28 -12 9 -13 9 -9 -2 2 -8 1 -20 -3 -27 -10 -15 -42 -5 -42 13 0 8 -5 17 -12 21 -7 4 -8 3 -4 -4z" />
    <path d="M782 1445 c0 -16 2 -22 5 -12 2 9 2 23 0 30 -3 6 -5 -1 -5 -18z" />
    <path d="M1620 1466 c0 -8 60 -12 72 -4 8 4 -4 8 -29 8 -24 0 -43 -2 -43 -4z" />
    <path d="M1718 1463 c7 -3 16 -2 19 1 4 3 -2 6 -13 5 -11 0 -14 -3 -6 -6z" />
    <path d="M2033 1448 c31 -27 34 -43 10 -58 -11 -7 -12 -10 -4 -7 42 10 35 55 -13 78 -15 7 -13 3 7 -13z" />
    <path d="M2698 1463 c7 -3 16 -2 19 1 4 3 -2 6 -13 5 -11 0 -14 -3 -6 -6z" />
    <path d="M317 1453 c-4 -3 -7 -11 -7 -17 0 -6 5 -5 12 2 6 6 9 14 7 17 -3 3 -9 2 -12 -2z" />
    <path d="M670 1449 c0 -5 5 -7 10 -4 6 3 10 8 10 11 0 2 -4 4 -10 4 -5 0 -10 -5 -10 -11z" />
    <path d="M836 1447 c3 -10 9 -15 12 -12 3 3 0 11 -7 18 -10 9 -11 8 -5 -6z" />
    <path d="M2140 1450 c0 -5 7 -7 15 -4 8 4 15 8 15 10 0 2 -7 4 -15 4 -8 0 -15 -4 -15 -10z" />
    <path d="M2175 1440 c-10 -11 -16 -22 -14 -24 2 -2 12 7 22 20 22 29 17 32 -8 4z" />
    <path d="M2437 1453 c-3 -5 4 -15 16 -23 21 -12 21 -12 7 6 -8 10 -15 20 -16 22 -1 2 -4 -1 -7 -5z" />
    <path
      d="M1810 1438 c0 -6 -3 -8 -7 -5 -7 7 -32 -22 -32 -38 0 -5 4 -2 10 8 5 9 15 17 20 17 6 0 7 -6 3 -12 -4 -8 -3 -10 2 -5 5 5 9 12 9 15 0 4 4 13 8 20 5 7 4 12 -2 12 -6 0 -11 -5 -11 -12z" />
    <path d="M1975 1439 c-4 -6 -4 -13 -1 -16 3 -4 6 -1 6 6 0 7 5 9 12 5 7 -4 8 -3 4 4 -9 15 -13 15 -21 1z" />
    <path d="M2290 1440 c0 -5 5 -10 11 -10 5 0 7 5 4 10 -3 6 -8 10 -11 10 -2 0 -4 -4 -4 -10z" />
    <path d="M2340 1440 c-9 -6 -10 -10 -3 -10 6 0 15 5 18 10 8 12 4 12 -15 0z" />
    <path d="M0 1435 c0 -7 30 -13 34 -7 3 4 -4 9 -15 9 -10 1 -19 0 -19 -2z" />
    <path d="M250 1414 c0 -14 4 -23 9 -20 5 3 7 15 4 26 -7 28 -13 25 -13 -6z" />
    <path d="M2970 1436 c0 -2 7 -7 16 -10 8 -3 12 -2 9 4 -6 10 -25 14 -25 6z" />
    <path d="M350 1420 c-13 -8 -12 -10 3 -10 9 0 17 5 17 10 0 12 -1 12 -20 0z" />
    <path
      d="M460 1415 c-7 -8 -19 -15 -26 -15 -8 0 -14 -4 -14 -10 0 -5 7 -7 15 -3 9 3 23 -3 31 -13 9 -11 13 -13 9 -6 -3 6 -1 12 4 12 6 0 11 4 11 10 0 5 -8 6 -17 3 -16 -6 -16 -5 -4 10 7 9 18 14 24 10 6 -3 7 -1 3 5 -10 16 -21 15 -36 -3z" />
    <path d="M916 1415 c4 -8 8 -15 10 -15 2 0 4 7 4 15 0 8 -4 15 -10 15 -5 0 -7 -7 -4 -15z" />
    <path
      d="M1936 1422 c-2 -4 -1 -14 3 -21 4 -7 6 -24 3 -38 -3 -18 -7 -21 -13 -11 -6 9 -9 9 -9 1 0 -7 10 -17 22 -24 20 -11 20 -12 4 -21 -10 -6 -31 -7 -47 -4 -16 3 -29 1 -29 -4 0 -15 76 -12 89 4 8 10 9 16 1 21 -14 9 -13 44 3 60 9 8 19 10 28 4 8 -5 19 -9 24 -9 18 1 -28 23 -49 24 -12 1 -20 7 -18 14 2 14 -4 16 -12 4z" />
    <path d="M2100 1420 c0 -5 5 -10 10 -10 6 0 10 5 10 10 0 6 -4 10 -10 10 -5 0 -10 -4 -10 -10z" />
    <path d="M2186 1421 c-4 -5 3 -7 14 -4 23 6 26 13 6 13 -8 0 -17 -4 -20 -9z" />
    <path d="M2911 1400 c7 -18 15 -27 22 -23 8 5 8 8 -1 11 -7 2 -12 12 -12 23 0 10 -4 19 -9 19 -6 0 -6 -12 0 -30z" />
    <path d="M536 1404 c-5 -14 -4 -15 9 -4 17 14 19 20 6 20 -5 0 -12 -7 -15 -16z" />
    <path d="M2020 1410 c0 -5 5 -10 11 -10 5 0 7 5 4 10 -3 6 -8 10 -11 10 -2 0 -4 -4 -4 -10z" />
    <path d="M2950 1411 c0 -6 4 -13 10 -16 6 -3 7 1 4 9 -7 18 -14 21 -14 7z" />
    <path d="M6 1402 c-3 -5 9 -9 26 -10 24 -1 28 2 18 8 -19 12 -37 13 -44 2z" />
    <path
      d="M170 1395 c0 -8 -15 -21 -32 -29 -33 -13 -33 -13 -6 -12 16 0 28 4 28 8 0 13 37 -4 49 -24 9 -14 10 -23 2 -31 -17 -17 7 -39 30 -27 14 8 24 5 41 -12 13 -13 29 -22 35 -20 7 2 13 -2 13 -8 0 -5 4 -10 9 -10 10 0 9 19 -2 37 -4 6 -1 14 5 16 10 4 10 6 1 6 -7 1 -13 7 -13 15 0 8 -6 16 -13 19 -8 3 -14 -1 -14 -9 0 -7 4 -11 9 -8 4 3 8 2 9 -3 0 -4 2 -16 4 -25 2 -9 -3 -19 -11 -22 -8 -3 -14 1 -14 9 0 8 -4 15 -8 15 -4 0 -27 18 -50 40 -34 33 -41 46 -36 65 5 21 2 25 -15 25 -12 0 -21 -6 -21 -15z m30 -4 c0 -5 -7 -11 -14 -14 -10 -4 -13 -1 -9 9 6 15 23 19 23 5z m50 -97 c0 -2 -7 -4 -15 -4 -8 0 -15 4 -15 10 0 5 7 7 15 4 8 -4 15 -8 15 -10z" />
    <path
      d="M792 1373 c-10 -33 -9 -40 8 -58 12 -11 20 -14 20 -7 0 7 10 12 23 12 21 1 21 1 3 11 -14 9 -20 8 -26 -1 -12 -20 -28 -3 -23 24 5 23 9 25 63 23 32 -1 53 1 47 5 -7 4 -28 8 -47 9 -33 2 -32 2 10 9 l45 7 -56 1 -56 2 -11 -37z" />
    <path d="M1147 1403 c-17 -16 -3 -23 46 -21 47 1 48 2 12 5 -22 3 -42 9 -46 14 -3 5 -8 6 -12 2z" />
    <path d="M1470 1399 c-12 -9 -12 -10 4 -5 10 4 26 1 35 -6 14 -12 14 -11 2 5 -16 20 -21 21 -41 6z" />
    <path d="M2196 1393 c-6 -14 -5 -15 5 -6 7 7 10 15 7 18 -3 3 -9 -2 -12 -12z" />
    <path d="M2507 1390 c5 -20 15 -25 26 -13 8 7 -11 33 -23 33 -5 0 -6 -9 -3 -20z" />
    <path d="M2866 1395 c4 -8 8 -15 10 -15 2 0 4 7 4 15 0 8 -4 15 -10 15 -5 0 -7 -7 -4 -15z" />
    <path d="M2160 1391 c0 -6 4 -13 10 -16 6 -3 7 1 4 9 -7 18 -14 21 -14 7z" />
    <path d="M2220 1386 c0 -8 4 -17 8 -20 4 -2 8 4 8 15 0 10 -4 19 -8 19 -4 0 -8 -6 -8 -14z" />
    <path d="M118 1383 c7 -3 16 -2 19 1 4 3 -2 6 -13 5 -11 0 -14 -3 -6 -6z" />
    <path
      d="M2463 1378 c-8 -9 -9 -19 -3 -28 7 -10 10 -11 10 -2 0 21 18 13 23 -10 4 -21 4 -21 6 -2 0 11 -5 28 -12 38 -11 15 -15 16 -24 4z" />
    <path d="M78 1360 c-3 -14 -9 -34 -12 -45 -4 -11 0 -7 9 8 9 16 15 36 13 45 -3 12 -6 10 -10 -8z" />
    <path d="M435 1370 c-3 -5 -1 -10 4 -10 6 0 11 5 11 10 0 6 -2 10 -4 10 -3 0 -8 -4 -11 -10z" />
    <path d="M506 1367 c3 -10 9 -15 12 -12 3 3 0 11 -7 18 -10 9 -11 8 -5 -6z" />
    <path d="M1753 1361 c-8 -12 -8 -22 -1 -32 8 -11 9 -11 5 2 -3 9 0 22 6 28 6 6 9 13 6 15 -3 3 -10 -3 -16 -13z" />
    <path d="M2060 1369 c0 -5 5 -7 10 -4 6 3 10 8 10 11 0 2 -4 4 -10 4 -5 0 -10 -5 -10 -11z" />
    <path d="M2695 1369 c-4 -6 -5 -12 -2 -15 2 -3 7 2 10 11 7 17 1 20 -8 4z" />
    <path d="M250 1357 c0 -8 7 -14 15 -14 11 0 12 4 4 14 -6 7 -13 13 -15 13 -2 0 -4 -6 -4 -13z" />
    <path d="M305 1360 c-3 -5 -1 -10 4 -10 6 0 11 5 11 10 0 6 -2 10 -4 10 -3 0 -8 -4 -11 -10z" />
    <path d="M401 1357 c-8 -10 -7 -14 4 -14 8 0 15 6 15 14 0 7 -2 13 -4 13 -2 0 -9 -6 -15 -13z" />
    <path d="M1448 1363 c12 -2 30 -2 40 0 9 3 -1 5 -23 4 -22 0 -30 -2 -17 -4z" />
    <path d="M2000 1355 c7 -8 17 -15 22 -15 5 0 3 7 -6 15 -8 8 -18 15 -22 15 -3 0 -1 -7 6 -15z" />
    <path d="M2109 1353 c-13 -16 -12 -17 4 -4 9 7 17 15 17 17 0 8 -8 3 -21 -13z" />
    <path d="M2582 1361 c-10 -6 -10 -10 3 -21 19 -15 25 -11 16 12 -4 11 -11 14 -19 9z" />
    <path d="M51 1344 c0 -11 3 -14 6 -6 3 7 2 16 -1 19 -3 4 -6 -2 -5 -13z" />
    <path d="M1506 1353 c-4 -5 -22 -13 -39 -20 -31 -11 -31 -12 -6 -12 14 -1 34 8 44 19 17 19 18 29 1 13z" />
    <path d="M1780 1352 c0 -4 16 -6 35 -4 19 2 35 6 35 8 0 2 -16 4 -35 4 -19 0 -35 -4 -35 -8z" />
    <path d="M2297 1349 c7 -7 15 -10 18 -7 3 3 -2 9 -12 12 -14 6 -15 5 -6 -5z" />
    <path d="M2510 1346 c0 -8 4 -17 8 -20 4 -2 8 4 8 15 0 10 -4 19 -8 19 -4 0 -8 -6 -8 -14z" />
    <path
      d="M2885 1349 c6 -9 3 -11 -8 -6 -9 3 -19 2 -22 -3 -3 -5 8 -7 25 -5 21 3 28 1 24 -7 -4 -7 -3 -8 4 -4 16 10 15 14 -9 27 -17 9 -20 8 -14 -2z" />
    <path d="M2957 1349 c7 -7 15 -10 18 -7 3 3 -2 9 -12 12 -14 6 -15 5 -6 -5z" />
    <path d="M18 1343 c7 -3 16 -2 19 1 4 3 -2 6 -13 5 -11 0 -14 -3 -6 -6z" />
    <path d="M455 1340 c-3 -6 1 -7 9 -4 18 7 21 14 7 14 -6 0 -13 -4 -16 -10z" />
    <path d="M913 1343 c16 -4 22 -16 17 -38 -1 -5 2 -6 7 -2 19 20 3 48 -27 46 -11 -1 -10 -3 3 -6z" />
    <path d="M2406 1338 c3 -5 10 -6 15 -3 13 9 11 12 -6 12 -8 0 -12 -4 -9 -9z" />
    <path d="M2705 1339 c-4 -6 -4 -13 -1 -16 3 -4 6 -1 6 6 0 7 5 9 12 5 7 -4 8 -3 4 4 -9 15 -13 15 -21 1z" />
    <path
      d="M173 1324 c-3 -8 -11 -13 -19 -10 -16 6 -39 -20 -24 -29 5 -3 10 -1 10 6 0 7 3 10 6 6 3 -3 3 -15 -1 -28 -5 -15 -10 -18 -15 -9 -5 8 -9 7 -14 -6 -4 -10 -4 -15 0 -12 4 4 15 3 25 -3 15 -7 17 -6 13 6 -4 8 -1 15 5 15 6 0 11 7 11 15 0 8 4 15 9 15 5 0 8 11 7 25 -1 29 -4 31 -13 9z" />
    <path d="M746 1328 c3 -5 10 -6 15 -3 13 9 11 12 -6 12 -8 0 -12 -4 -9 -9z" />
    <path d="M1991 1324 c0 -11 3 -14 6 -6 3 7 2 16 -1 19 -3 4 -6 -2 -5 -13z" />
    <path d="M420 1316 c0 -9 5 -16 10 -16 6 0 10 4 10 9 0 6 -4 13 -10 16 -5 3 -10 -1 -10 -9z" />
    <path d="M641 1314 c0 -11 3 -14 6 -6 3 7 2 16 -1 19 -3 4 -6 -2 -5 -13z" />
    <path d="M970 1326 c0 -2 7 -7 16 -10 8 -3 12 -2 9 4 -6 10 -25 14 -25 6z" />
    <path
      d="M1790 1315 c7 -8 10 -22 6 -30 -3 -8 -1 -15 4 -15 6 0 10 9 10 21 0 13 4 18 13 14 6 -4 3 1 -7 9 -25 20 -42 21 -26 1z" />
    <path
      d="M2298 1318 c19 -19 15 -24 -18 -23 -17 0 -35 7 -40 15 -5 8 -10 10 -10 4 0 -19 34 -44 49 -34 8 4 26 6 40 4 18 -3 22 -2 12 5 -8 5 -11 16 -8 25 5 12 0 16 -15 16 -17 0 -19 -3 -10 -12z" />
    <path d="M2440 1320 c0 -6 7 -10 15 -10 8 0 15 2 15 4 0 2 -7 6 -15 10 -8 3 -15 1 -15 -4z" />
    <path
      d="M554 1309 c-3 -6 -14 -9 -23 -6 -11 2 -18 -1 -18 -9 0 -8 4 -14 8 -14 9 0 56 39 47 40 -4 0 -10 -5 -14 -11z" />
    <path d="M872 1290 c0 -14 2 -19 5 -12 2 6 2 18 0 25 -3 6 -5 1 -5 -13z" />
    <path d="M967 1299 c7 -7 15 -10 18 -7 3 3 -2 9 -12 12 -14 6 -15 5 -6 -5z" />
    <path d="M1708 1303 c6 -2 18 -2 25 0 6 3 1 5 -13 5 -14 0 -19 -2 -12 -5z" />
    <path d="M2543 1303 c4 -3 17 -7 29 -7 13 -1 29 -5 35 -9 9 -6 11 -3 7 7 -4 10 -19 16 -42 16 -19 0 -32 -3 -29 -7z" />
    <path d="M2976 1295 c4 -8 8 -15 10 -15 2 0 4 7 4 15 0 8 -4 15 -10 15 -5 0 -7 -7 -4 -15z" />
    <path
      d="M2415 1290 c-3 -6 2 -13 12 -17 10 -3 22 -8 27 -11 5 -3 6 0 2 6 -4 7 -14 12 -22 12 -8 0 -12 5 -9 10 3 6 4 10 1 10 -3 0 -8 -5 -11 -10z" />
    <path d="M2482 1284 c-14 -15 -7 -17 22 -5 15 6 16 9 5 13 -8 3 -20 -1 -27 -8z" />
    <path d="M417 1270 c-3 -12 0 -20 7 -20 6 0 12 9 13 20 1 11 -2 20 -6 20 -5 0 -11 -9 -14 -20z" />
    <path d="M1705 1280 c3 -5 22 -10 41 -10 21 0 33 4 29 10 -3 6 -22 10 -41 10 -21 0 -33 -4 -29 -10z" />
    <path d="M1996 1274 c-8 -21 -8 -39 1 -30 8 7 15 46 9 46 -2 0 -7 -7 -10 -16z" />
    <path d="M13 1263 c2 -27 32 -31 41 -7 10 26 7 29 -8 9 -13 -18 -13 -18 -24 1 -10 18 -11 18 -9 -3z" />
    <path
      d="M190 1271 c0 -8 99 -55 112 -53 4 1 18 -12 33 -29 14 -18 29 -29 32 -25 4 3 -8 20 -25 38 -18 17 -35 28 -39 25 -3 -4 -17 3 -31 13 -13 11 -33 20 -43 20 -11 0 -19 5 -19 10 0 6 -4 10 -10 10 -5 0 -10 -4 -10 -9z" />
    <path d="M641 1264 c0 -11 3 -14 6 -6 3 7 2 16 -1 19 -3 4 -6 -2 -5 -13z" />
    <path d="M2384 1268 c1 -7 11 -15 21 -16 11 -3 15 0 10 7 -3 6 -10 9 -15 6 -4 -3 -11 0 -13 5 -3 6 -4 5 -3 -2z" />
    <path
      d="M2774 1261 c-10 -9 -20 -27 -21 -41 -1 -14 1 -19 3 -12 3 6 9 10 14 7 4 -3 6 3 3 14 -7 28 24 34 42 8 8 -12 15 -16 15 -9 0 6 -8 20 -18 30 -17 17 -20 18 -38 3z" />
    <path d="M510 1260 c0 -5 16 -10 35 -10 19 0 35 5 35 10 0 6 -16 10 -35 10 -19 0 -35 -4 -35 -10z" />
    <path
      d="M995 1251 c-4 -13 -12 -18 -23 -15 -14 5 -15 4 -2 -5 12 -8 19 -5 32 12 16 21 17 21 11 -21 -3 -25 -2 -42 4 -42 6 0 8 12 5 26 -3 19 -1 25 7 20 6 -4 11 -16 11 -26 0 -10 5 -22 10 -25 14 -9 13 1 -10 51 -22 48 -35 55 -45 25z" />
    <path d="M1874 1258 c-8 -12 10 -16 34 -7 12 5 22 10 22 11 0 6 -52 3 -56 -4z" />
    <path d="M2336 1255 c-9 -26 -7 -32 5 -12 6 10 9 21 6 23 -2 3 -7 -2 -11 -11z" />
    <path d="M2535 1260 c-3 -5 -1 -10 4 -10 6 0 11 5 11 10 0 6 -2 10 -4 10 -3 0 -8 -4 -11 -10z" />
    <path d="M2677 1250 c-3 -11 -2 -20 3 -20 12 0 21 28 11 35 -5 2 -11 -4 -14 -15z" />
    <path d="M66 1244 c-9 -24 -2 -26 12 -4 7 11 8 20 3 20 -5 0 -12 -7 -15 -16z" />
    <path d="M668 1253 c6 -2 18 -2 25 0 6 3 1 5 -13 5 -14 0 -19 -2 -12 -5z" />
    <path d="M764 1253 c10 -11 86 -12 86 -2 0 5 -21 9 -47 9 -25 0 -43 -3 -39 -7z" />
    <path d="M874 1246 c-3 -8 -1 -22 4 -32 7 -13 9 -10 8 15 -1 34 -4 38 -12 17z" />
    <path
      d="M1802 1248 c2 -7 -2 -12 -8 -11 -6 1 -10 -8 -9 -20 2 -19 -5 -23 -44 -28 l-46 -6 46 -1 c44 -2 82 18 66 35 -4 3 -2 12 4 19 7 8 7 14 -1 19 -6 4 -9 1 -8 -7z" />
    <path d="M2277 1247 c-3 -7 3 -13 14 -13 13 0 15 3 7 13 -6 7 -12 13 -13 13 -2 0 -5 -6 -8 -13z" />
    <path
      d="M463 1224 c1 -17 6 -31 14 -31 6 0 10 4 7 9 -3 4 0 8 5 8 6 0 11 -4 11 -10 0 -5 5 -10 11 -10 8 0 7 5 -1 15 -7 9 -19 14 -26 11 -7 -3 -15 4 -17 17 -3 14 -4 11 -4 -9z" />
    <path d="M1762 1230 c0 -14 2 -19 5 -12 2 6 2 18 0 25 -3 6 -5 1 -5 -13z" />
    <path
      d="M1955 1240 c-3 -5 -12 -7 -20 -3 -9 3 -15 -1 -15 -10 0 -10 -8 -13 -27 -9 -16 3 -24 1 -20 -4 5 -5 16 -9 25 -9 9 0 17 -7 16 -15 -1 -11 9 -15 33 -16 22 0 30 3 24 9 -7 7 -4 15 7 24 15 13 14 13 -6 3 -12 -6 -20 -15 -17 -21 8 -13 -9 -11 -22 2 -6 6 -9 18 -6 26 4 9 8 11 12 4 4 -6 12 -2 19 9 7 11 10 20 8 20 -3 0 -7 -4 -11 -10z" />
    <path
      d="M2055 1240 c-4 -6 -1 -18 6 -26 10 -12 8 -18 -9 -35 -24 -22 -27 -34 -12 -44 6 -3 7 1 4 9 -4 11 0 16 11 16 9 0 14 4 11 9 -3 5 1 14 10 22 13 10 16 9 21 -9 3 -12 10 -22 16 -22 5 0 16 -8 24 -17 8 -10 12 -12 8 -5 -4 7 0 12 10 12 10 0 13 -5 9 -12 -4 -7 -3 -8 4 -4 18 11 14 26 -7 26 -32 0 -55 12 -40 21 8 5 0 12 -25 23 -27 11 -36 20 -32 31 6 17 0 20 -9 5z" />
    <path d="M2130 1246 c0 -2 7 -7 16 -10 8 -3 12 -2 9 4 -6 10 -25 14 -25 6z" />
    <path d="M2887 1239 c-9 -5 -21 -8 -26 -4 -5 3 -12 1 -15 -4 -12 -18 33 -18 50 0 19 21 17 23 -9 8z" />
    <path d="M2947 1236 c-15 -12 -16 -14 -2 -20 8 -3 15 -1 15 5 0 5 10 14 23 19 20 8 20 9 2 9 -11 0 -28 -6 -38 -13z" />
    <path d="M357 1225 c-9 -22 8 -26 21 -4 10 15 10 19 -2 19 -8 0 -16 -7 -19 -15z" />
    <path d="M922 1228 c-15 -15 -15 -28 0 -28 6 0 8 3 5 7 -4 3 -2 12 4 20 14 16 7 17 -9 1z" />
    <path d="M1590 1219 c-7 -11 -9 -23 -6 -27 3 -3 6 0 6 6 0 6 7 18 16 26 8 9 11 16 5 16 -6 0 -15 -9 -21 -21z" />
    <path d="M1700 1231 c0 -6 4 -13 10 -16 6 -3 7 1 4 9 -7 18 -14 21 -14 7z" />
    <path d="M2226 1225 c-9 -26 -7 -32 5 -12 6 10 9 21 6 23 -2 3 -7 -2 -11 -11z" />
    <path d="M2385 1230 c3 -5 8 -10 11 -10 2 0 4 5 4 10 0 6 -5 10 -11 10 -5 0 -7 -4 -4 -10z" />
    <path d="M2508 1233 c-24 -6 -23 -19 0 -19 10 0 19 6 19 13 0 7 -1 12 -1 12 -1 -1 -9 -3 -18 -6z" />
    <path
      d="M60 1198 c-20 -17 -25 -25 -13 -19 34 17 40 13 13 -10 l-25 -21 33 19 c18 10 43 29 55 43 l22 25 -26 -22 c-31 -28 -43 -29 -29 -3 14 26 12 25 -30 -12z" />
    <path
      d="M736 1215 c3 -6 27 -19 54 -30 39 -15 50 -24 50 -41 0 -26 25 -50 35 -34 3 5 -1 10 -9 10 -10 0 -16 9 -16 24 0 18 -12 29 -59 52 -32 16 -57 25 -55 19z" />
    <path d="M2108 1218 c5 -5 16 -8 23 -6 8 3 3 7 -10 11 -17 4 -21 3 -13 -5z" />
    <path
      d="M2427 1223 c-5 -12 42 -53 48 -42 4 5 1 9 -5 9 -7 0 -10 7 -7 14 4 11 1 13 -10 9 -11 -4 -14 -2 -9 5 4 7 3 12 -3 12 -5 0 -12 -3 -14 -7z" />
    <path d="M635 1210 c-3 -5 -1 -10 4 -10 6 0 11 5 11 10 0 6 -2 10 -4 10 -3 0 -8 -4 -11 -10z" />
    <path d="M1100 1208 c0 -4 17 -8 37 -8 20 0 33 3 29 7 -9 10 -66 11 -66 1z" />
    <path d="M1180 1210 c0 -6 7 -10 15 -10 8 0 15 2 15 4 0 2 -7 6 -15 10 -8 3 -15 1 -15 -4z" />
    <path d="M2350 1209 c-12 -8 -10 -9 8 -4 15 4 24 1 28 -9 3 -9 10 -13 16 -10 5 3 1 12 -9 20 -22 16 -24 16 -43 3z" />
    <path d="M2609 1194 c-5 -15 -8 -29 -5 -31 2 -2 8 10 14 26 13 38 5 41 -9 5z" />
    <path d="M381 1194 c0 -11 3 -14 6 -6 3 7 2 16 -1 19 -3 4 -6 -2 -5 -13z" />
    <path
      d="M540 1201 c0 -6 5 -13 10 -16 6 -4 8 -10 6 -14 -3 -4 -1 -13 5 -21 7 -12 9 -12 9 3 0 10 5 15 10 12 6 -4 7 -11 4 -17 -4 -7 -2 -8 5 -4 6 4 23 1 36 -8 13 -9 26 -12 29 -7 3 5 -5 12 -19 15 -17 4 -23 11 -18 23 5 13 2 15 -15 11 -12 -4 -22 -2 -22 4 0 5 -4 6 -10 3 -5 -3 -10 1 -10 9 0 9 -4 16 -10 16 -5 0 -10 -4 -10 -9z" />
    <path d="M673 1184 c0 -14 2 -21 6 -17 3 4 9 10 12 13 4 3 1 10 -6 17 -10 9 -12 6 -12 -13z" />
    <path d="M2015 1200 c-3 -5 1 -10 10 -10 9 0 13 5 10 10 -3 6 -8 10 -10 10 -2 0 -7 -4 -10 -10z" />
    <path d="M2151 1194 c0 -11 3 -14 6 -6 3 7 2 16 -1 19 -3 4 -6 -2 -5 -13z" />
    <path d="M2310 1199 c0 -5 5 -7 10 -4 6 3 10 8 10 11 0 2 -4 4 -10 4 -5 0 -10 -5 -10 -11z" />
    <path d="M2559 1208 c-8 -16 -3 -48 8 -52 11 -4 11 -1 3 14 -6 11 -8 25 -5 30 3 6 4 10 1 10 -3 0 -7 -1 -7 -2z" />
    <path
      d="M2787 1203 c-4 -3 -2 -14 3 -23 7 -13 5 -21 -5 -30 -8 -7 -15 -17 -15 -23 0 -18 34 35 35 55 2 20 -8 31 -18 21z" />
    <path d="M2888 1203 c-21 -5 -23 -19 -5 -29 6 -4 9 -4 5 1 -4 4 0 14 10 21 18 14 17 14 -10 7z" />
    <path d="M420 1190 c0 -5 5 -10 11 -10 5 0 7 5 4 10 -3 6 -8 10 -11 10 -2 0 -4 -4 -4 -10z" />
    <path d="M2837 1179 c-4 -16 -3 -18 9 -8 16 13 19 29 5 29 -5 0 -11 -9 -14 -21z" />
    <path d="M640 1171 c0 -25 6 -27 13 -6 4 8 2 17 -3 20 -6 4 -10 -3 -10 -14z" />
    <path d="M872 1178 c-7 -7 -12 -21 -12 -32 0 -17 3 -16 15 8 17 32 15 42 -3 24z" />
    <path
      d="M2208 1156 c-2 -20 0 -36 6 -36 6 0 5 -5 -2 -12 -8 -8 -18 -9 -36 0 -19 9 -27 8 -37 -4 -7 -9 -20 -12 -33 -9 -17 5 -18 4 -6 -4 20 -14 53 -14 44 0 -5 8 5 9 33 4 32 -5 42 -3 47 10 3 9 11 13 17 9 8 -4 7 -9 -2 -15 -11 -7 -11 -9 2 -9 11 0 16 10 16 33 1 24 -1 27 -6 13 -5 -13 -10 -16 -15 -8 -4 6 -2 21 4 33 7 11 8 24 4 27 -4 4 -9 1 -12 -7 -3 -10 -6 -10 -12 -1 -5 7 -9 -2 -12 -24z" />
    <path d="M2264 1170 c1 -8 10 -16 21 -17 15 -1 15 0 3 3 -9 3 -19 11 -21 17 -2 7 -3 5 -3 -3z" />
    <path
      d="M2341 1179 c-1 -9 6 -23 15 -30 20 -17 72 -21 81 -6 3 5 1 7 -5 3 -6 -3 -13 -2 -16 2 -3 5 -16 7 -29 5 -17 -3 -26 2 -34 19 -8 16 -12 18 -12 7z" />
    <path
      d="M2504 1169 c21 -31 20 -46 -1 -27 -13 11 -24 13 -38 7 -18 -9 -18 -9 3 -5 19 4 26 -1 33 -24 6 -16 17 -31 26 -34 10 -4 13 -2 10 7 -3 8 8 17 28 23 28 9 32 8 28 -7 -3 -9 0 -20 7 -24 18 -11 24 3 12 30 -10 20 -16 24 -41 19 -23 -5 -30 -2 -35 12 -3 11 -15 25 -27 32 -21 13 -21 13 -5 -9z" />
    <path d="M501 1166 c-12 -15 -5 -46 11 -46 7 0 7 4 0 13 -12 14 -4 31 18 40 13 4 12 6 -1 6 -9 1 -22 -5 -28 -13z" />
    <path d="M1628 1173 c12 -2 30 -2 40 0 9 3 -1 5 -23 4 -22 0 -30 -2 -17 -4z" />
    <path
      d="M1850 1172 c0 -5 -10 -8 -22 -6 -21 4 -21 4 -3 -4 11 -5 25 -7 31 -5 7 2 15 0 19 -6 7 -13 85 -15 85 -3 0 4 -17 8 -37 7 -21 0 -46 6 -55 14 -11 8 -18 10 -18 3z" />
    <path d="M2430 1169 c0 -5 5 -7 10 -4 6 3 10 8 10 11 0 2 -4 4 -10 4 -5 0 -10 -5 -10 -11z" />
    <path d="M2722 1164 c-7 -8 -8 -14 -3 -14 10 0 25 19 20 25 -2 1 -10 -3 -17 -11z" />
    <path d="M2946 1168 c3 -4 12 -8 20 -8 8 0 14 4 14 8 0 4 -9 8 -19 8 -11 0 -17 -4 -15 -8z" />
    <path
      d="M405 1161 c-3 -6 -10 -9 -15 -6 -5 3 -8 -8 -7 -25 1 -16 6 -30 11 -30 4 0 6 -6 3 -14 -3 -8 1 -13 11 -12 12 1 17 -7 17 -26 -1 -16 3 -28 7 -28 4 0 8 -5 8 -11 0 -5 -4 -8 -9 -5 -5 3 -11 -1 -15 -9 -3 -9 0 -15 10 -15 8 0 12 -5 9 -10 -4 -6 -11 -8 -16 -5 -5 4 -9 2 -9 -4 0 -5 5 -13 10 -16 6 -3 10 -2 10 3 0 5 9 12 20 15 11 3 20 3 20 1 0 -2 -9 -13 -20 -24 -26 -26 -25 -36 5 -66 14 -14 34 -42 44 -62 18 -35 56 -82 66 -82 3 0 -11 22 -30 49 -37 51 -43 71 -22 71 6 1 -2 7 -20 15 -33 14 -60 50 -44 59 5 3 11 -3 14 -14 3 -11 11 -20 18 -20 10 0 10 3 1 12 -19 19 -14 38 11 39 13 0 16 3 8 6 -22 9 -53 43 -38 43 8 0 8 3 2 8 -6 4 -17 26 -24 50 -6 24 -18 45 -26 48 -16 6 -16 45 -1 56 6 4 8 10 4 13 -3 4 -9 1 -13 -4z" />
    <path d="M436 1153 c-6 -14 -5 -15 5 -6 7 7 10 15 7 18 -3 3 -9 -2 -12 -12z" />
    <path d="M930 1162 c0 -4 10 -9 22 -9 18 -2 20 0 8 7 -18 12 -30 13 -30 2z" />
    <path d="M1010 1155 c-7 -9 -8 -15 -2 -15 5 0 12 7 16 15 3 8 4 15 2 15 -2 0 -9 -7 -16 -15z" />
    <path
      d="M1985 1159 c-4 -5 1 -19 11 -30 19 -21 34 -25 34 -9 0 6 -3 9 -7 9 -20 -3 -24 2 -13 16 11 13 10 14 -5 9 -13 -5 -16 -4 -11 4 4 7 5 12 2 12 -3 0 -8 -5 -11 -11z" />
    <path d="M2660 1160 c0 -12 28 -21 35 -11 2 5 -4 11 -15 14 -11 3 -20 2 -20 -3z" />
    <path d="M706 1145 c4 -8 8 -15 10 -15 2 0 4 7 4 15 0 8 -4 15 -10 15 -5 0 -7 -7 -4 -15z" />
    <path d="M1617 1150 c12 -5 34 -5 50 0 24 7 21 8 -22 9 -38 0 -45 -2 -28 -9z" />
    <path d="M1043 1129 c-1 -10 3 -22 9 -25 7 -5 9 -2 5 8 -3 9 -1 20 4 25 6 6 5 10 -4 10 -7 0 -14 -8 -14 -18z" />
    <path d="M2060 1141 c0 -6 4 -13 10 -16 6 -3 7 1 4 9 -7 18 -14 21 -14 7z" />
    <path
      d="M2624 1138 c-4 -7 -3 -10 1 -5 5 4 18 -2 30 -13 21 -19 23 -20 55 -3 19 9 29 18 22 21 -7 2 -19 -1 -27 -8 -15 -12 -55 -5 -55 11 0 13 -18 11 -26 -3z" />
    <path
      d="M2942 1136 c13 -10 14 -16 6 -24 -6 -6 -9 -14 -7 -17 3 -2 12 8 21 23 16 27 16 27 -10 29 -24 1 -25 0 -10 -11z" />
    <path
      d="M450 1130 c-14 -9 -7 -14 13 -11 5 1 6 -3 2 -9 -3 -5 -1 -10 4 -10 6 0 11 -9 11 -19 0 -11 5 -23 11 -27 6 -3 9 -19 7 -35 -3 -15 -1 -26 3 -23 4 2 12 -4 18 -13 10 -17 10 -17 11 0 0 9 -4 17 -10 17 -5 0 -10 5 -10 11 0 5 5 7 10 4 6 -3 10 -2 10 4 0 5 -4 13 -10 16 -5 3 -10 11 -10 16 0 6 5 7 12 3 8 -5 9 -2 5 10 -4 10 -7 21 -7 26 0 5 -9 12 -20 15 -11 3 -20 13 -20 21 0 16 -9 18 -30 4z m60 -50 c0 -5 -4 -10 -10 -10 -5 0 -10 5 -10 10 0 6 5 10 10 10 6 0 10 -4 10 -10z" />
    <path
      d="M677 1126 c4 -13 3 -17 -5 -12 -8 5 -10 1 -5 -10 5 -13 8 -14 11 -5 4 11 6 11 13 0 5 -8 9 -9 9 -3 0 5 -7 19 -15 30 -15 18 -15 18 -8 0z" />
    <path d="M1532 1130 c10 -6 25 -7 40 -1 20 9 18 10 -17 10 -31 0 -36 -2 -23 -9z" />
    <path d="M1810 1130 c20 -13 60 -13 60 0 0 6 -17 10 -37 10 -28 0 -34 -3 -23 -10z" />
    <path d="M2308 1128 c17 -21 62 -30 55 -11 -3 8 -11 12 -17 10 -6 -2 -20 0 -31 6 -17 9 -18 8 -7 -5z" />
    <path
      d="M2834 1129 c-3 -6 0 -22 7 -36 12 -22 11 -26 -11 -44 -20 -15 -22 -19 -8 -19 19 0 55 46 44 57 -3 3 3 13 14 20 21 15 19 33 -3 33 -8 0 -7 -3 2 -9 11 -7 10 -11 -7 -20 -29 -16 -34 -14 -22 9 11 21 -3 29 -16 9z" />
    <path d="M719 1113 c-13 -16 -12 -17 4 -4 9 7 17 15 17 17 0 8 -8 3 -21 -13z" />
    <path d="M770 1121 c0 -6 4 -12 8 -15 5 -3 9 1 9 9 0 8 -4 15 -9 15 -4 0 -8 -4 -8 -9z" />
    <path d="M1882 1110 c0 -14 2 -19 5 -12 2 6 2 18 0 25 -3 6 -5 1 -5 -13z" />
    <path d="M2275 1120 c3 -5 8 -10 11 -10 2 0 4 5 4 10 0 6 -5 10 -11 10 -5 0 -7 -4 -4 -10z" />
    <path d="M1073 1105 c0 -8 4 -12 9 -9 5 3 6 10 3 15 -9 13 -12 11 -12 -6z" />
    <path d="M1670 1110 c-13 -8 -12 -10 3 -10 9 0 17 5 17 10 0 12 -1 12 -20 0z" />
    <path d="M1700 1111 c0 -5 18 -9 40 -8 22 1 40 5 40 9 0 5 -18 8 -40 8 -22 0 -40 -4 -40 -9z" />
    <path d="M1920 1110 c0 -6 7 -10 15 -10 8 0 15 2 15 4 0 2 -7 6 -15 10 -8 3 -15 1 -15 -4z" />
    <path d="M965 1100 c-3 -5 3 -10 15 -10 12 0 18 5 15 10 -3 6 -10 10 -15 10 -5 0 -12 -4 -15 -10z" />
    <path d="M1994 1102 c5 -8 -5 -12 -33 -12 -23 0 -41 -4 -41 -10 0 -16 77 -12 83 5 4 8 1 17 -5 21 -7 4 -8 3 -4 -4z" />
    <path
      d="M2464 1102 c-13 -8 -15 -44 -2 -36 5 3 6 10 3 15 -3 5 1 6 9 3 9 -3 16 -10 16 -15 0 -5 7 -9 16 -9 9 0 12 -5 8 -12 -5 -7 -3 -8 5 -4 8 5 14 0 18 -13 3 -12 11 -21 18 -21 6 0 22 -9 35 -20 30 -26 38 -26 15 0 -10 11 -26 22 -36 25 -11 4 -17 10 -14 14 4 8 -39 51 -51 51 -4 0 -12 7 -18 15 -6 8 -16 11 -22 7z" />
    <path d="M2640 1102 c0 -15 22 -30 37 -25 11 4 10 8 -4 19 -21 15 -33 18 -33 6z" />
    <path
      d="M2730 1099 c0 -6 -4 -7 -10 -4 -5 3 -10 -3 -10 -15 0 -17 3 -19 19 -10 14 7 20 7 23 -1 2 -7 10 -4 18 7 9 11 10 15 3 10 -7 -4 -13 -3 -13 2 0 6 -7 12 -15 16 -8 3 -15 1 -15 -5z" />
    <path d="M2901 1094 c0 -11 3 -14 6 -6 3 7 2 16 -1 19 -3 4 -6 -2 -5 -13z" />
    <path d="M447 1075 c6 -32 11 -41 17 -34 2 2 -2 18 -10 34 l-13 30 6 -30z" />
    <path d="M540 1090 c0 -5 10 -10 23 -10 18 0 19 2 7 10 -19 13 -30 13 -30 0z" />
    <path d="M2555 1090 c3 -5 8 -10 11 -10 2 0 4 5 4 10 0 6 -5 10 -11 10 -5 0 -7 -4 -4 -10z" />
    <path d="M778 1083 c7 -3 16 -2 19 1 4 3 -2 6 -13 5 -11 0 -14 -3 -6 -6z" />
    <path d="M816 1078 c7 -10 34 -10 34 0 0 4 -9 8 -19 8 -11 0 -17 -4 -15 -8z" />
    <path d="M886 1073 c-6 -14 -5 -15 5 -6 7 7 10 15 7 18 -3 3 -9 -2 -12 -12z" />
    <path d="M1090 1076 c0 -9 5 -16 10 -16 6 0 10 4 10 9 0 6 -4 13 -10 16 -5 3 -10 -1 -10 -9z" />
    <path d="M1690 1088 c0 -2 9 -11 20 -21 11 -9 20 -13 20 -7 0 5 -9 14 -20 20 -11 6 -20 9 -20 8z" />
    <path
      d="M1832 1071 c7 -12 16 -17 22 -11 5 5 15 3 24 -6 8 -8 17 -13 20 -10 8 9 -20 37 -32 33 -6 -3 -19 0 -29 5 -16 8 -17 7 -5 -11z" />
    <path
      d="M2367 1077 c-3 -9 -22 -13 -56 -13 -28 1 -51 -2 -51 -6 0 -5 25 -8 55 -8 31 0 55 4 55 10 0 6 10 15 23 20 22 9 22 9 1 9 -12 1 -24 -5 -27 -12z" />
    <path d="M2798 1083 c6 -2 18 -2 25 0 6 3 1 5 -13 5 -14 0 -19 -2 -12 -5z" />
    <path d="M690 1070 c-12 -7 -10 -9 8 -7 12 0 22 5 22 9 0 11 -12 10 -30 -2z" />
    <path d="M862 1060 c0 -14 2 -19 5 -12 2 6 2 18 0 25 -3 6 -5 1 -5 -13z" />
    <path d="M2041 1064 c0 -11 3 -14 6 -6 3 7 2 16 -1 19 -3 4 -6 -2 -5 -13z" />
    <path
      d="M2914 1068 c-3 -4 -1 -14 3 -22 7 -12 10 -12 21 0 7 8 9 14 5 15 -4 0 1 4 12 9 17 7 16 8 -8 7 -16 -1 -31 -5 -33 -9z" />
    <path
      d="M603 1063 c9 -2 17 -13 17 -24 0 -11 7 -19 18 -19 14 0 14 2 3 9 -8 5 -11 16 -8 25 5 12 0 16 -21 15 -17 -1 -20 -3 -9 -6z" />
    <path d="M1750 1055 c-6 -7 4 -9 31 -7 21 2 36 8 33 13 -7 12 -53 7 -64 -6z" />
    <path d="M2617 1064 c-17 -17 8 -34 50 -34 25 0 42 4 38 10 -3 5 -12 7 -20 3 -21 -7 -67 6 -60 17 7 11 2 13 -8 4z" />
    <path
      d="M970 1050 c-11 -7 -11 -10 -2 -10 7 0 11 -4 8 -9 -3 -5 1 -14 9 -21 8 -7 15 -9 15 -4 0 5 5 2 10 -6 8 -12 10 -10 10 9 0 19 -3 21 -14 12 -11 -9 -15 -7 -19 8 -3 11 0 22 7 25 6 2 7 5 1 5 -5 0 -17 -4 -25 -9z" />
    <path d="M550 1040 c0 -5 4 -10 9 -10 6 0 13 5 16 10 3 6 -1 10 -9 10 -9 0 -16 -4 -16 -10z" />
    <path
      d="M812 1035 c19 -23 26 -55 15 -72 -5 -8 -1 -8 18 0 26 13 35 30 10 21 -10 -4 -15 0 -15 13 0 11 -10 28 -22 39 -23 19 -23 19 -6 -1z" />
    <path
      d="M1640 1039 c0 -5 15 -9 34 -9 25 0 35 -5 39 -20 3 -11 11 -20 19 -19 10 0 10 2 1 6 -7 2 -13 8 -13 13 0 11 60 19 66 8 3 -4 10 -8 15 -8 6 0 3 7 -6 16 -10 10 -24 14 -39 10 -13 -3 -45 -2 -70 3 -26 5 -46 5 -46 0z" />
    <path d="M2456 1041 c2 -2 -3 -13 -13 -23 -23 -26 -1 -22 30 5 l26 22 -24 0 c-13 0 -21 -2 -19 -4z" />
    <path d="M2982 1034 c2 -11 -3 -24 -12 -31 -9 -8 -11 -12 -3 -13 22 0 39 45 21 56 -6 4 -8 -2 -6 -12z" />
    <path d="M685 1030 c-3 -5 -1 -10 4 -10 6 0 11 5 11 10 0 6 -2 10 -4 10 -3 0 -8 -4 -11 -10z" />
    <path d="M1035 1031 c-6 -11 13 -26 22 -17 4 3 1 6 -6 6 -7 0 -9 5 -6 10 3 6 4 10 1 10 -3 0 -7 -4 -11 -9z" />
    <path
      d="M1895 1029 c-27 -3 -39 -7 -25 -8 14 -2 35 -4 48 -5 12 -2 22 2 22 7 0 6 8 3 18 -6 15 -14 19 -14 19 -3 0 19 -21 23 -82 15z" />
    <path
      d="M2005 1031 c-19 -8 -18 -9 5 -12 14 -3 24 -10 23 -17 -2 -6 4 -12 13 -12 8 0 13 -4 9 -9 -3 -5 -34 -8 -69 -6 -51 3 -64 1 -62 -10 3 -19 16 -32 16 -16 0 7 6 11 14 8 7 -3 18 -1 24 5 7 7 17 6 32 -2 12 -6 29 -9 37 -6 9 4 26 -1 39 -9 14 -9 24 -11 24 -5 0 6 -12 15 -26 20 -14 6 -23 14 -19 19 3 5 0 13 -6 16 -5 4 -8 13 -5 21 3 9 0 11 -11 7 -11 -4 -14 -2 -9 5 8 14 0 14 -29 3z" />
    <path
      d="M2123 1020 c-11 -17 -6 -43 7 -35 4 3 14 -3 21 -13 11 -14 11 -15 0 -5 -7 6 -20 9 -27 6 -8 -3 -18 5 -23 18 -5 13 -10 22 -11 19 -9 -33 -5 -39 35 -53 55 -18 79 -7 45 21 -24 20 -20 45 5 35 11 -4 13 -1 9 11 -7 20 -48 17 -61 -4z" />
    <path d="M2380 1030 c-8 -5 -11 -12 -7 -17 5 -4 11 -2 15 4 4 6 16 13 27 16 20 5 20 5 0 6 -11 0 -27 -3 -35 -9z" />
    <path d="M2855 1029 c-9 -14 -2 -20 14 -10 8 6 9 11 3 15 -6 3 -14 1 -17 -5z" />
    <path d="M718 1023 c7 -3 16 -2 19 1 4 3 -2 6 -13 5 -11 0 -14 -3 -6 -6z" />
    <path
      d="M756 1011 c-15 -17 -12 -61 5 -61 11 0 7 23 -5 32 -5 3 -2 13 6 22 14 14 18 14 28 1 7 -8 18 -15 24 -14 7 0 6 2 -2 6 -6 2 -10 8 -7 13 10 16 -34 17 -49 1z" />
    <path d="M870 1020 c0 -5 4 -10 9 -10 6 0 13 5 16 10 3 6 -1 10 -9 10 -9 0 -16 -4 -16 -10z" />
    <path d="M945 1020 c-3 -5 -1 -10 4 -10 6 0 11 5 11 10 0 6 -2 10 -4 10 -3 0 -8 -4 -11 -10z" />
    <path d="M2780 1020 c-9 -6 -10 -10 -3 -10 6 0 15 5 18 10 8 12 4 12 -15 0z" />
    <path
      d="M547 1013 c-2 -5 -4 -23 -3 -40 0 -18 -5 -35 -11 -38 -7 -2 -13 -12 -13 -22 1 -14 6 -12 27 12 14 16 21 31 15 33 -8 2 -8 11 -1 28 5 14 9 27 9 30 0 7 -19 4 -23 -3z" />
    <path
      d="M1630 1010 c0 -5 -12 -10 -27 -11 -21 -1 -16 -4 20 -14 56 -15 64 -20 42 -28 -8 -4 -15 -2 -15 3 0 6 -14 10 -31 10 -17 0 -28 -4 -24 -10 3 -5 17 -10 31 -10 32 0 29 -30 -4 -45 -12 -5 -22 -17 -21 -25 0 -9 2 -10 5 -3 3 7 11 10 19 7 7 -3 16 -1 20 5 3 6 25 11 48 11 23 0 49 5 57 11 11 7 1 9 -38 7 -35 -2 -52 1 -52 9 0 6 4 15 10 18 5 3 15 15 21 27 7 13 7 18 0 14 -18 -11 -60 4 -54 20 3 8 2 14 -1 14 -3 0 -6 -4 -6 -10z" />
    <path d="M2203 1005 c-3 -9 -3 -19 1 -22 3 -4 6 1 6 9 0 11 6 14 20 11 11 -3 20 0 20 6 0 17 -40 13 -47 -4z" />
    <path
      d="M2748 1004 c-6 -22 -54 -38 -85 -28 -15 4 -15 4 -3 -4 8 -5 26 -13 40 -16 19 -6 21 -5 10 3 -12 9 -11 11 6 11 25 0 48 23 42 42 -3 7 -7 4 -10 -8z" />
    <path d="M2816 1005 c-11 -8 -15 -15 -9 -15 6 0 16 7 23 15 16 19 11 19 -14 0z" />
    <path
      d="M2915 1011 c-3 -6 3 -14 12 -20 10 -6 14 -11 8 -11 -5 -1 -18 -3 -27 -5 -9 -2 -22 3 -29 11 -9 11 -13 11 -26 -2 -8 -8 -23 -12 -33 -9 -22 7 -33 -7 -24 -29 10 -27 36 -34 69 -19 l30 14 -28 -6 c-22 -4 -27 -3 -21 7 5 10 4 11 -7 1 -13 -13 -38 -19 -26 -6 4 3 1 13 -6 22 -10 14 -10 14 3 4 12 -9 19 -8 34 3 26 18 40 18 32 -1 -7 -19 7 -19 44 0 32 16 43 49 13 38 -11 -4 -14 -3 -9 5 4 7 5 12 2 12 -3 0 -7 -4 -11 -9z" />
    <path d="M620 999 c0 -14 26 -16 37 -4 9 10 7 13 -13 11 -13 0 -24 -4 -24 -7z" />
    <path
      d="M904 1001 c4 -5 0 -12 -6 -15 -7 -3 -3 -3 10 0 12 3 22 1 22 -5 0 -6 -7 -11 -15 -11 -8 0 -15 -4 -15 -9 0 -5 7 -11 15 -15 9 -3 15 0 15 9 0 8 7 15 15 15 12 0 12 3 -2 20 -17 20 -50 29 -39 11z" />
    <path
      d="M1865 999 c4 -10 2 -20 -4 -24 -6 -3 -11 1 -11 9 0 9 -4 16 -10 16 -5 0 -7 -6 -4 -14 4 -11 0 -13 -17 -9 -15 4 -20 3 -15 -5 4 -7 19 -11 34 -11 47 3 63 -1 56 -12 -3 -6 -17 -8 -30 -5 -14 4 -24 2 -24 -4 0 -5 16 -10 35 -10 42 0 44 13 9 55 -13 17 -22 23 -19 14z" />
    <path
      d="M2470 999 c-13 -6 -27 -14 -30 -18 -9 -15 -129 -19 -134 -5 -3 7 0 15 7 17 7 2 -4 4 -23 4 -30 1 -32 0 -12 -8 12 -4 22 -15 22 -22 0 -10 18 -14 74 -13 41 1 72 3 70 5 -6 6 17 31 28 31 5 0 6 -5 2 -12 -5 -7 -2 -9 8 -5 9 3 21 0 28 -6 10 -9 11 -9 6 0 -3 6 2 17 11 23 15 8 12 9 -12 4 -23 -4 -26 -3 -15 5 18 13 3 13 -30 0z" />
    <path d="M1750 990 c0 -5 9 -10 21 -10 11 0 17 5 14 10 -3 6 -13 10 -21 10 -8 0 -14 -4 -14 -10z" />
    <path d="M578 983 c7 -3 16 -2 19 1 4 3 -2 6 -13 5 -11 0 -14 -3 -6 -6z" />
    <path d="M780 980 c0 -5 5 -10 11 -10 5 0 7 5 4 10 -3 6 -8 10 -11 10 -2 0 -4 -4 -4 -10z" />
    <path d="M1551 974 c0 -11 3 -14 6 -6 3 7 2 16 -1 19 -3 4 -6 -2 -5 -13z" />
    <path d="M720 971 c0 -6 4 -13 10 -16 6 -3 7 1 4 9 -7 18 -14 21 -14 7z" />
    <path d="M2212 972 c-8 -6 -2 -9 18 -9 20 0 26 3 18 9 -7 4 -15 8 -18 8 -3 0 -11 -4 -18 -8z" />
    <path d="M2563 950 c-1 -11 2 -20 7 -20 4 0 7 7 6 15 -3 23 -12 26 -13 5z" />
    <path d="M1721 944 c0 -11 3 -14 6 -6 3 7 2 16 -1 19 -3 4 -6 -2 -5 -13z" />
    <path
      d="M1786 945 c19 -14 19 -14 0 -15 -11 0 -17 -3 -13 -6 3 -4 14 -4 23 0 13 5 14 9 4 21 -7 8 -17 15 -23 15 -6 0 -2 -7 9 -15z" />
    <path d="M580 942 c0 -4 29 -8 65 -8 36 0 65 3 65 8 0 4 -29 8 -65 8 -36 0 -65 -4 -65 -8z" />
    <path d="M785 940 c-3 -6 1 -7 9 -4 18 7 21 14 7 14 -6 0 -13 -4 -16 -10z" />
    <path d="M857 935 c3 -8 9 -12 14 -9 12 7 11 11 -5 17 -10 4 -13 1 -9 -8z" />
    <path d="M2915 939 c-4 -6 -4 -13 -1 -16 3 -4 6 -1 6 6 0 9 9 12 25 9 14 -3 25 -1 25 3 0 13 -48 11 -55 -2z" />
    <path d="M2980 940 c0 -5 5 -10 10 -10 6 0 10 5 10 10 0 6 -4 10 -10 10 -5 0 -10 -4 -10 -10z" />
    <path d="M1816 923 c-6 -14 -5 -15 5 -6 7 7 10 15 7 18 -3 3 -9 -2 -12 -12z" />
    <path d="M1962 934 c11 -10 67 -13 73 -3 4 5 -12 9 -36 9 -23 0 -40 -3 -37 -6z" />
    <path
      d="M2130 920 c6 -11 17 -20 25 -20 8 0 18 0 23 0 4 0 7 5 7 12 0 14 44 17 92 7 24 -5 30 -3 26 7 -4 10 -24 14 -69 14 -54 0 -64 -3 -64 -17 -1 -16 -2 -16 -13 -3 -20 24 -40 24 -27 0z" />
    <path
      d="M2320 923 c0 -14 2 -15 9 -5 6 11 10 11 19 0 19 -24 -2 -39 -56 -40 -29 0 -55 -4 -58 -9 -3 -5 22 -9 55 -9 37 0 61 4 63 12 6 17 28 0 28 -23 0 -16 -8 -19 -47 -20 -46 -2 -47 -2 -13 -8 19 -4 43 -3 52 1 13 6 20 2 29 -13 8 -15 13 -18 19 -10 4 8 17 10 36 5 16 -5 35 -7 42 -6 6 2 12 -6 12 -17 0 -27 16 -36 23 -12 2 10 17 21 33 24 36 7 44 0 14 -11 -19 -7 -20 -10 -7 -15 9 -3 18 0 21 9 3 8 10 14 17 14 6 0 8 -7 5 -16 -3 -8 -2 -12 4 -9 19 11 10 43 -12 49 -13 3 -24 1 -26 -4 -5 -13 -72 -13 -72 -1 0 5 -9 7 -21 4 -12 -3 -25 0 -29 7 -6 9 -13 9 -31 0 -20 -9 -22 -9 -9 2 15 13 25 38 14 38 -3 0 -12 -7 -21 -15 -8 -9 -18 -13 -21 -10 -4 3 0 10 8 15 13 9 13 10 0 10 -13 0 -13 1 0 10 13 8 12 10 -3 10 -10 0 -15 5 -12 10 3 6 -1 13 -9 16 -9 3 -16 12 -16 20 0 8 -9 14 -20 14 -12 0 -20 -7 -20 -17z" />
    <path
      d="M2605 930 c-4 -6 1 -7 11 -3 11 4 15 3 10 -5 -8 -14 25 -32 56 -31 19 1 20 2 4 6 -10 3 -28 14 -39 24 -23 21 -33 24 -42 9z" />
    <path d="M2695 930 c-3 -5 -1 -10 4 -10 6 0 11 5 11 10 0 6 -2 10 -4 10 -3 0 -8 -4 -11 -10z" />
    <path
      d="M2746 917 c-2 -10 -9 -16 -14 -13 -5 3 -15 -6 -22 -20 -8 -14 -20 -22 -27 -19 -8 2 -11 1 -8 -4 3 -6 0 -13 -7 -18 -7 -4 -14 -16 -14 -26 -1 -10 1 -16 4 -13 3 3 10 2 16 -3 7 -5 25 6 48 30 20 22 34 39 30 39 -12 -1 -62 -49 -62 -60 0 -6 -4 -8 -10 -5 -19 12 -10 35 16 46 15 5 24 12 21 16 -7 7 44 49 55 46 5 -2 8 3 8 10 0 21 -28 16 -34 -6z" />
    <path d="M733 924 c9 -3 15 -10 12 -15 -4 -5 -1 -9 5 -9 19 0 5 25 -16 27 -16 2 -16 1 -1 -3z" />
    <path d="M814 918 c-3 -4 -4 -8 -2 -9 25 -6 35 -5 35 5 0 14 -25 17 -33 4z" />
    <path d="M1523 924 c10 -11 76 -13 82 -3 4 5 -14 9 -41 9 -26 0 -45 -3 -41 -6z" />
    <path
      d="M2084 906 c22 -35 20 -44 -9 -38 -15 2 -25 0 -25 -7 0 -7 14 -11 34 -9 32 2 33 3 25 32 -5 17 -9 32 -9 32 0 1 -7 5 -16 8 -15 6 -15 4 0 -18z" />
    <path d="M2398 908 c2 -10 6 -18 7 -18 1 0 5 8 7 18 3 11 0 19 -7 19 -7 0 -10 -8 -7 -19z" />
    <path d="M585 910 c3 -5 8 -10 11 -10 2 0 4 5 4 10 0 6 -5 10 -11 10 -5 0 -7 -4 -4 -10z" />
    <path d="M640 905 c-11 -13 -10 -14 4 -9 9 3 16 10 16 15 0 13 -6 11 -20 -6z" />
    <path d="M880 912 c0 -5 7 -9 15 -9 8 0 12 4 9 9 -3 4 -9 8 -15 8 -5 0 -9 -4 -9 -8z" />
    <path
      d="M1220 900 c8 -5 11 -10 6 -10 -6 0 -5 -5 1 -11 8 -8 16 -8 30 0 16 10 15 11 -7 5 -17 -4 -22 -3 -15 4 6 5 19 12 30 15 11 3 2 5 -20 6 -29 0 -36 -2 -25 -9z" />
    <path d="M1766 902 c-2 -4 4 -8 14 -8 10 0 16 4 14 8 -3 4 -9 8 -14 8 -5 0 -11 -4 -14 -8z" />
    <path d="M1935 900 c-17 -6 -15 -8 10 -13 35 -6 40 -4 23 10 -7 6 -22 7 -33 3z" />
    <path
      d="M1987 902 c-3 -4 -3 -15 -1 -25 4 -26 -18 -31 -76 -17 -39 9 -54 9 -65 0 -10 -9 -19 -8 -37 1 -34 19 -100 29 -95 15 2 -6 16 -11 30 -12 15 -1 43 -9 62 -20 33 -17 35 -18 48 -1 11 17 15 17 50 2 49 -20 103 -9 99 22 -2 16 2 19 26 15 21 -3 31 1 36 13 5 15 4 16 -9 5 -12 -10 -21 -10 -40 -2 -13 6 -26 8 -28 4z" />
    <path
      d="M2520 900 c-17 -5 -19 -8 -7 -9 9 -1 17 -7 17 -15 0 -8 7 -17 16 -20 14 -5 15 -4 5 8 -6 7 -9 21 -5 30 3 9 5 16 3 15 -2 -1 -15 -5 -29 -9z" />
    <path d="M1576 885 c-3 -8 -1 -15 4 -15 6 0 10 7 10 15 0 8 -2 15 -4 15 -2 0 -6 -7 -10 -15z" />
    <path d="M2439 883 c-12 -16 -12 -17 2 -6 9 7 20 9 24 5 5 -4 5 -1 1 6 -9 16 -11 15 -27 -5z" />
    <path d="M2836 892 c-2 -4 11 -6 30 -4 19 2 34 6 34 8 0 8 -59 4 -64 -4z" />
    <path d="M2923 893 c9 -2 23 -2 30 0 6 3 -1 5 -18 5 -16 0 -22 -2 -12 -5z" />
    <path d="M540 881 c0 -9 30 -24 36 -18 2 1 -6 8 -16 15 -11 7 -20 8 -20 3z" />
    <path d="M674 875 c-8 -20 3 -48 16 -40 13 8 13 55 0 55 -6 0 -13 -7 -16 -15z" />
    <path d="M724 882 c-12 -8 -14 -52 -2 -52 4 0 9 3 9 8 3 14 6 52 5 52 0 0 -6 -4 -12 -8z" />
    <path d="M1200 885 c0 -5 5 -17 10 -25 5 -8 10 -10 10 -5 0 6 -5 17 -10 25 -5 8 -10 11 -10 5z" />
    <path d="M1277 876 c-3 -8 -16 -16 -29 -19 -21 -4 -21 -4 3 -6 24 -1 48 24 35 36 -2 2 -6 -3 -9 -11z" />
    <path d="M598 873 c7 -3 16 -2 19 1 4 3 -2 6 -13 5 -11 0 -14 -3 -6 -6z" />
    <path d="M875 870 c-3 -6 1 -7 9 -4 18 7 21 14 7 14 -6 0 -13 -4 -16 -10z" />
    <path
      d="M2580 864 c0 -7 -7 -20 -16 -28 -8 -9 -10 -16 -4 -16 6 0 13 6 16 14 3 9 12 12 21 9 12 -5 14 -2 9 8 -4 8 0 5 8 -5 9 -11 16 -16 17 -10 0 5 2 16 3 24 3 10 -5 15 -25 16 -18 1 -29 -4 -29 -12z" />
    <path
      d="M2783 864 c-3 -8 4 -25 16 -38 21 -22 29 -42 12 -32 -5 3 -12 -2 -15 -11 -6 -15 -8 -15 -16 -3 -8 12 -10 10 -10 -7 0 -17 4 -21 18 -16 9 4 24 16 33 27 16 19 15 22 -9 43 -20 17 -24 25 -15 34 9 9 15 6 24 -14 12 -26 49 -38 49 -17 0 6 -8 10 -18 10 -9 0 -23 9 -30 20 -15 24 -30 26 -39 4z" />
    <path d="M2970 876 c0 -2 7 -7 16 -10 8 -3 12 -2 9 4 -6 10 -25 14 -25 6z" />
    <path d="M790 856 c14 -14 67 -15 67 -1 0 5 -17 10 -38 10 -24 0 -35 -3 -29 -9z" />
    <path d="M1528 823 c-18 -33 -18 -33 2 -23 11 6 20 17 20 25 0 11 12 15 42 15 50 0 47 5 -7 12 -37 5 -41 3 -57 -29z" />
    <path d="M2165 850 c3 -5 15 -10 26 -10 11 0 17 5 14 10 -3 6 -15 10 -26 10 -11 0 -17 -4 -14 -10z" />
    <path
      d="M610 825 c18 -13 37 -22 41 -19 5 3 9 -2 9 -10 0 -9 5 -16 10 -16 7 0 7 6 1 19 -6 10 -7 22 -3 27 4 5 0 3 -9 -4 -13 -10 -21 -8 -42 8 -14 11 -29 20 -33 20 -4 0 7 -11 26 -25z" />
    <path d="M750 839 c0 -5 10 -9 22 -9 12 0 18 3 14 7 -10 11 -36 12 -36 2z" />
    <path
      d="M1747 843 c-11 -11 -8 -71 4 -79 11 -6 -36 -53 -53 -54 -5 0 -30 16 -57 35 -32 23 -52 32 -56 25 -4 -6 -4 -14 -1 -17 3 -4 6 -1 6 6 0 14 89 -44 96 -63 3 -8 19 1 44 23 29 27 36 39 28 48 -6 7 -8 29 -5 48 6 36 5 40 -6 28z" />
    <path d="M2251 833 c-1 -12 4 -25 9 -28 12 -7 12 2 0 30 -8 19 -9 19 -9 -2z" />
    <path
      d="M520 835 c0 -12 50 -83 60 -87 17 -5 90 3 90 11 0 9 -64 8 -71 -2 -4 -5 -21 12 -39 37 -32 44 -40 52 -40 41z" />
    <path d="M557 823 c9 -25 24 -43 35 -43 7 0 6 5 -1 13 -6 8 -8 16 -5 20 3 3 -4 10 -15 16 -18 10 -20 9 -14 -6z" />
    <path
      d="M2075 825 c11 -8 26 -14 35 -13 13 3 50 -31 50 -46 0 -3 -15 -7 -32 -7 -31 -2 -31 -2 -5 -6 15 -2 40 2 55 9 25 13 29 12 47 -9 20 -22 42 -32 30 -13 -4 6 6 10 24 10 37 0 75 -35 91 -85 6 -19 16 -35 21 -35 5 0 10 -10 10 -22 1 -21 2 -21 6 -3 3 11 10 27 16 35 9 12 9 13 -3 3 -11 -10 -17 -7 -32 18 -11 17 -16 41 -13 56 4 27 28 50 33 33 2 -6 16 -9 30 -9 21 1 22 2 7 6 -11 3 -26 12 -32 21 -7 9 -13 11 -13 5 0 -8 -9 -9 -28 -3 -21 5 -29 4 -29 -5 0 -7 6 -11 14 -8 16 6 18 -23 1 -33 -6 -4 -19 4 -30 19 -16 22 -28 27 -63 27 -24 0 -47 5 -50 10 -4 6 -11 8 -17 4 -5 -3 -22 6 -37 20 -17 16 -34 24 -44 21 -8 -4 -26 -1 -39 5 -22 11 -22 11 -3 -5z" />
    <path d="M2880 830 c0 -5 16 -9 35 -8 45 2 45 12 0 15 -19 1 -35 -2 -35 -7z" />
    <path d="M816 817 c3 -10 9 -15 12 -12 3 3 0 11 -7 18 -10 9 -11 8 -5 -6z" />
    <path
      d="M1892 778 c-1 -32 -4 -58 -7 -58 -4 0 -20 7 -36 16 -17 8 -33 14 -35 11 -2 -2 14 -12 37 -22 28 -13 43 -15 47 -8 4 7 28 13 52 16 l45 4 -47 1 -47 2 -4 48 c-3 46 -3 46 -5 -10z" />
    <path d="M1990 818 c0 -11 12 -10 30 2 12 7 10 9 -8 7 -12 0 -22 -5 -22 -9z" />
    <path
      d="M1563 800 c-4 -16 -14 -20 -47 -21 -32 -2 -35 -3 -12 -6 38 -6 79 5 70 18 -4 6 0 15 7 20 11 7 12 9 1 9 -8 0 -16 -9 -19 -20z" />
    <path d="M694 796 c-3 -8 -4 -23 -2 -33 3 -11 6 -6 9 15 6 34 2 42 -7 18z" />
    <path d="M1643 803 c10 -10 67 -11 67 -1 0 4 -16 8 -37 8 -20 0 -33 -3 -30 -7z" />
    <path d="M2323 795 c-3 -9 -3 -18 -1 -21 3 -3 8 4 11 16 6 23 -1 27 -10 5z" />
    <path d="M861 788 c-1 -21 -17 -24 -24 -5 -3 6 -4 2 -4 -10 1 -13 4 -23 8 -23 13 0 31 29 26 42 -4 8 -6 7 -6 -4z" />
    <path d="M1795 790 c3 -5 17 -10 31 -10 13 0 24 5 24 10 0 6 -14 10 -31 10 -17 0 -28 -4 -24 -10z" />
    <path d="M1910 790 c0 -5 14 -10 30 -10 17 0 30 5 30 10 0 6 -13 10 -30 10 -16 0 -30 -4 -30 -10z" />
    <path
      d="M1983 793 c2 -5 16 -33 31 -63 15 -30 38 -68 52 -84 21 -24 30 -27 59 -22 41 8 42 5 14 -40 -16 -26 -27 -34 -50 -34 -16 0 -29 -4 -29 -9 0 -5 16 -8 36 -7 32 2 39 8 56 40 11 21 18 49 15 62 -3 16 0 24 10 24 8 0 23 9 35 20 12 11 18 20 12 19 -17 -1 -69 -36 -67 -45 1 -5 -17 -9 -40 -9 -34 0 -43 4 -46 20 -4 27 -71 135 -83 135 -5 0 -7 -3 -5 -7z" />
    <path d="M739 781 c11 -7 11 -9 0 -14 -8 -3 0 -6 17 -6 21 -1 31 4 31 14 0 10 -10 15 -31 15 -21 0 -27 -3 -17 -9z" />
    <path d="M2040 758 c0 -5 11 -8 25 -8 14 0 25 3 25 8 0 4 -11 7 -25 7 -14 0 -25 -3 -25 -7z" />
    <path
      d="M2684 763 c8 -14 1 -16 -59 -15 -22 0 -30 -2 -17 -5 12 -2 22 -9 22 -14 0 -6 -4 -7 -10 -4 -5 3 -10 1 -10 -4 0 -6 7 -11 15 -11 8 0 15 7 15 16 0 14 3 14 15 4 10 -9 15 -9 15 -1 0 16 25 14 40 -4 7 -9 15 -13 17 -11 3 3 -7 17 -22 33 -15 15 -24 22 -21 16z" />
    <path d="M2745 760 c-3 -5 -1 -10 4 -10 6 0 11 5 11 10 0 6 -2 10 -4 10 -3 0 -8 -4 -11 -10z" />
    <path
      d="M1480 745 c-10 -11 -10 -19 -2 -27 7 -7 7 -17 0 -33 -14 -31 1 -55 27 -44 19 7 18 8 -4 8 -17 1 -22 5 -17 17 3 9 6 20 6 25 0 5 24 10 53 11 l52 1 -55 6 c-65 7 -77 32 -20 42 l35 6 -31 2 c-18 0 -37 -6 -44 -14z" />
    <path d="M694 720 c1 -8 10 -16 21 -17 15 -1 15 0 3 3 -9 3 -19 11 -21 17 -2 7 -3 5 -3 -3z" />
    <path d="M844 731 c5 -8 56 -3 56 5 0 2 -14 4 -31 4 -16 0 -28 -4 -25 -9z" />
    <path d="M600 723 c0 -6 8 -17 18 -24 16 -13 16 -13 2 6 -8 11 -16 22 -17 24 -2 2 -3 0 -3 -6z" />
    <path d="M930 715 c-6 -7 4 -9 31 -7 43 4 45 15 3 17 -14 0 -29 -4 -34 -10z" />
    <path d="M1010 719 c0 -5 9 -9 20 -9 11 0 20 2 20 4 0 2 -9 6 -20 9 -11 3 -20 1 -20 -4z" />
    <path
      d="M1799 703 c-3 -18 -2 -30 3 -27 4 3 8 -1 8 -8 0 -7 11 -13 25 -13 31 0 33 12 3 17 -16 2 -24 12 -28 33 l-6 30 -5 -32z" />
    <path d="M2174 721 c3 -5 17 -8 31 -8 14 0 25 3 25 8 0 5 -14 9 -31 9 -16 0 -28 -4 -25 -9z" />
    <path d="M2390 719 c0 -5 5 -7 10 -4 6 3 10 8 10 11 0 2 -4 4 -10 4 -5 0 -10 -5 -10 -11z" />
    <path d="M2510 719 c0 -5 5 -7 10 -4 6 3 10 8 10 11 0 2 -4 4 -10 4 -5 0 -10 -5 -10 -11z" />
    <path d="M2570 720 c0 -5 7 -10 16 -10 8 0 12 5 9 10 -3 6 -10 10 -16 10 -5 0 -9 -4 -9 -10z" />
    <path d="M765 710 c-4 -6 -11 -7 -17 -4 -7 4 -8 2 -4 -4 10 -16 23 -15 30 3 6 17 0 20 -9 5z" />
    <path
      d="M2438 697 c-8 -42 5 -46 37 -14 17 17 21 23 9 14 -21 -18 -39 -23 -30 -9 2 4 1 14 -3 21 -6 9 -10 5 -13 -12z" />
    <path d="M2910 710 c20 -13 40 -13 40 0 0 6 -12 10 -27 10 -22 0 -25 -2 -13 -10z" />
    <path d="M2964 713 c10 -11 36 -12 36 -2 0 5 -10 9 -22 9 -12 0 -18 -3 -14 -7z" />
    <path d="M647 696 c-4 -10 -1 -13 8 -9 8 3 12 9 9 14 -7 12 -11 11 -17 -5z" />
    <path d="M2155 700 c3 -5 8 -10 11 -10 2 0 4 5 4 10 0 6 -5 10 -11 10 -5 0 -7 -4 -4 -10z" />
    <path d="M2411 702 c-1 -8 -6 -10 -13 -6 -10 5 -10 4 -1 -6 15 -16 28 -8 20 12 -4 11 -6 11 -6 0z" />
    <path d="M1620 690 c19 -13 30 -13 30 0 0 6 -10 10 -22 10 -19 0 -20 -2 -8 -10z" />
    <path d="M1720 690 c0 -5 11 -10 25 -10 14 0 25 5 25 10 0 6 -11 10 -25 10 -14 0 -25 -4 -25 -10z" />
    <path d="M1877 681 c-4 -17 -3 -21 5 -13 5 5 8 16 6 23 -3 8 -7 3 -11 -10z" />
    <path d="M1976 691 c-4 -5 -17 -8 -31 -6 -14 1 -25 -2 -25 -6 0 -16 58 -10 64 6 6 16 1 20 -8 6z" />
    <path d="M2831 684 c0 -11 3 -14 6 -6 3 7 2 16 -1 19 -3 4 -6 -2 -5 -13z" />
    <path d="M2090 679 c0 -13 14 -16 40 -9 24 6 24 7 -7 11 -18 3 -33 2 -33 -2z" />
    <path d="M2570 681 c0 -6 4 -13 10 -16 6 -3 7 1 4 9 -7 18 -14 21 -14 7z" />
    <path d="M2610 679 c0 -5 18 -9 40 -9 52 0 52 15 0 16 -22 1 -40 -2 -40 -7z" />
    <path d="M2750 672 c-11 -12 -9 -13 10 -7 15 5 25 2 31 -6 7 -11 9 -9 9 6 0 24 -30 28 -50 7z" />
    <path d="M2855 679 c-4 -6 -5 -12 -2 -15 2 -3 7 2 10 11 7 17 1 20 -8 4z" />
    <path d="M710 674 c36 -8 100 -9 100 -2 0 5 -26 7 -57 7 -32 -1 -51 -3 -43 -5z" />
    <path
      d="M867 655 c-9 -8 -29 -13 -51 -11 -20 1 -36 -1 -36 -6 0 -12 88 -10 92 2 2 6 25 11 51 12 26 0 47 4 47 9 0 15 -87 10 -103 -6z" />
    <path d="M1530 651 c0 -25 6 -27 13 -6 4 8 2 17 -3 20 -6 4 -10 -3 -10 -14z" />
    <path d="M2810 653 c0 -21 5 -23 56 -23 33 0 53 4 49 10 -3 5 -24 8 -46 6 -28 -2 -42 1 -49 13 -8 13 -9 12 -10 -6z" />
    <path
      d="M1596 652 c-8 -7 17 -28 42 -34 12 -3 22 -2 22 2 0 5 -10 11 -22 13 -20 4 -19 4 4 6 18 1 32 -6 40 -19 9 -15 24 -20 52 -20 38 0 39 -1 20 -16 -18 -14 -18 -15 4 -4 19 9 21 14 11 26 -6 8 -25 14 -42 14 -17 0 -38 7 -47 15 -16 15 -75 27 -84 17z" />
    <path
      d="M1707 648 c2 -5 22 -8 44 -8 41 0 42 -2 41 -55 -1 -16 2 -25 6 -19 4 5 24 20 45 32 27 16 37 18 37 8 0 -8 7 -17 16 -20 8 -3 12 -10 9 -16 -3 -5 -1 -10 4 -10 16 0 14 11 -6 32 -16 17 -15 18 18 14 19 -2 40 1 48 8 12 9 13 8 8 -6 -3 -10 -2 -20 3 -23 15 -10 12 -25 -6 -25 -8 0 -12 -5 -9 -10 13 -21 34 10 28 41 -4 21 -1 30 11 35 9 3 16 14 16 23 -1 13 -5 11 -20 -7 -22 -27 -30 -29 -41 -11 -6 11 -9 10 -14 -3 -5 -13 -13 -14 -48 -6 -23 5 -54 8 -69 5 -18 -2 -28 1 -30 11 -2 10 -18 15 -50 16 -25 0 -44 -2 -41 -6z m130 -44 c-16 -9 -32 -13 -35 -9 -9 9 19 25 43 24 16 0 15 -2 -8 -15z" />
    <path d="M2460 649 c0 -4 25 -8 55 -8 30 0 55 3 55 7 0 4 -25 7 -55 8 -30 0 -55 -3 -55 -7z" />
    <path d="M2765 649 c-4 -6 -5 -12 -2 -15 2 -3 7 2 10 11 7 17 1 20 -8 4z" />
    <path d="M2270 639 c-34 -6 -33 -6 13 -8 46 -1 59 3 35 11 -7 2 -29 1 -48 -3z" />
    <path d="M2657 637 c-7 -20 17 -55 27 -39 4 7 2 12 -4 12 -6 0 -9 4 -6 8 2 4 1 14 -3 21 -7 10 -9 10 -14 -2z" />
    <path d="M2691 631 c0 -9 3 -11 5 -4 3 6 16 9 30 7 14 -3 23 -1 20 4 -10 17 -56 11 -55 -7z" />
    <path d="M1510 618 c0 -5 20 -8 45 -8 25 0 45 3 45 8 0 4 -20 7 -45 7 -25 0 -45 -3 -45 -7z" />
    <path d="M2623 615 c0 -8 6 -16 14 -19 15 -6 15 -4 7 18 -8 20 -21 21 -21 1z" />
    <path d="M2435 609 c-4 -6 -4 -13 -1 -16 3 -4 6 -1 6 6 0 7 5 9 12 5 7 -4 8 -3 4 4 -9 15 -13 15 -21 1z" />
    <path d="M825 600 c-3 -6 1 -7 9 -4 18 7 21 14 7 14 -6 0 -13 -4 -16 -10z" />
    <path
      d="M944 601 c4 -5 3 -11 -1 -14 -5 -2 -1 -2 7 1 35 10 83 7 87 -6 6 -14 73 -14 73 1 0 4 -14 6 -31 3 -20 -3 -32 0 -36 10 -3 9 -21 14 -55 14 -27 0 -47 -4 -44 -9z" />
    <path d="M2000 600 c0 -5 18 -10 40 -10 22 0 40 5 40 10 0 6 -18 10 -40 10 -22 0 -40 -4 -40 -10z" />
    <path d="M1555 580 c10 -11 20 -18 23 -15 7 6 -18 35 -31 35 -5 0 -2 -9 8 -20z" />
    <path d="M1610 589 c0 -5 14 -9 30 -9 39 0 39 15 0 16 -17 1 -30 -3 -30 -7z" />
    <path
      d="M2030 569 c0 -5 -4 -7 -10 -4 -17 10 -11 -2 8 -16 9 -7 14 -9 10 -5 -4 5 -3 15 3 23 9 9 8 13 0 13 -6 0 -11 -5 -11 -11z" />
    <path d="M2378 573 c12 -2 32 -2 45 0 12 2 2 4 -23 4 -25 0 -35 -2 -22 -4z" />
    <path d="M2458 573 c7 -3 16 -2 19 1 4 3 -2 6 -13 5 -11 0 -14 -3 -6 -6z" />
    <path d="M90 563 c8 -3 19 -11 23 -17 6 -7 7 -6 4 4 -2 8 -12 16 -23 17 -13 2 -15 1 -4 -4z" />
    <path d="M1835 559 c-4 -6 -5 -12 -2 -15 2 -3 7 2 10 11 7 17 1 20 -8 4z" />
    <path
      d="M2780 549 c0 -10 -4 -19 -10 -19 -5 0 -10 -4 -10 -8 0 -5 7 -9 15 -9 8 0 12 4 9 8 -2 4 5 14 16 22 l21 14 -21 6 c-15 4 -20 0 -20 -14z" />
    <path d="M883 554 c9 -9 87 -11 87 -2 0 4 -21 8 -47 8 -25 0 -44 -3 -40 -6z" />
    <path d="M1018 553 c7 -3 16 -2 19 1 4 3 -2 6 -13 5 -11 0 -14 -3 -6 -6z" />
    <path d="M1083 553 c15 -2 37 -2 50 0 12 2 0 4 -28 4 -27 0 -38 -2 -22 -4z" />
    <path d="M1630 550 c0 -5 4 -10 9 -10 6 0 13 5 16 10 3 6 -1 10 -9 10 -9 0 -16 -4 -16 -10z" />
    <path d="M1670 551 c0 -4 16 -7 35 -8 19 0 35 3 35 7 0 4 -16 8 -35 8 -19 0 -35 -3 -35 -7z" />
    <path d="M1868 553 c7 -3 16 -2 19 1 4 3 -2 6 -13 5 -11 0 -14 -3 -6 -6z" />
    <path d="M2640 552 c0 -4 18 -7 40 -7 22 0 40 3 40 7 0 5 -18 8 -40 8 -22 0 -40 -3 -40 -8z" />
    <path d="M1775 540 l-30 -8 32 -1 c17 0 35 4 38 9 7 11 3 11 -40 0z" />
    <path
      d="M1945 529 c-4 -6 -33 -9 -68 -8 -52 2 -61 0 -63 -15 -2 -14 0 -16 9 -7 6 6 35 11 64 11 43 0 51 -3 47 -15 -4 -8 -2 -21 4 -28 6 -6 11 -15 11 -19 1 -5 3 -8 6 -8 74 0 81 2 98 25 34 46 -13 81 -75 57 -11 -5 -14 -12 -9 -21 6 -9 11 -10 15 -2 8 12 58 15 69 5 3 -3 1 -15 -6 -25 -9 -14 -23 -19 -55 -19 -48 0 -58 13 -43 53 11 27 8 36 -4 16z" />
    <path
      d="M75 519 l-50 -6 51 -1 c42 -2 53 -6 63 -24 l11 -23 -6 22 -5 23 343 2 343 3 -350 5 c-192 3 -372 2 -400 -1z" />
    <path
      d="M920 519 c-25 -5 -55 -8 -67 -6 -14 3 -23 -1 -23 -8 0 -14 63 -16 76 -2 4 4 18 7 31 7 21 0 23 -3 17 -22 -3 -13 -3 -20 1 -16 6 6 17 61 12 57 -1 -1 -22 -5 -47 -10z" />
    <path d="M1000 518 c0 -5 16 -8 35 -8 19 0 35 3 35 8 0 4 -16 7 -35 7 -19 0 -35 -3 -35 -7z" />
    <path d="M2370 520 l-255 -6 258 -2 c166 -1 257 2 257 8 0 6 -1 9 -2 8 -2 -1 -118 -5 -258 -8z" />
    <path d="M1081 516 c11 -9 69 -15 64 -6 -3 6 -20 10 -37 10 -17 0 -29 -2 -27 -4z" />
    <path d="M1297 513 c79 -2 207 -2 285 0 79 1 15 3 -142 3 -157 0 -221 -2 -143 -3z" />
    <path d="M1730 509 c0 -5 17 -9 37 -9 20 0 33 3 29 7 -10 11 -66 13 -66 2z" />
    <path d="M2078 513 c6 -2 18 -2 25 0 6 3 1 5 -13 5 -14 0 -19 -2 -12 -5z" />
    <path d="M2648 513 c7 -3 16 -2 19 1 4 3 -2 6 -13 5 -11 0 -14 -3 -6 -6z" />
    <path d="M2688 513 c7 -3 16 -2 19 1 4 3 -2 6 -13 5 -11 0 -14 -3 -6 -6z" />
    <path d="M2848 513 c6 -2 18 -2 25 0 6 3 1 5 -13 5 -14 0 -19 -2 -12 -5z" />
    <path d="M2918 513 c18 -2 45 -2 60 0 15 2 0 4 -33 4 -33 0 -45 -2 -27 -4z" />
    <path d="M33 493 c9 -2 23 -2 30 0 6 3 -1 5 -18 5 -17 0 -22 -2 -12 -5z" />
    <path d="M1150 490 c-9 -6 -10 -10 -3 -10 6 0 15 5 18 10 8 12 4 12 -15 0z" />
    <path d="M1226 485 c-9 -26 -7 -32 5 -12 6 10 9 21 6 23 -2 3 -7 -2 -11 -11z" />
    <path d="M1860 490 c0 -5 9 -10 20 -10 11 0 20 5 20 10 0 6 -9 10 -20 10 -11 0 -20 -4 -20 -10z" />
    <path d="M2763 493 c15 -2 37 -2 50 0 12 2 0 4 -28 4 -27 0 -38 -2 -22 -4z" />
    <path d="M1182 481 c-11 -6 -10 -10 4 -15 9 -3 19 -4 22 -1 3 3 0 5 -7 5 -7 0 -9 5 -6 10 7 12 4 12 -13 1z" />
    <path d="M2841 474 c0 -11 3 -14 6 -6 3 7 2 16 -1 19 -3 4 -6 -2 -5 -13z" />
    <path d="M861 465 c8 -6 20 -17 27 -25 11 -13 12 -11 2 11 -6 14 -19 26 -27 26 -13 0 -13 -2 -2 -12z" />
    <path d="M1795 470 c-4 -6 -11 -8 -16 -5 -5 4 -9 1 -9 -4 0 -17 27 -13 34 4 6 17 0 20 -9 5z" />
    <path d="M2696 463 c-6 -14 -5 -15 5 -6 7 7 10 15 7 18 -3 3 -9 -2 -12 -12z" />
    <path
      d="M927 463 c-14 -13 -6 -41 16 -57 12 -9 18 -15 12 -13 -5 2 -19 8 -30 12 -11 4 -27 9 -35 11 -7 2 -22 13 -32 26 -10 13 -18 19 -18 15 0 -5 9 -20 20 -34 11 -14 20 -22 20 -18 0 4 11 0 25 -9 14 -9 25 -14 25 -11 0 3 9 1 20 -5 11 -6 17 -16 14 -22 -4 -7 -3 -8 4 -4 7 4 12 2 12 -3 0 -6 18 -11 40 -11 31 0 42 -5 48 -19 7 -19 7 -19 18 3 9 19 7 22 -10 24 -83 7 -89 9 -98 31 -10 29 -34 52 -43 43 -4 -4 -5 5 -3 21 6 29 5 31 -5 20z" />
    <path d="M2860 458 c0 -4 18 -7 40 -6 22 1 38 3 35 6 -8 9 -75 9 -75 0z" />
    <path d="M150 454 c0 -6 7 -19 16 -30 14 -18 14 -18 3 6 -14 31 -19 36 -19 24z" />
    <path d="M2725 450 c3 -5 12 -7 20 -3 21 7 19 13 -6 13 -11 0 -18 -4 -14 -10z" />
    <path
      d="M1215 430 c-4 -11 -11 -18 -16 -14 -5 3 -8 0 -7 -7 2 -7 -8 -16 -22 -20 -21 -6 -22 -7 -4 -8 24 -1 64 33 64 54 0 21 -8 18 -15 -5z" />
    <path d="M1302 436 c7 -8 15 -12 17 -11 5 6 -10 25 -20 25 -5 0 -4 -6 3 -14z" />
    <path
      d="M1845 442 c6 -4 18 -20 27 -37 13 -23 25 -31 52 -33 21 -2 36 1 36 7 0 6 -14 11 -31 11 -32 0 -51 13 -62 43 -3 9 -12 17 -19 17 -8 0 -9 -3 -3 -8z" />
    <path d="M73 433 c9 -2 25 -2 35 0 9 3 1 5 -18 5 -19 0 -27 -2 -17 -5z" />
    <path
      d="M1006 427 c-18 -13 -17 -15 9 -35 15 -12 33 -22 39 -22 6 1 1 6 -12 13 -12 7 -19 17 -15 21 4 4 4 7 -2 6 -24 -5 -27 1 -9 15 10 8 16 15 13 15 -3 0 -13 -6 -23 -13z" />
    <path d="M1070 432 c0 -5 14 -9 30 -10 17 0 30 4 30 9 0 5 -13 9 -30 9 -16 0 -30 -4 -30 -8z" />
    <path d="M2950 429 c0 -5 12 -9 27 -9 30 0 27 9 -6 15 -11 2 -21 0 -21 -6z" />
    <path d="M2738 423 c6 -2 18 -2 25 0 6 3 1 5 -13 5 -14 0 -19 -2 -12 -5z" />
    <path d="M2883 415 c0 -8 4 -12 9 -9 5 3 6 10 3 15 -9 13 -12 11 -12 -6z" />
    <path d="M1046 407 c3 -10 9 -15 12 -12 3 3 0 11 -7 18 -10 9 -11 8 -5 -6z" />
    <path d="M1155 410 c4 -6 11 -8 16 -5 14 9 11 15 -7 15 -8 0 -12 -5 -9 -10z" />
    <path d="M1280 410 c-8 -5 -11 -10 -6 -10 5 0 3 -7 -4 -15 -7 -9 -10 -18 -7 -21 3 -3 13 8 22 25 17 34 17 35 -5 21z" />
    <path d="M1974 409 c-4 -7 -3 -9 4 -5 5 3 13 0 15 -6 4 -9 6 -10 6 -1 1 17 -16 25 -25 12z" />
    <path d="M137 399 c7 -7 15 -10 18 -7 3 3 -2 9 -12 12 -14 6 -15 5 -6 -5z" />
    <path d="M1116 401 c-4 -7 -5 -15 -2 -18 9 -9 19 4 14 18 -4 11 -6 11 -12 0z" />
    <path
      d="M1790 390 c0 -6 6 -10 13 -9 34 4 55 -3 60 -21 3 -10 0 -21 -7 -23 -17 -6 98 -20 120 -14 11 3 2 5 -18 6 -55 2 -85 16 -92 45 -5 22 -12 26 -41 26 -19 0 -35 -5 -35 -10z" />
    <path
      d="M2892 380 c-23 -11 -42 -24 -42 -30 0 -6 -20 -19 -45 -30 -40 -17 -45 -23 -45 -52 0 -18 7 -51 15 -73 14 -39 14 -40 15 -9 0 17 -3 34 -7 37 -3 4 -8 20 -9 36 -3 24 1 31 29 42 17 7 47 27 66 46 26 25 37 30 48 22 10 -9 13 -8 13 2 1 9 5 8 15 -5 8 -11 15 -16 15 -10 0 5 -6 17 -13 26 -12 15 -16 15 -55 -2z" />
    <path
      d="M889 372 c7 -12 21 -28 31 -35 14 -8 20 -23 20 -47 1 -29 2 -32 11 -17 6 10 8 24 6 31 -3 8 0 19 6 25 7 7 8 12 2 11 -21 -5 -33 1 -60 28 -25 24 -27 24 -16 4z" />
    <path d="M2147 371 c-4 -17 -3 -21 5 -13 5 5 8 16 6 23 -3 8 -7 3 -11 -10z" />
    <path d="M1757 367 c-11 -29 -9 -43 4 -30 6 6 9 19 7 29 -3 18 -4 18 -11 1z" />
    <path d="M1980 369 c0 -5 29 -9 65 -9 36 0 65 4 65 9 0 4 -29 8 -65 9 -36 0 -65 -4 -65 -9z" />
    <path d="M1180 360 c-9 -6 -10 -10 -3 -10 6 0 15 5 18 10 8 12 4 12 -15 0z" />
    <path d="M1124 349 c-3 -6 2 -18 12 -27 17 -16 17 -16 5 0 -7 9 -10 22 -6 28 3 5 4 10 1 10 -3 0 -8 -5 -12 -11z" />
    <path d="M1200 339 c0 -5 5 -7 10 -4 6 3 10 8 10 11 0 2 -4 4 -10 4 -5 0 -10 -5 -10 -11z" />
    <path d="M1004 280 c-6 -28 -7 -53 -2 -56 4 -3 8 1 9 8 0 7 2 32 5 56 8 58 0 53 -12 -8z" />
    <path d="M1248 323 c10 -4 10 -11 -3 -31 l-16 -27 20 24 c26 28 27 41 4 40 -12 0 -13 -2 -5 -6z" />
    <path
      d="M1774 289 c4 -23 18 -66 33 -96 l26 -55 44 5 c25 3 52 13 62 22 15 16 15 17 -4 7 -11 -5 -39 -13 -62 -17 -39 -6 -43 -5 -43 14 0 19 6 21 62 21 76 0 73 7 -5 12 -35 3 -57 0 -57 -7 -1 -17 -22 26 -36 72 l-13 43 29 0 c17 0 30 5 30 10 0 6 -16 10 -36 10 l-37 0 7 -41z" />
    <path d="M2960 320 c0 -5 5 -10 10 -10 6 0 10 5 10 10 0 6 -4 10 -10 10 -5 0 -10 -4 -10 -10z" />
    <path d="M1030 309 c0 -5 5 -7 10 -4 6 3 10 8 10 11 0 2 -4 4 -10 4 -5 0 -10 -5 -10 -11z" />
    <path d="M1105 310 c3 -5 8 -10 11 -10 2 0 4 5 4 10 0 6 -5 10 -11 10 -5 0 -7 -4 -4 -10z" />
    <path d="M2001 304 c0 -11 3 -14 6 -6 3 7 2 16 -1 19 -3 4 -6 -2 -5 -13z" />
    <path d="M1165 299 c-4 -6 -5 -12 -2 -15 2 -3 7 2 10 11 7 17 1 20 -8 4z" />
    <path d="M2050 302 c0 -5 25 -10 55 -11 33 -1 55 2 55 8 0 7 -23 11 -55 11 -30 0 -55 -4 -55 -8z" />
    <path d="M2418 303 c12 -2 32 -2 45 0 12 2 2 4 -23 4 -25 0 -35 -2 -22 -4z" />
    <path d="M1840 290 c0 -5 20 -10 45 -10 25 0 45 5 45 10 0 6 -20 10 -45 10 -25 0 -45 -4 -45 -10z" />
    <path d="M1961 300 c-1 -3 -4 -21 -6 -39 -2 -27 -1 -31 7 -18 5 10 7 28 5 40 -2 12 -5 20 -6 17z" />
    <path d="M1030 279 c0 -5 21 -9 47 -9 25 0 43 3 39 7 -11 11 -86 13 -86 2z" />
    <path d="M1196 275 c-10 -8 -22 -12 -26 -10 -4 2 -7 -2 -7 -10 0 -16 26 -6 47 19 15 20 11 20 -14 1z" />
    <path d="M2420 281 c0 -4 12 -7 26 -5 38 4 42 14 6 14 -18 0 -32 -4 -32 -9z" />
    <path d="M1991 263 c-7 -8 -11 -16 -8 -19 2 -2 10 2 17 11 17 20 9 27 -9 8z" />
    <path
      d="M2070 273 c0 -17 26 -34 44 -27 9 3 16 13 16 22 0 13 -3 12 -15 -4 -15 -19 -15 -19 -30 0 -8 11 -15 15 -15 9z" />
    <path d="M1904 258 c-4 -6 -3 -8 4 -4 6 3 15 -2 21 -11 9 -16 10 -15 8 5 -1 23 -21 30 -33 10z" />
    <path d="M2930 260 c0 -5 16 -10 35 -10 19 0 35 5 35 10 0 6 -16 10 -35 10 -19 0 -35 -4 -35 -10z" />
    <path
      d="M1110 249 c0 -6 -9 -9 -19 -6 -11 3 -22 -1 -25 -9 -3 -8 0 -11 10 -7 8 3 20 0 27 -5 10 -8 13 -5 15 14 1 13 0 24 -3 24 -3 0 -5 -5 -5 -11z" />
    <path d="M260 238 c0 -4 16 -8 35 -8 19 0 35 2 35 4 0 2 -16 6 -35 8 -19 2 -35 0 -35 -4z" />
    <path
      d="M932 208 c-1 -24 -4 -56 -7 -73 -5 -30 -5 -30 8 3 7 19 16 30 22 25 5 -4 4 -1 -2 7 -7 9 -10 25 -8 35 2 11 4 24 4 29 1 4 8 6 16 2 8 -3 15 -1 15 4 0 6 -11 10 -23 10 -21 0 -24 -5 -25 -42z" />
    <path
      d="M1462 229 c-8 -12 -9 -19 -1 -19 5 0 7 -4 4 -10 -4 -6 10 -9 37 -9 34 2 37 3 13 6 -38 6 -55 21 -36 32 7 5 9 11 4 14 -5 3 -14 -3 -21 -14z" />
    <path d="M1504 238 c-5 -7 -3 -8 6 -3 8 5 19 1 28 -11 14 -18 14 -18 8 -1 -3 10 -6 21 -6 23 0 9 -29 3 -36 -8z" />
    <path d="M2848 243 c7 -3 16 -2 19 1 4 3 -2 6 -13 5 -11 0 -14 -3 -6 -6z" />
    <path d="M1966 213 c-6 -14 -5 -15 5 -6 7 7 10 15 7 18 -3 3 -9 -2 -12 -12z" />
    <path d="M2930 220 c0 -5 5 -10 10 -10 6 0 10 5 10 10 0 6 -4 10 -10 10 -5 0 -10 -4 -10 -10z" />
    <path d="M257 214 c7 -3 9 -12 6 -21 -4 -11 -2 -14 5 -9 18 11 14 36 -5 35 -10 0 -13 -3 -6 -5z" />
    <path
      d="M2818 203 c6 -2 12 -11 12 -19 0 -8 10 -15 23 -15 20 -1 20 -2 2 -6 -11 -3 -24 -10 -30 -15 -10 -10 -5 -9 55 8 17 4 20 1 20 -25 l0 -29 -84 -1 c-104 -1 -116 -5 -116 -42 l0 -29 -332 -2 c-291 -2 -304 -3 -98 -5 172 -3 236 -7 242 -16 6 -9 8 -9 8 1 0 8 21 12 73 12 50 0 67 -3 57 -10 -11 -7 -6 -10 20 -9 29 0 31 2 15 9 -12 5 46 9 150 9 131 1 166 4 157 13 -14 14 -16 94 -2 103 6 4 5 13 -3 25 -19 31 -26 24 -24 -22 2 -40 0 -43 -23 -43 -23 0 -25 4 -24 43 0 38 -2 43 -19 38 -12 -3 -31 3 -45 15 -14 10 -30 19 -36 18 -7 0 -6 -3 2 -6z m100 -119 c47 -6 53 -9 50 -28 -3 -20 -9 -21 -126 -24 -102 -2 -123 0 -128 13 -13 34 3 43 78 44 40 1 97 -1 126 -5z" />
    <path d="M2730 55 c0 -8 5 -15 10 -15 6 0 10 7 10 15 0 8 -4 15 -10 15 -5 0 -10 -7 -10 -15z" />
    <path d="M2780 55 c0 -8 6 -15 13 -15 8 0 14 7 14 15 0 8 -6 15 -14 15 -7 0 -13 -7 -13 -15z" />
    <path d="M2822 58 c6 -18 28 -21 28 -4 0 9 -7 16 -16 16 -9 0 -14 -5 -12 -12z" />
    <path d="M2860 54 c0 -17 22 -14 28 4 2 7 -3 12 -12 12 -9 0 -16 -7 -16 -16z" />
    <path d="M2930 60 c0 -5 5 -10 10 -10 6 0 10 5 10 10 0 6 -4 10 -10 10 -5 0 -10 -4 -10 -10z" />
    <path d="M290 188 c0 -4 9 -8 20 -8 11 0 20 4 20 9 0 6 -9 9 -20 8 -11 -1 -20 -5 -20 -9z" />
    <path d="M2800 175 c0 -8 4 -15 10 -15 5 0 7 7 4 15 -4 8 -8 15 -10 15 -2 0 -4 -7 -4 -15z" />
    <path d="M1054 172 c7 -12 86 -14 86 -2 0 5 -21 10 -46 10 -25 0 -43 -4 -40 -8z" />
    <path
      d="M47 163 c-4 -3 -7 -33 -7 -65 l0 -58 65 0 c58 0 65 2 65 20 0 16 -7 20 -35 20 -32 0 -34 2 -23 19 9 15 9 23 -1 35 -12 14 -11 16 6 16 14 0 19 -7 19 -22 -1 -14 6 -24 17 -26 15 -3 18 2 15 29 -3 30 -5 32 -46 33 -47 1 -46 2 -31 -26 9 -16 7 -24 -5 -37 -15 -14 -16 -13 -10 15 6 30 -14 62 -29 47z m23 -33 c0 -5 -5 -10 -11 -10 -5 0 -7 5 -4 10 3 6 8 10 11 10 2 0 4 -4 4 -10z m48 -65 c12 1 22 -2 22 -7 0 -5 -17 -8 -37 -7 -45 3 -55 7 -48 20 4 5 13 5 23 0 9 -4 27 -7 40 -6z" />
    <path d="M964 143 c7 -7 77 -5 85 2 2 3 -17 5 -44 5 -27 0 -45 -3 -41 -7z" />
    <path
      d="M940 110 c0 -11 -3 -20 -7 -20 -5 0 -8 -20 -8 -45 0 -25 4 -44 9 -42 10 3 21 127 11 127 -3 0 -5 -9 -5 -20z" />
    <path
      d="M1085 110 c-3 -5 -15 -10 -26 -10 -10 0 -19 -4 -19 -9 0 -13 37 -2 51 15 6 8 9 14 6 14 -3 0 -9 -4 -12 -10z" />
    <path d="M1443 64 c0 -7 3 -11 7 -9 4 2 16 -2 26 -10 10 -8 23 -15 27 -15 11 0 -13 22 -39 37 -16 9 -21 8 -21 -3z" />
    <path d="M1010 60 c0 -5 4 -10 9 -10 6 0 13 5 16 10 3 6 -1 10 -9 10 -9 0 -16 -4 -16 -10z" />
    <path d="M1515 50 c3 -5 12 -7 20 -3 21 7 19 13 -6 13 -11 0 -18 -4 -14 -10z" />
    <path d="M998 19 c-12 -13 -14 -19 -5 -19 7 0 18 9 25 20 15 25 3 25 -20 -1z" />
    <path d="M2088 3 c7 -3 16 -2 19 1 4 3 -2 6 -13 5 -11 0 -14 -3 -6 -6z" />
    <path d="M2198 3 c7 -3 16 -2 19 1 4 3 -2 6 -13 5 -11 0 -14 -3 -6 -6z" />
    <path d="M2248 3 c7 -3 16 -2 19 1 4 3 -2 6 -13 5 -11 0 -14 -3 -6 -6z" />
    <path d="M2538 3 c7 -3 16 -2 19 1 4 3 -2 6 -13 5 -11 0 -14 -3 -6 -6z" />
    <path d="M2833 3 c26 -2 67 -2 90 0 23 2 2 3 -48 3 -49 0 -68 -1 -42 -3z" />
  </g>
</svg>