<svg width="42" height="45" viewBox="0 0 42 45" fill="none" xmlns="http://www.w3.org/2000/svg">
<path d="M15.7219 14.6738C15.79 15.3714 15.8173 16.069 15.8037 16.7667C15.8037 16.8094 15.8037 16.8521 15.8037 16.8948C15.79 17.3789 15.7628 17.863 15.7014 18.3542V18.3755C15.681 18.5464 15.6537 18.7243 15.6333 18.9023L13.6774 18.283C13.9091 17.5996 13.9636 16.8735 13.8819 16.1616C13.841 15.7985 13.766 15.4426 13.6502 15.0938C13.4321 14.3961 13.0982 13.6771 12.5598 13.1646C11.9124 12.5524 11.1423 12.5737 10.3041 12.5808C8.89339 12.5808 7.60538 11.8761 6.61722 10.915C5.58818 9.92553 5.01573 8.096 4.39558 6.90004C3.56417 5.29832 2.59646 4.56508 1.62193 4.13795C1.6083 4.13084 1.61512 4.10948 1.62875 4.10948C2.09216 4.03829 6.41278 3.12709 10.3041 5.80375C11.4899 6.62241 12.3758 7.69023 12.8665 9.08551C13.03 9.54823 13.0777 10.1249 12.9414 10.6089C12.8801 10.8225 12.7438 11.0218 12.553 11.1357C12.2463 11.3208 11.8715 11.335 11.5239 11.2995C11.1764 11.2639 10.8356 11.1784 10.5017 11.0645C8.30731 10.3242 6.31737 7.85396 5.17247 6.19528C5.20655 6.28783 5.24744 6.37325 5.28833 6.4658C5.41099 6.73631 5.54729 6.99971 5.6904 7.25598C5.90166 7.6404 6.13337 8.01057 6.38552 8.36651C6.69219 8.80076 7.03293 9.21365 7.39412 9.60518C7.80301 10.0323 8.24598 10.431 8.72983 10.7727C9.43858 11.2781 10.2359 11.6839 11.081 11.9045C11.817 12.0968 12.6143 12.1822 13.1799 12.7303C13.8751 13.3995 14.1545 14.4032 14.2771 15.3287C14.2908 15.2005 14.2976 15.0724 14.3112 14.9443C14.393 13.8978 14.393 12.8442 14.3316 11.7978C14.2976 11.1713 14.2431 10.552 14.1681 9.93264C14.0999 9.32043 14.0114 8.76516 13.6161 8.27397C13.289 7.8682 12.8596 7.54785 12.5802 7.09937C12.2463 6.5797 12.0896 5.96748 12.0419 5.35527C11.9737 4.45118 12.478 3.33353 12.6893 2.50063C12.9755 1.3901 12.8256 0.635512 12.5462 0.0161775C12.5393 0.00905876 12.553 -0.00517859 12.5666 0.00194019C13.2822 0.478899 13.9432 0.984332 14.5088 1.64638C15.8718 3.23387 16.676 5.61866 15.7355 7.61192C15.1562 8.82923 14.1954 7.7543 13.7728 7.02106C13.0368 5.73968 13.214 3.76778 13.3708 2.4864C13.139 3.14844 13.0096 3.86744 12.9482 4.56508C12.8869 5.41222 12.9482 6.30206 13.3162 7.08513C13.5548 7.59056 13.9705 8.01057 14.2226 8.52313C14.4339 8.97161 14.5702 9.44857 14.7269 9.92553C15.2244 11.4632 15.5788 13.0578 15.7219 14.6738Z" fill="#37B6FF"/>
<path d="M30.5648 37.1901C31.6483 37.4463 32.7046 37.7525 33.7064 38.0942V26.6614L30.5648 24.7892V37.1901Z" fill="#37B6FF"/>
<path d="M8.30052 26.6474V38.1016C9.30912 37.7527 10.3586 37.4538 11.4422 37.1975V24.7823L9.33638 26.0281L8.30052 26.6474Z" fill="#37B6FF"/>
<path d="M33.7064 20.6748L26.2032 14.6167L21.0035 10.4095L16.3557 14.1611C16.4239 15.713 16.0559 17.2008 15.8446 17.9269C15.756 18.2117 15.7015 18.3825 15.7015 18.3825V18.3612C15.5788 17.7917 15.6061 15.4425 15.7219 14.6736L9.33642 19.8276L8.29375 20.6676L3.1349 24.8321L6.27655 26.441L8.29375 24.8108L9.33642 23.9708L11.4422 22.2765L15.6265 18.8951L21.0035 14.5526L26.21 18.7527L30.5647 22.2694L33.7064 24.8108L35.7645 26.4766L38.9061 24.8677L33.7064 20.6748Z" fill="#37B6FF"/>
<path d="M33.7063 39.8034C32.7113 39.4404 31.6619 39.12 30.5647 38.8495C27.6411 38.1163 24.404 37.7105 20.9966 37.7105C17.5892 37.7105 14.3589 38.1163 11.4353 38.8495C10.3381 39.12 9.28866 39.4404 8.29369 39.8034C4.76359 41.0777 1.8809 42.8716 0 45.0001C2.37839 43.8967 5.1793 42.9855 8.29369 42.3092C12.1373 41.4763 16.4443 41.0136 20.9966 41.0136C25.5557 41.0136 29.8627 41.4763 33.7063 42.3092C36.8207 42.9855 39.6216 43.8967 42 45.0001C40.1259 42.8787 37.25 41.0848 33.7063 39.8034Z" fill="#37B6FF"/>
<path d="M20.54 28.1071H16.5738V33.7238H20.54V28.1071Z" fill="#37B6FF"/>
<path d="M25.433 28.1071H21.4668V33.7238H25.433V28.1071Z" fill="#37B6FF"/>
<path d="M20.54 21.5002H16.5738V27.1169H20.54V21.5002Z" fill="#37B6FF"/>
<path d="M25.433 21.5002H21.4668V27.1169H25.433V21.5002Z" fill="#37B6FF"/>
</svg>
